<svg version="1.1" id="Layer_1" xmlns="http://www.w3.org/2000/svg" xmlns:xlink="http://www.w3.org/1999/xlink" x="0px" y="0px"
	 width="100%" viewBox="0 0 377 121" enable-background="new 0 0 377 121" xml:space="preserve">
<path fill="#FEF3B7" opacity="1.000000" stroke="none" 
	d="
M377.000000,122.000000 
	C252.310699,122.000000 127.621391,122.000000 2.465839,121.531342 
	C1.999775,83.426048 2.076188,45.789062 1.902129,8.153233 
	C1.880751,3.530778 2.870020,1.887305 7.864159,1.892974 
	C128.934036,2.030392 250.004135,2.029132 371.074005,1.895718 
	C375.983643,1.890308 377.123627,3.391817 377.101288,8.091406 
	C376.920654,46.060238 376.999969,84.030304 377.000000,122.000000 
M175.529755,87.427071 
	C175.622757,84.826645 177.647064,81.830780 174.006226,79.330276 
	C174.009232,78.887428 174.012238,78.444588 174.802826,77.960091 
	C175.962738,75.739136 177.122665,73.518181 178.654648,70.584793 
	C180.056732,72.140251 181.565338,73.357811 182.493637,74.920181 
	C187.322601,83.047592 191.719070,91.449310 196.891403,99.345940 
	C198.692703,102.096016 202.335541,105.461899 205.046387,105.383919 
	C209.554749,105.254234 212.254471,101.011452 212.868408,96.344200 
	C213.450043,91.922340 213.578476,87.442886 214.012451,82.999146 
	C214.943588,73.464798 215.805862,63.919319 217.038651,54.422836 
	C217.266327,52.669010 218.799637,50.340912 220.305817,49.753517 
	C221.341537,49.349586 223.818405,51.157753 224.875931,52.561283 
	C228.565186,57.457542 231.688492,62.785843 235.450424,67.620384 
	C241.241226,75.062218 241.793518,83.285103 239.274658,92.153900 
	C235.455948,92.790047 234.685791,95.373474 235.047363,99.517540 
	C235.894608,104.894470 239.934387,105.133957 244.058502,104.957573 
	C248.667145,104.760460 253.261688,104.239891 257.870087,104.028076 
	C261.319763,103.869514 263.127106,102.362366 262.955688,98.006943 
	C263.520233,91.798599 259.171783,91.917923 254.996506,90.922394 
	C254.997467,86.123192 254.595276,81.277702 255.139221,76.540855 
	C255.510284,73.309372 256.554779,69.755661 258.438293,67.179604 
	C262.509857,61.610878 267.486755,56.714241 271.773254,51.289783 
	C276.509796,45.295803 281.623505,44.100739 287.982971,48.723736 
	C286.717316,51.174660 285.451660,53.625580 283.445465,56.172604 
	C283.048523,56.453850 282.469574,56.645721 282.281189,57.029385 
	C277.290863,67.192505 280.455353,86.206680 288.119690,94.705902 
	C294.464020,101.741333 302.681854,104.004776 311.548157,105.398247 
	C324.957672,107.505775 336.083466,103.730080 345.011536,93.453003 
	C354.392761,82.654343 355.987000,70.414078 351.771332,57.131584 
	C351.490662,56.247242 350.174805,55.691441 349.049438,54.290539 
	C346.331146,47.224812 342.556000,41.135399 336.141754,36.542042 
	C324.533325,28.229038 301.655029,30.972963 291.884674,41.855721 
	C290.305237,40.239693 288.725769,38.623669 287.105103,36.218498 
	C287.125854,33.072750 285.606750,31.216442 282.452942,30.926180 
	C275.101227,30.249561 267.751221,29.501507 260.383575,29.076340 
	C257.409149,28.904696 255.903381,30.813011 255.620438,34.346344 
	C256.748596,37.568035 257.876740,40.789722 258.749268,44.641396 
	C254.911301,49.392017 251.073334,54.142639 246.499069,59.804665 
	C243.393326,54.863132 240.657639,50.510357 238.247620,45.519165 
	C239.483688,42.961525 240.719757,40.403881 241.975128,37.049931 
	C242.573334,32.368923 239.537079,31.301601 235.905396,31.329273 
	C231.128250,31.365677 226.336334,31.592222 221.583923,32.068157 
	C217.741760,32.452930 213.948639,33.327656 209.351349,34.281010 
	C207.375046,34.501488 205.398682,34.904999 203.422440,34.904560 
	C199.235901,34.903622 197.039932,36.466553 197.549332,41.413082 
	C197.610794,46.388958 201.419144,48.110085 205.059204,50.874073 
	C204.263809,60.368336 203.468414,69.862595 202.583023,80.430992 
	C200.747253,78.058571 199.337204,76.672768 198.442047,75.009796 
	C191.840897,62.746712 185.076431,50.559044 178.937866,38.065376 
	C176.349442,32.797203 173.457184,29.134224 167.171768,29.450212 
	C164.689865,29.574982 162.204010,29.678843 159.719666,29.685385 
	C153.324112,29.702227 152.299026,31.313936 154.695129,37.317505 
	C155.450623,38.353130 155.987503,39.782333 157.004471,40.347202 
	C159.583145,41.779518 162.377106,42.824226 165.107651,44.958683 
	C164.843048,60.254601 164.578445,75.550514 164.319260,90.534233 
	C160.203857,92.026794 155.119171,90.060516 154.132324,96.207016 
	C152.323944,100.581726 153.653397,104.746956 158.215027,104.953316 
	C165.767700,105.294983 173.481537,104.545532 180.949783,103.239616 
	C184.685974,102.586304 185.501709,97.619850 183.048080,94.240906 
	C182.627655,88.995720 177.852676,90.661842 175.019821,88.599777 
	C175.012619,88.399849 175.005402,88.199928 175.529755,87.427071 
M143.945923,34.286449 
	C142.267776,32.905743 140.599503,30.346462 138.909927,30.332323 
	C126.332932,30.227058 113.747726,30.523031 101.177223,31.007685 
	C99.721687,31.063803 97.063217,33.241253 97.193382,34.095112 
	C97.455940,35.817486 99.082016,37.489082 100.493416,38.810043 
	C101.154915,39.429157 102.623688,39.185726 104.557785,39.444340 
	C103.874359,55.587845 103.196953,71.589348 102.596947,85.762482 
	C99.495728,88.777641 97.368500,90.845848 94.593605,93.236244 
	C94.405167,94.825844 93.493271,97.309914 94.156593,97.846443 
	C96.698189,99.902153 99.722183,102.708794 102.608475,102.758118 
	C115.200668,102.973282 127.810989,102.406998 140.407623,101.934891 
	C144.948532,101.764717 148.226807,98.910828 148.698807,94.651375 
	C149.218674,89.960068 148.417145,85.102745 147.954590,80.340729 
	C147.874222,79.513092 146.621140,78.799362 145.469086,77.467163 
	C143.812729,70.508492 142.506531,69.820274 136.256271,72.835632 
	C135.783859,72.401108 135.123764,72.055885 134.867981,71.518288 
	C132.241669,65.998543 134.107346,63.252827 139.985947,61.572807 
	C142.620880,60.819778 146.239807,57.985168 146.552887,55.702915 
	C147.381454,49.663086 146.733170,43.405159 146.435165,37.245518 
	C146.397141,36.459427 144.947311,35.741631 143.945923,34.286449 
M32.065174,70.941757 
	C32.065174,78.454819 32.065174,85.967873 32.065174,92.247192 
	C27.872065,94.583366 24.986813,96.190872 21.956251,98.630089 
	C22.027767,102.470657 22.580063,106.743225 27.229250,106.763214 
	C33.446171,106.789932 39.731113,105.847656 45.853485,104.643478 
	C47.889565,104.243004 51.287193,102.669693 49.073086,98.266853 
	C49.255154,97.823639 49.437222,97.380424 49.828072,96.747574 
	C49.938766,96.441177 49.852497,96.206139 49.246811,95.414787 
	C49.185852,95.187599 49.124893,94.960411 48.896439,94.346062 
	C48.713959,94.107780 48.473225,93.975494 47.431522,93.766762 
	C45.962975,93.381821 44.494427,92.996887 43.018288,91.733063 
	C43.013012,88.567352 43.027061,85.401451 42.997276,82.235970 
	C42.964405,78.742279 44.637280,76.986389 48.160000,76.997894 
	C52.825279,77.013138 57.495972,77.136955 62.154476,76.957741 
	C66.709030,76.782539 68.152008,79.456200 67.898094,83.227173 
	C67.690285,86.313354 66.727066,89.348663 65.358917,92.731102 
	C64.181213,94.483627 63.003510,96.236153 61.157928,98.179863 
	C58.574230,101.991997 61.100307,104.229874 64.049843,105.359352 
	C71.032654,108.033333 78.272141,108.008064 85.225250,105.203598 
	C86.976128,104.497406 88.279716,102.398857 89.428780,100.697044 
	C89.693199,100.305428 88.474197,98.912193 87.998703,97.214088 
	C87.749718,92.683601 84.727730,91.902489 80.997078,91.107552 
	C80.993690,80.157608 81.119408,69.205437 80.929756,58.258724 
	C80.841484,53.163998 82.023613,48.985622 85.864777,45.308834 
	C87.101456,44.125072 86.604675,41.130356 86.936096,38.197247 
	C86.964363,34.051201 83.966393,33.298683 80.877243,33.251324 
	C76.071915,33.177643 71.235443,33.883820 66.459274,33.561516 
	C62.746445,33.310974 60.700680,34.360329 59.248116,37.998825 
	C57.433601,37.645409 55.619091,37.291988 53.765598,36.241295 
	C53.172440,32.813953 50.948616,31.732372 47.707531,31.794590 
	C41.105812,31.921324 34.501305,31.979206 27.898474,31.949001 
	C21.585375,31.920126 21.045197,32.624390 23.182627,39.467846 
	C26.047682,41.999844 28.912737,44.531841 31.888458,47.876476 
	C31.826685,49.237755 31.764910,50.599037 31.396002,52.155083 
	C31.349575,52.266808 31.234325,52.413109 31.269785,52.483696 
	C31.371042,52.685268 31.533567,52.856060 31.830194,53.942806 
	C31.902056,57.621181 31.973919,61.299561 31.585190,65.448059 
	C31.724480,66.970062 31.863770,68.492058 32.065174,70.941757 
z"/>
<path fill="#DEE0E4" opacity="1.000000" stroke="none" 
	d="
M377.500000,122.000000 
	C376.999969,84.030304 376.920654,46.060238 377.101288,8.091406 
	C377.123627,3.391817 375.983643,1.890308 371.074005,1.895718 
	C250.004135,2.029132 128.934036,2.030392 7.864159,1.892974 
	C2.870020,1.887305 1.880751,3.530778 1.902129,8.153233 
	C2.076188,45.789062 1.999775,83.426048 1.999797,121.531342 
	C1.666666,120.666664 1.043875,119.333725 1.042096,117.999947 
	C0.990102,79.000023 1.000000,40.000011 1.000000,1.000011 
	C126.666649,1.000007 252.333298,1.000007 377.999969,1.000004 
	C378.000000,41.333332 378.000000,81.666664 377.500000,122.000000 
z"/>
<path fill="#093CA8" opacity="1.000000" stroke="none" 
	d="
M22.101559,97.798378 
	C24.986813,96.190872 27.872065,94.583366 32.065174,92.247192 
	C32.065174,85.967873 32.065174,78.454819 32.189346,70.191727 
	C32.224270,67.953773 32.135025,66.465858 32.045780,64.977936 
	C31.973919,61.299561 31.902056,57.621181 31.830742,53.223255 
	C31.788570,52.322575 31.745853,52.141445 31.703135,51.960316 
	C31.764910,50.599037 31.826685,49.237755 31.906597,47.040470 
	C32.413677,41.775955 31.773195,38.332958 25.984335,39.095650 
	C25.066122,39.216625 24.086775,38.873573 23.135693,38.745056 
	C21.045197,32.624390 21.585375,31.920126 27.898474,31.949001 
	C34.501305,31.979206 41.105812,31.921324 47.707531,31.794590 
	C50.948616,31.732372 53.172440,32.813953 53.509850,36.754017 
	C52.185043,37.958683 51.115986,38.650627 49.596294,39.256454 
	C46.834015,39.130116 44.520889,39.128609 42.211075,39.040436 
	C38.906353,38.914284 38.473816,40.397079 39.715534,43.333046 
	C39.697517,49.035297 39.757065,54.410629 40.179779,59.757244 
	C40.242306,60.548050 42.021564,61.203129 43.463860,62.031311 
	C51.609051,61.919510 59.296947,61.697403 67.367340,61.579315 
	C68.629005,60.584339 70.137955,59.557255 70.273140,58.373306 
	C70.740067,54.283920 70.728127,50.139851 71.031769,45.605530 
	C71.780403,42.114304 70.355026,40.942390 67.407661,41.109211 
	C65.932716,41.192692 64.451454,41.164272 62.664513,41.066193 
	C61.587437,39.963413 60.818901,38.980911 60.050362,37.998409 
	C60.700680,34.360329 62.746445,33.310974 66.459274,33.561516 
	C71.235443,33.883820 76.071915,33.177643 80.877243,33.251324 
	C83.966393,33.298683 86.964363,34.051201 86.619476,38.807182 
	C84.094536,40.273064 81.886215,41.129005 78.811691,42.320690 
	C78.560768,57.949593 78.270699,74.155518 78.166878,90.362640 
	C78.163307,90.919395 80.025475,91.488098 81.018021,92.051239 
	C84.727730,91.902489 87.749718,92.683601 87.665108,97.786674 
	C86.667435,98.847557 86.021500,99.731697 85.336487,99.763077 
	C78.274307,100.086647 71.206154,100.351189 64.138542,100.383247 
	C63.371265,100.386726 62.596886,98.824608 61.825806,97.988678 
	C63.003510,96.236153 64.181213,94.483627 66.115730,92.675507 
	C67.929596,91.760582 69.855705,90.944206 69.900650,90.034851 
	C70.164093,84.704788 69.987923,79.352997 70.105164,73.663864 
	C70.967987,70.859344 70.470917,69.703415 67.488365,69.801544 
	C59.902271,70.051117 52.300362,70.172714 44.715488,69.961426 
	C40.773106,69.851601 39.711315,71.564804 40.062248,75.478996 
	C39.925499,80.499947 39.902298,85.058525 39.753563,89.613007 
	C39.675392,92.006790 40.171623,93.532394 43.025879,92.611946 
	C44.494427,92.996887 45.962975,93.381821 47.900826,94.039642 
	C48.549252,94.538757 48.780518,94.678986 49.063934,94.733223 
	C49.124893,94.960411 49.185852,95.187599 49.339249,95.956833 
	C49.431686,96.498871 49.619286,96.937210 49.619286,96.937210 
	C49.437222,97.380424 49.255154,97.823639 48.652443,98.797249 
	C46.091339,99.923225 43.984169,100.754807 41.803089,101.062485 
	C37.932922,101.608437 33.921894,101.424759 30.146755,102.305145 
	C25.745880,103.331459 23.154900,102.218231 22.101559,97.798378 
z"/>
<path fill="#FCD11C" opacity="1.000000" stroke="none" 
	d="
M155.201981,36.905987 
	C152.299026,31.313936 153.324112,29.702227 159.719666,29.685385 
	C162.204010,29.678843 164.689865,29.574982 167.171768,29.450212 
	C173.457184,29.134224 176.349442,32.797203 178.937866,38.065376 
	C185.076431,50.559044 191.840897,62.746712 198.442047,75.009796 
	C199.337204,76.672768 200.747253,78.058571 202.583023,80.430992 
	C203.468414,69.862595 204.263809,60.368336 205.249359,50.119686 
	C205.439529,47.337051 205.439529,45.308807 205.439529,43.869461 
	C202.680756,42.788010 200.364059,41.879856 198.047363,40.971703 
	C197.039932,36.466553 199.235901,34.903622 203.422440,34.904560 
	C205.398682,34.904999 207.375046,34.501488 209.820938,34.499832 
	C210.615005,41.203224 215.148468,41.301327 219.688812,41.379253 
	C217.883072,41.979599 216.296249,42.257500 214.279495,42.610695 
	C213.672684,48.394390 213.063965,54.196159 212.342133,60.431671 
	C212.092316,63.548950 211.955643,66.232483 211.628723,69.129425 
	C211.389603,69.898590 211.340729,70.454353 211.217651,71.465775 
	C210.723785,78.262360 210.304123,84.603279 209.697861,91.205696 
	C209.478424,92.313560 209.445572,93.159943 209.298279,94.377121 
	C209.020172,95.770210 208.856522,96.792496 208.382904,97.932816 
	C204.826889,101.004120 202.382294,99.740936 200.505020,96.474937 
	C194.439911,85.923111 188.362335,75.377014 182.447098,64.741104 
	C179.716690,59.831692 177.351669,54.719063 174.820969,49.698570 
	C174.419144,49.790310 174.017303,49.882050 173.615463,49.973789 
	C173.615463,55.344719 173.615463,60.715645 173.653198,66.491493 
	C173.483215,70.595108 173.275497,74.293793 172.941559,78.361603 
	C172.769318,81.207359 172.723297,83.683998 172.731781,86.470490 
	C172.897064,87.184547 173.007828,87.588737 173.096466,88.297134 
	C173.732300,88.801041 174.390244,89.000755 175.048203,89.200470 
	C177.852676,90.661842 182.627655,88.995720 182.905228,94.845779 
	C182.500946,95.950455 182.239517,96.450241 181.605576,97.124748 
	C172.883209,97.719849 164.533371,98.140221 156.019196,98.317963 
	C155.505188,97.383392 155.155472,96.691444 154.805756,95.999496 
	C155.119171,90.060516 160.203857,92.026794 164.319260,90.534233 
	C164.578445,75.550514 164.843048,60.254601 165.293396,44.173489 
	C166.728561,38.658474 165.033508,36.591114 160.067642,37.166893 
	C158.477219,37.351295 156.825607,37.007896 155.201981,36.905987 
z"/>
<path fill="#CF182A" opacity="1.000000" stroke="none" 
	d="
M136.985611,72.997391 
	C142.506531,69.820274 143.812729,70.508492 145.622437,78.176819 
	C146.005997,81.322586 146.657379,83.811356 146.361099,86.181664 
	C145.980850,89.223694 144.838959,92.170532 143.577637,95.146927 
	C128.072403,95.533821 113.014740,95.932175 97.692223,96.153915 
	C96.698669,94.956223 95.969971,93.935143 95.241272,92.914047 
	C97.368500,90.845848 99.495728,88.777641 102.596947,85.762482 
	C103.196953,71.589348 103.874359,55.587845 104.557785,39.444340 
	C102.623688,39.185726 101.154915,39.429157 100.493416,38.810043 
	C99.082016,37.489082 97.455940,35.817486 97.193382,34.095112 
	C97.063217,33.241253 99.721687,31.063803 101.177223,31.007685 
	C113.747726,30.523031 126.332932,30.227058 138.909927,30.332323 
	C140.599503,30.346462 142.267776,32.905743 143.981613,35.095222 
	C144.073517,41.008183 144.473526,46.145443 143.987595,51.197495 
	C143.830917,52.826653 141.343475,54.231628 139.922256,55.739159 
	C138.577316,54.145985 136.569443,52.741138 136.050217,50.913387 
	C135.354019,48.462742 135.809464,45.684929 135.843719,42.639336 
	C136.426453,39.414391 135.188385,38.441868 132.416580,38.464184 
	C127.169373,38.506435 121.910004,38.457802 116.675011,38.134197 
	C112.729767,37.890316 111.556831,39.462814 112.487869,43.487534 
	C112.421059,49.606308 112.421059,55.325157 112.421059,60.980038 
	C122.020096,62.702698 121.958382,62.697693 122.643578,54.248005 
	C122.732582,53.150307 123.660599,51.488823 124.531425,51.237663 
	C125.770279,50.880363 127.883133,51.104240 128.603043,51.948849 
	C129.797577,53.350277 130.647903,55.401802 130.811859,57.253109 
	C131.191513,61.540443 131.345169,65.889961 131.058411,70.178688 
	C130.879730,72.850761 129.730667,75.457939 128.612839,78.109650 
	C127.133316,78.112671 126.058052,78.100288 124.766510,77.857956 
	C123.949829,76.763580 123.349419,75.899162 122.776993,74.597488 
	C122.708572,72.781029 122.612167,71.401825 122.518990,70.068916 
	C118.732933,70.068916 115.494858,70.068916 111.862091,70.068916 
	C111.757324,71.905785 111.667442,73.481667 111.447792,75.486435 
	C111.318024,79.936440 111.318024,83.957573 111.318024,87.473190 
	C120.929855,87.473190 129.256516,87.473190 138.199905,87.473190 
	C137.751846,82.131882 137.368729,77.564636 136.985611,72.997391 
z"/>
<path fill="#0A3CA8" opacity="1.000000" stroke="none" 
	d="
M292.541962,42.257584 
	C301.655029,30.972963 324.533325,28.229038 336.141754,36.542042 
	C342.556000,41.135399 346.331146,47.224812 349.155396,55.035416 
	C350.875183,64.282692 352.772705,72.802185 347.518158,81.058853 
	C347.098999,81.727394 346.909485,82.241730 346.812286,82.889343 
	C346.904602,83.022614 346.738831,82.745178 346.427002,82.886528 
	C342.433807,86.969276 339.428741,92.105850 334.950897,94.639793 
	C317.939575,104.266243 296.862671,98.836349 286.130188,82.540359 
	C285.370636,80.705788 284.586517,79.274757 284.097229,77.749176 
	C281.780975,70.527214 282.705353,63.295750 284.186035,56.076508 
	C285.451660,53.625580 286.717316,51.174660 288.292419,48.181953 
	C289.915253,45.845970 291.228607,44.051777 292.541962,42.257584 
M292.009338,73.759705 
	C293.001770,76.403885 293.626465,79.277458 295.091858,81.626617 
	C296.508759,83.898026 298.493988,86.805977 300.749939,87.376411 
	C307.419617,89.062889 314.315186,90.296921 321.179596,90.677933 
	C334.281616,91.405167 347.329834,71.504921 342.053009,60.198120 
	C340.727112,48.558739 332.735382,40.477974 321.223206,39.136307 
	C306.716492,37.445641 294.248566,47.845623 291.187775,64.877434 
	C291.253693,66.262405 291.319611,67.647377 291.272552,69.716522 
	C291.512909,70.814972 291.753265,71.913422 292.009338,73.759705 
z"/>
<path fill="#FFFFFD" opacity="1.000000" stroke="none" 
	d="
M219.907715,41.056808 
	C215.148468,41.301327 210.615005,41.203224 210.212158,34.351849 
	C213.948639,33.327656 217.741760,32.452930 221.583923,32.068157 
	C226.336334,31.592222 231.128250,31.365677 235.905396,31.329273 
	C239.537079,31.301601 242.573334,32.368923 241.604889,37.533997 
	C238.886841,38.945438 236.539017,39.872818 233.528915,41.061787 
	C235.229523,43.034439 236.575729,44.596008 237.921936,46.157581 
	C240.657639,50.510357 243.393326,54.863132 246.499069,59.804665 
	C251.073334,54.142639 254.911301,49.392017 259.166840,44.159859 
	C261.653076,42.131290 263.721741,40.584251 266.334259,38.630516 
	C261.696869,36.466484 258.928192,35.174473 256.159515,33.882462 
	C255.903381,30.813011 257.409149,28.904696 260.383575,29.076340 
	C267.751221,29.501507 275.101227,30.249561 282.452942,30.926180 
	C285.606750,31.216442 287.125854,33.072750 287.033264,36.875965 
	C286.650726,37.983856 286.339996,38.434280 285.591980,38.914650 
	C283.031982,38.768841 280.871490,38.269619 278.797791,38.512173 
	C276.886902,38.735683 274.535858,39.241199 273.304810,40.516487 
	C268.511230,45.482235 263.929749,50.676579 259.576813,56.035610 
	C256.509766,59.811573 253.939301,63.990879 251.109711,68.427864 
	C251.384933,75.309120 251.547180,81.766426 252.136536,88.184502 
	C252.254913,89.473587 253.996857,90.613586 254.990219,91.822319 
	C259.171783,91.917923 263.520233,91.798599 262.546173,98.516609 
	C260.205383,99.347893 258.282990,99.863289 256.341064,99.951996 
	C251.887695,100.155449 247.416748,100.343735 242.968811,100.157822 
	C240.326645,100.047394 237.714691,99.214539 235.089142,98.706497 
	C234.685791,95.373474 235.455948,92.790047 240.041626,92.094963 
	C241.865540,90.666092 243.709030,89.362587 243.831406,87.913727 
	C244.193115,83.631042 243.874619,79.290894 243.860840,74.569748 
	C243.253494,71.659912 243.199539,68.765404 241.856110,66.716293 
	C236.804428,59.011036 231.484207,51.465683 225.899704,44.138519 
	C224.670532,42.525810 221.944473,42.053993 219.907715,41.056808 
z"/>
<path fill="#F8EAB1" opacity="1.000000" stroke="none" 
	d="
M136.620941,72.916512 
	C137.368729,77.564636 137.751846,82.131882 138.199905,87.473190 
	C129.256516,87.473190 120.929855,87.473190 111.318024,87.473190 
	C111.318024,83.957573 111.318024,79.936440 111.799088,75.380157 
	C115.769768,74.908249 119.259384,74.971489 122.749001,75.034737 
	C123.349419,75.899162 123.949829,76.763580 124.817307,78.179886 
	C125.747734,79.358505 126.411110,79.985245 127.074486,80.611984 
	C127.722023,79.772736 128.369553,78.933495 129.017090,78.094246 
	C129.730667,75.457939 130.879730,72.850761 131.058411,70.178688 
	C131.345169,65.889961 131.191513,61.540443 130.811859,57.253109 
	C130.647903,55.401802 129.797577,53.350277 128.603043,51.948849 
	C127.883133,51.104240 125.770279,50.880363 124.531425,51.237663 
	C123.660599,51.488823 122.732582,53.150307 122.643578,54.248005 
	C121.958382,62.697693 122.020096,62.702698 112.421059,60.980038 
	C112.421059,55.325157 112.421059,49.606308 112.824814,43.378918 
	C120.772881,39.068771 128.270325,41.229610 135.770477,43.047581 
	C135.809464,45.684929 135.354019,48.462742 136.050217,50.913387 
	C136.569443,52.741138 138.577316,54.145985 139.922256,55.739159 
	C141.343475,54.231628 143.830917,52.826653 143.987595,51.197495 
	C144.473526,46.145443 144.073517,41.008183 144.084412,35.448090 
	C144.947311,35.741631 146.397141,36.459427 146.435165,37.245518 
	C146.733170,43.405159 147.381454,49.663086 146.552887,55.702915 
	C146.239807,57.985168 142.620880,60.819778 139.985947,61.572807 
	C134.107346,63.252827 132.241669,65.998543 134.867981,71.518288 
	C135.123764,72.055885 135.783859,72.401108 136.620941,72.916512 
z"/>
<path fill="#F9EFB4" opacity="1.000000" stroke="none" 
	d="
M243.822205,74.973228 
	C243.874619,79.290894 244.193115,83.631042 243.831406,87.913727 
	C243.709030,89.362587 241.865540,90.666092 240.400787,92.037590 
	C241.793518,83.285103 241.241226,75.062218 235.450424,67.620384 
	C231.688492,62.785843 228.565186,57.457542 224.875931,52.561283 
	C223.818405,51.157753 221.341537,49.349586 220.305817,49.753517 
	C218.799637,50.340912 217.266327,52.669010 217.038651,54.422836 
	C215.805862,63.919319 214.943588,73.464798 214.012451,82.999146 
	C213.578476,87.442886 213.450043,91.922340 212.868408,96.344200 
	C212.254471,101.011452 209.554749,105.254234 205.046387,105.383919 
	C202.335541,105.461899 198.692703,102.096016 196.891403,99.345940 
	C191.719070,91.449310 187.322601,83.047592 182.493637,74.920181 
	C181.565338,73.357811 180.056732,72.140251 178.654648,70.584793 
	C177.122665,73.518181 175.962738,75.739136 174.172073,77.978699 
	C173.541321,77.997307 173.067780,77.992485 173.067780,77.992485 
	C173.275497,74.293793 173.483215,70.595108 174.047745,66.437698 
	C177.564728,64.390152 179.618378,65.453499 181.298645,68.440216 
	C186.062973,76.908936 190.940933,85.315193 195.886185,93.679810 
	C197.558228,96.507965 199.260010,99.447678 201.559891,101.716270 
	C202.576477,102.719017 205.364655,102.768883 206.877655,102.132210 
	C207.906204,101.699394 208.116623,99.322388 208.692886,97.814789 
	C208.856522,96.792496 209.020172,95.770210 209.578125,94.285660 
	C209.943115,92.863670 209.913803,91.903938 209.884476,90.944206 
	C210.304123,84.603279 210.723785,78.262360 211.481583,71.402802 
	C211.819458,70.228127 211.819214,69.572075 211.818970,68.916023 
	C211.955643,66.232483 212.092316,63.548950 212.659042,60.289410 
	C213.718185,57.189766 213.940628,54.457115 215.098129,52.205051 
	C216.123215,50.210567 217.939606,47.889046 219.874023,47.330482 
	C221.390244,46.892670 224.165909,48.467991 225.426285,49.957584 
	C228.518387,53.611984 231.002136,57.774574 233.835083,61.656487 
	C237.105667,66.138062 240.488251,70.537895 243.822205,74.973228 
z"/>
<path fill="#F6ECB3" opacity="1.000000" stroke="none" 
	d="
M347.747803,80.904648 
	C352.772705,72.802185 350.875183,64.282692 349.300903,55.381557 
	C350.174805,55.691441 351.490662,56.247242 351.771332,57.131584 
	C355.987000,70.414078 354.392761,82.654343 345.011536,93.453003 
	C336.083466,103.730080 324.957672,107.505775 311.548157,105.398247 
	C302.681854,104.004776 294.464020,101.741333 288.119690,94.705902 
	C280.455353,86.206680 277.290863,67.192505 282.281189,57.029385 
	C282.469574,56.645721 283.048523,56.453850 283.815735,56.124557 
	C282.705353,63.295750 281.780975,70.527214 284.097229,77.749176 
	C284.586517,79.274757 285.370636,80.705788 285.867981,82.735252 
	C286.724213,89.324318 289.996216,94.287468 295.192810,96.876534 
	C306.050629,102.286140 317.527832,104.695107 329.662933,100.923798 
	C337.543823,98.474602 346.300934,89.385452 346.738831,82.745178 
	C346.738831,82.745178 346.904602,83.022614 347.121796,82.918777 
	C347.475281,82.178185 347.611542,81.541420 347.747803,80.904648 
z"/>
<path fill="#F7EDB4" opacity="1.000000" stroke="none" 
	d="
M286.029297,38.884712 
	C286.339996,38.434280 286.650726,37.983856 287.053894,37.270538 
	C288.725769,38.623669 290.305237,40.239693 292.213318,42.056648 
	C291.228607,44.051777 289.915253,45.845970 288.332092,47.831116 
	C281.623505,44.100739 276.509796,45.295803 271.773254,51.289783 
	C267.486755,56.714241 262.509857,61.610878 258.438293,67.179604 
	C256.554779,69.755661 255.510284,73.309372 255.139221,76.540855 
	C254.595276,81.277702 254.997467,86.123192 254.993362,91.372360 
	C253.996857,90.613586 252.254913,89.473587 252.136536,88.184502 
	C251.547180,81.766426 251.384933,75.309120 251.461456,68.421913 
	C252.609009,67.705772 253.619110,67.655594 254.086609,67.126236 
	C258.343048,62.306461 262.428802,57.335072 266.715729,52.543354 
	C271.060944,47.686535 274.169006,40.803833 282.831696,42.606968 
	C283.605774,42.768093 284.949921,40.190418 286.029297,38.884712 
z"/>
<path fill="#F7EAB0" opacity="1.000000" stroke="none" 
	d="
M94.917435,93.075150 
	C95.969971,93.935143 96.698669,94.956223 97.786766,96.515671 
	C99.377609,97.697067 100.602379,98.882927 101.841545,98.898170 
	C112.793427,99.032928 123.769119,99.331085 134.687653,98.705696 
	C137.681946,98.534187 142.371719,99.999741 144.025192,95.158379 
	C144.838959,92.170532 145.980850,89.223694 146.361099,86.181664 
	C146.657379,83.811356 146.005997,81.322586 145.842743,78.459747 
	C146.621140,78.799362 147.874222,79.513092 147.954590,80.340729 
	C148.417145,85.102745 149.218674,89.960068 148.698807,94.651375 
	C148.226807,98.910828 144.948532,101.764717 140.407623,101.934891 
	C127.810989,102.406998 115.200668,102.973282 102.608475,102.758118 
	C99.722183,102.708794 96.698189,99.902153 94.156593,97.846443 
	C93.493271,97.309914 94.405167,94.825844 94.917435,93.075150 
z"/>
<path fill="#F4EAB3" opacity="1.000000" stroke="none" 
	d="
M59.649239,37.998619 
	C60.818901,38.980911 61.587437,39.963413 62.733841,41.408981 
	C65.707314,43.253567 68.302917,44.635086 70.898521,46.016605 
	C70.728127,50.139851 70.740067,54.283920 70.273140,58.373306 
	C70.137955,59.557255 68.629005,60.584339 67.371964,61.191643 
	C67.017601,60.367943 66.997772,60.026047 67.070961,59.705387 
	C68.885223,51.756886 65.222748,45.096992 57.506355,42.420197 
	C56.926495,42.219048 56.187229,42.206535 55.590565,42.364723 
	C43.729473,45.509346 42.987236,46.497429 42.998043,58.924217 
	C42.998913,59.923145 43.003628,60.922077 43.006557,61.921005 
	C42.021564,61.203129 40.242306,60.548050 40.179779,59.757244 
	C39.757065,54.410629 39.697517,49.035297 40.122063,43.273331 
	C42.777988,42.577633 44.912296,42.522903 46.857395,41.888279 
	C48.068508,41.493137 48.993519,40.221077 50.046928,39.342575 
	C51.115986,38.650627 52.185043,37.958683 53.529343,37.102654 
	C55.619091,37.291988 57.433601,37.645409 59.649239,37.998619 
z"/>
<path fill="#F2E9B2" opacity="1.000000" stroke="none" 
	d="
M43.022083,92.172501 
	C40.171623,93.532394 39.675392,92.006790 39.753563,89.613007 
	C39.902298,85.058525 39.925499,80.499947 40.429478,75.413658 
	C50.513821,73.098770 60.199242,72.301193 69.960037,74.008530 
	C69.987923,79.352997 70.164093,84.704788 69.900650,90.034851 
	C69.855705,90.944206 67.929596,91.760582 66.485641,92.513214 
	C66.727066,89.348663 67.690285,86.313354 67.898094,83.227173 
	C68.152008,79.456200 66.709030,76.782539 62.154476,76.957741 
	C57.495972,77.136955 52.825279,77.013138 48.160000,76.997894 
	C44.637280,76.986389 42.964405,78.742279 42.997276,82.235970 
	C43.027061,85.401451 43.013012,88.567352 43.022083,92.172501 
z"/>
<path fill="#EAE0B1" opacity="1.000000" stroke="none" 
	d="
M81.007553,91.579391 
	C80.025475,91.488098 78.163307,90.919395 78.166878,90.362640 
	C78.270699,74.155518 78.560768,57.949593 78.811691,42.320690 
	C81.886215,41.129005 84.094536,40.273064 86.601891,39.190613 
	C86.604675,41.130356 87.101456,44.125072 85.864777,45.308834 
	C82.023613,48.985622 80.841484,53.163998 80.929756,58.258724 
	C81.119408,69.205437 80.993690,80.157608 81.007553,91.579391 
z"/>
<path fill="#EFE6B0" opacity="1.000000" stroke="none" 
	d="
M61.491867,98.084274 
	C62.596886,98.824608 63.371265,100.386726 64.138542,100.383247 
	C71.206154,100.351189 78.274307,100.086647 85.336487,99.763077 
	C86.021500,99.731697 86.667435,98.847557 87.634689,98.169586 
	C88.474197,98.912193 89.693199,100.305428 89.428780,100.697044 
	C88.279716,102.398857 86.976128,104.497406 85.225250,105.203598 
	C78.272141,108.008064 71.032654,108.033333 64.049843,105.359352 
	C61.100307,104.229874 58.574230,101.991997 61.491867,98.084274 
z"/>
<path fill="#E2D9AC" opacity="1.000000" stroke="none" 
	d="
M22.028904,98.214233 
	C23.154900,102.218231 25.745880,103.331459 30.146755,102.305145 
	C33.921894,101.424759 37.932922,101.608437 41.803089,101.062485 
	C43.984169,100.754807 46.091339,99.923225 48.573830,99.149017 
	C51.287193,102.669693 47.889565,104.243004 45.853485,104.643478 
	C39.731113,105.847656 33.446171,106.789932 27.229250,106.763214 
	C22.580063,106.743225 22.027767,102.470657 22.028904,98.214233 
z"/>
<path fill="#F0E6AF" opacity="1.000000" stroke="none" 
	d="
M235.068253,99.112015 
	C237.714691,99.214539 240.326645,100.047394 242.968811,100.157822 
	C247.416748,100.343735 251.887695,100.155449 256.341064,99.951996 
	C258.282990,99.863289 260.205383,99.347893 262.540131,98.912643 
	C263.127106,102.362366 261.319763,103.869514 257.870087,104.028076 
	C253.261688,104.239891 248.667145,104.760460 244.058502,104.957573 
	C239.934387,105.133957 235.894608,104.894470 235.068253,99.112015 
z"/>
<path fill="#F8EEB3" opacity="1.000000" stroke="none" 
	d="
M181.978088,96.950027 
	C182.239517,96.450241 182.500946,95.950455 182.937439,95.225403 
	C185.501709,97.619850 184.685974,102.586304 180.949783,103.239616 
	C173.481537,104.545532 165.767700,105.294983 158.215027,104.953316 
	C153.653397,104.746956 152.323944,100.581726 154.469040,96.103256 
	C155.155472,96.691444 155.505188,97.383392 156.004669,98.725510 
	C157.898605,100.574463 159.625305,102.758209 161.390121,102.789467 
	C166.936783,102.887703 172.552200,102.498077 178.018372,101.572861 
	C179.555069,101.312752 180.669800,98.559631 181.978088,96.950027 
z"/>
<path fill="#EEDF96" opacity="1.000000" stroke="none" 
	d="
M154.948547,37.111748 
	C156.825607,37.007896 158.477219,37.351295 160.067642,37.166893 
	C165.033508,36.591114 166.728561,38.658474 165.281998,43.706223 
	C162.377106,42.824226 159.583145,41.779518 157.004471,40.347202 
	C155.987503,39.782333 155.450623,38.353130 154.948547,37.111748 
z"/>
<path fill="#F3EAB4" opacity="1.000000" stroke="none" 
	d="
M255.889984,34.114403 
	C258.928192,35.174473 261.696869,36.466484 266.334259,38.630516 
	C263.721741,40.584251 261.653076,42.131290 259.294647,43.844868 
	C257.876740,40.789722 256.748596,37.568035 255.889984,34.114403 
z"/>
<path fill="#F3E5A2" opacity="1.000000" stroke="none" 
	d="
M197.798340,41.192390 
	C200.364059,41.879856 202.680756,42.788010 205.439529,43.869461 
	C205.439529,45.308807 205.439529,47.337051 205.229279,49.688797 
	C201.419144,48.110085 197.610794,46.388958 197.798340,41.192390 
z"/>
<path fill="#CEC7AC" opacity="1.000000" stroke="none" 
	d="
M23.159161,39.106453 
	C24.086775,38.873573 25.066122,39.216625 25.984335,39.095650 
	C31.773195,38.332958 32.413677,41.775955 31.851265,46.634155 
	C28.912737,44.531841 26.047682,41.999844 23.159161,39.106453 
z"/>
<path fill="#F0E7B0" opacity="1.000000" stroke="none" 
	d="
M238.084778,45.838371 
	C236.575729,44.596008 235.229523,43.034439 233.528915,41.061787 
	C236.539017,39.872818 238.886841,38.945438 241.595245,37.932152 
	C240.719757,40.403881 239.483688,42.961525 238.084778,45.838371 
z"/>
<path fill="#F9EFB4" opacity="1.000000" stroke="none" 
	d="
M173.118576,87.992935 
	C173.007828,87.588737 172.897064,87.184547 173.049927,86.208282 
	C173.545013,83.755646 173.776474,81.875076 174.007935,79.994507 
	C177.647064,81.830780 175.622757,84.826645 174.950592,87.713303 
	C173.953812,87.997330 173.536194,87.995132 173.118576,87.992935 
z"/>
<path fill="#F4E9AE" opacity="1.000000" stroke="none" 
	d="
M174.007080,79.662392 
	C173.776474,81.875076 173.545013,83.755646 172.995407,85.898422 
	C172.723297,83.683998 172.769318,81.207359 172.941559,78.361603 
	C173.067780,77.992485 173.541321,77.997307 173.778290,77.999527 
	C174.012238,78.444588 174.009232,78.887428 174.007080,79.662392 
z"/>
<path fill="#CEC7AC" opacity="1.000000" stroke="none" 
	d="
M31.815485,65.212997 
	C32.135025,66.465858 32.224270,67.953773 32.158287,69.727875 
	C31.863770,68.492058 31.724480,66.970062 31.815485,65.212997 
z"/>
<path fill="#F4E9AE" opacity="1.000000" stroke="none" 
	d="
M173.096466,88.297134 
	C173.536194,87.995132 173.953812,87.997330 174.684799,87.999771 
	C175.005402,88.199928 175.012619,88.399849 175.034012,88.900124 
	C174.390244,89.000755 173.732300,88.801041 173.096466,88.297134 
z"/>
<path fill="#E2D9AC" opacity="1.000000" stroke="none" 
	d="
M49.723679,96.842392 
	C49.619286,96.937210 49.431686,96.498871 49.500473,96.270668 
	C49.852497,96.206139 49.938766,96.441177 49.723679,96.842392 
z"/>
<path fill="#CEC7AC" opacity="1.000000" stroke="none" 
	d="
M31.549568,52.057701 
	C31.745853,52.141445 31.788570,52.322575 31.751640,52.771332 
	C31.533567,52.856060 31.371042,52.685268 31.269785,52.483696 
	C31.234325,52.413109 31.349575,52.266808 31.549568,52.057701 
z"/>
<path fill="#E2D9AC" opacity="1.000000" stroke="none" 
	d="
M48.980186,94.539642 
	C48.780518,94.678986 48.549252,94.538757 48.272186,94.130875 
	C48.473225,93.975494 48.713959,94.107780 48.980186,94.539642 
z"/>
<path fill="#FEF3B7" opacity="1.000000" stroke="none" 
	d="
M43.463860,62.031311 
	C43.003628,60.922077 42.998913,59.923145 42.998043,58.924217 
	C42.987236,46.497429 43.729473,45.509346 55.590565,42.364723 
	C56.187229,42.206535 56.926495,42.219048 57.506355,42.420197 
	C65.222748,45.096992 68.885223,51.756886 67.070961,59.705387 
	C66.997772,60.026047 67.017601,60.367943 66.989471,61.087620 
	C59.296947,61.697403 51.609051,61.919510 43.463860,62.031311 
z"/>
<path fill="#E2D9AA" opacity="1.000000" stroke="none" 
	d="
M70.105164,73.663864 
	C60.199242,72.301193 50.513821,73.098770 40.490898,74.949585 
	C39.711315,71.564804 40.773106,69.851601 44.715488,69.961426 
	C52.300362,70.172714 59.902271,70.051117 67.488365,69.801544 
	C70.470917,69.703415 70.967987,70.859344 70.105164,73.663864 
z"/>
<path fill="#DED5AB" opacity="1.000000" stroke="none" 
	d="
M49.596294,39.256454 
	C48.993519,40.221077 48.068508,41.493137 46.857395,41.888279 
	C44.912296,42.522903 42.777988,42.577633 40.317108,42.937122 
	C38.473816,40.397079 38.906353,38.914284 42.211075,39.040436 
	C44.520889,39.128609 46.834015,39.130116 49.596294,39.256454 
z"/>
<path fill="#DFD6AB" opacity="1.000000" stroke="none" 
	d="
M71.031769,45.605530 
	C68.302917,44.635086 65.707314,43.253567 63.042377,41.529255 
	C64.451454,41.164272 65.932716,41.192692 67.407661,41.109211 
	C70.355026,40.942390 71.780403,42.114304 71.031769,45.605530 
z"/>
<path fill="#F4E9AE" opacity="1.000000" stroke="none" 
	d="
M208.382904,97.932816 
	C208.116623,99.322388 207.906204,101.699394 206.877655,102.132210 
	C205.364655,102.768883 202.576477,102.719017 201.559891,101.716270 
	C199.260010,99.447678 197.558228,96.507965 195.886185,93.679810 
	C190.940933,85.315193 186.062973,76.908936 181.298645,68.440216 
	C179.618378,65.453499 177.564728,64.390152 174.010010,66.032776 
	C173.615463,60.715645 173.615463,55.344719 173.615463,49.973789 
	C174.017303,49.882050 174.419144,49.790310 174.820969,49.698570 
	C177.351669,54.719063 179.716690,59.831692 182.447098,64.741104 
	C188.362335,75.377014 194.439911,85.923111 200.505020,96.474937 
	C202.382294,99.740936 204.826889,101.004120 208.382904,97.932816 
z"/>
<path fill="#F4E9AE" opacity="1.000000" stroke="none" 
	d="
M243.860840,74.569748 
	C240.488251,70.537895 237.105667,66.138062 233.835083,61.656487 
	C231.002136,57.774574 228.518387,53.611984 225.426285,49.957584 
	C224.165909,48.467991 221.390244,46.892670 219.874023,47.330482 
	C217.939606,47.889046 216.123215,50.210567 215.098129,52.205051 
	C213.940628,54.457115 213.718185,57.189766 212.772171,59.855667 
	C213.063965,54.196159 213.672684,48.394390 214.279495,42.610695 
	C216.296249,42.257500 217.883072,41.979599 219.688812,41.379250 
	C221.944473,42.053993 224.670532,42.525810 225.899704,44.138519 
	C231.484207,51.465683 236.804428,59.011036 241.856110,66.716293 
	C243.199539,68.765404 243.253494,71.659912 243.860840,74.569748 
z"/>
<path fill="#EFE3A4" opacity="1.000000" stroke="none" 
	d="
M181.605576,97.124748 
	C180.669800,98.559631 179.555069,101.312752 178.018372,101.572861 
	C172.552200,102.498077 166.936783,102.887703 161.390121,102.789467 
	C159.625305,102.758209 157.898605,100.574463 156.168991,98.968132 
	C164.533371,98.140221 172.883209,97.719849 181.605576,97.124748 
z"/>
<path fill="#F4E9AE" opacity="1.000000" stroke="none" 
	d="
M209.697876,91.205696 
	C209.913803,91.903938 209.943115,92.863670 209.692581,93.914856 
	C209.445572,93.159943 209.478424,92.313560 209.697876,91.205696 
z"/>
<path fill="#F4E9AE" opacity="1.000000" stroke="none" 
	d="
M211.628723,69.129425 
	C211.819214,69.572075 211.819458,70.228127 211.555786,70.947151 
	C211.340729,70.454353 211.389603,69.898590 211.628723,69.129425 
z"/>
<path fill="#EAD6A1" opacity="1.000000" stroke="none" 
	d="
M143.577637,95.146927 
	C142.371719,99.999741 137.681946,98.534187 134.687653,98.705696 
	C123.769119,99.331085 112.793427,99.032928 101.841545,98.898170 
	C100.602379,98.882927 99.377609,97.697067 98.051620,96.692276 
	C113.014740,95.932175 128.072403,95.533821 143.577637,95.146927 
z"/>
<path fill="#E8CB9A" opacity="1.000000" stroke="none" 
	d="
M135.843719,42.639336 
	C128.270325,41.229610 120.772881,39.068771 112.891617,42.978996 
	C111.556831,39.462814 112.729767,37.890316 116.675011,38.134197 
	C121.910004,38.457802 127.169373,38.506435 132.416580,38.464184 
	C135.188385,38.441868 136.426453,39.414391 135.843719,42.639336 
z"/>
<path fill="#ECD7A2" opacity="1.000000" stroke="none" 
	d="
M122.776993,74.597488 
	C119.259384,74.971489 115.769768,74.908249 111.928856,74.951279 
	C111.667442,73.481667 111.757324,71.905785 111.862091,70.068916 
	C115.494858,70.068916 118.732933,70.068916 122.518990,70.068916 
	C122.612167,71.401825 122.708572,72.781029 122.776993,74.597488 
z"/>
<path fill="#ECD7A2" opacity="1.000000" stroke="none" 
	d="
M128.612839,78.109650 
	C128.369553,78.933495 127.722023,79.772736 127.074486,80.611984 
	C126.411110,79.985245 125.747734,79.358505 125.033569,78.409836 
	C126.058052,78.100288 127.133316,78.112671 128.612839,78.109650 
z"/>
<path fill="#FCF2B7" opacity="1.000000" stroke="none" 
	d="
M341.961823,61.012516 
	C347.329834,71.504921 334.281616,91.405167 321.179596,90.677933 
	C314.315186,90.296921 307.419617,89.062889 300.749939,87.376411 
	C298.493988,86.805977 296.508759,83.898026 295.091858,81.626617 
	C293.626465,79.277458 293.001770,76.403885 292.047028,73.039635 
	C291.851654,71.223831 291.618591,70.128090 291.385529,69.032349 
	C291.319611,67.647377 291.253693,66.262405 291.585571,64.370354 
	C294.036774,60.478340 295.889679,56.950245 298.184113,53.737450 
	C303.417603,46.409153 311.187256,42.875641 319.677399,43.395275 
	C328.879822,43.958496 336.376251,48.616959 339.653809,58.168823 
	C340.025818,59.253048 341.173706,60.071064 341.961823,61.012516 
z"/>
<path fill="#E4DBAC" opacity="1.000000" stroke="none" 
	d="
M342.007416,60.605316 
	C341.173706,60.071064 340.025818,59.253048 339.653809,58.168823 
	C336.376251,48.616959 328.879822,43.958496 319.677399,43.395275 
	C311.187256,42.875641 303.417603,46.409153 298.184113,53.737450 
	C295.889679,56.950245 294.036774,60.478340 291.669312,63.956833 
	C294.248566,47.845623 306.716492,37.445641 321.223206,39.136307 
	C332.735382,40.477974 340.727112,48.558739 342.007416,60.605316 
z"/>
<path fill="#E5DCAC" opacity="1.000000" stroke="none" 
	d="
M346.427002,82.886528 
	C346.300934,89.385452 337.543823,98.474602 329.662933,100.923798 
	C317.527832,104.695107 306.050629,102.286140 295.192810,96.876534 
	C289.996216,94.287468 286.724213,89.324318 285.979248,83.095238 
	C296.862671,98.836349 317.939575,104.266243 334.950897,94.639793 
	C339.428741,92.105850 342.433807,86.969276 346.427002,82.886528 
z"/>
<path fill="#E4DBAC" opacity="1.000000" stroke="none" 
	d="
M291.329041,69.374435 
	C291.618591,70.128090 291.851654,71.223831 292.039185,72.665726 
	C291.753265,71.913422 291.512909,70.814972 291.329041,69.374435 
z"/>
<path fill="#E5DCAC" opacity="1.000000" stroke="none" 
	d="
M347.518158,81.058853 
	C347.611542,81.541420 347.475281,82.178185 347.029480,82.785507 
	C346.909485,82.241730 347.098999,81.727394 347.518158,81.058853 
z"/>
<path fill="#EFE6B0" opacity="1.000000" stroke="none" 
	d="
M285.591980,38.914658 
	C284.949921,40.190418 283.605774,42.768093 282.831696,42.606968 
	C274.169006,40.803833 271.060944,47.686535 266.715729,52.543354 
	C262.428802,57.335072 258.343048,62.306461 254.086609,67.126236 
	C253.619110,67.655594 252.609009,67.705772 251.498840,67.984146 
	C253.939301,63.990879 256.509766,59.811573 259.576813,56.035610 
	C263.929749,50.676579 268.511230,45.482235 273.304810,40.516487 
	C274.535858,39.241199 276.886902,38.735683 278.797791,38.512173 
	C280.871490,38.269619 283.031982,38.768841 285.591980,38.914658 
z"/>
</svg>