<svg version="1.1" id="Layer_1" xmlns="http://www.w3.org/2000/svg" xmlns:xlink="http://www.w3.org/1999/xlink" x="0px" y="0px"
	 width="100%" viewBox="0 0 452 192" enable-background="new 0 0 452 192" xml:space="preserve">
<path fill="#FFF4B8" opacity="1.000000" stroke="none" 
	d="
M336.000000,193.000000 
	C224.000046,193.000000 112.500076,193.000000 1.000090,193.000000 
	C1.000060,129.000061 1.000060,65.000122 1.000030,1.000141 
	C151.666550,1.000094 302.333099,1.000094 452.999756,1.000047 
	C452.999817,64.999863 452.999817,128.999725 452.999908,192.999786 
	C414.166656,193.000000 375.333344,193.000000 336.000000,193.000000 
M262.343872,38.082661 
	C261.912628,38.107357 261.481354,38.132050 260.558563,37.590019 
	C255.573349,38.412010 250.528961,38.977402 245.615555,40.110676 
	C236.083817,42.309158 233.210571,52.007366 239.772202,59.264473 
	C244.968323,65.011383 245.550323,69.977203 241.531342,78.476654 
	C240.003738,76.701050 238.373291,75.375824 237.481674,73.665451 
	C234.483994,67.915215 231.796448,62.004356 228.900467,56.199738 
	C226.231171,50.849407 224.123199,45.045181 220.571548,40.344952 
	C213.101791,30.459480 202.081970,31.571558 191.504807,32.866005 
	C188.781158,33.199329 185.897736,35.006840 183.794174,36.915657 
	C181.231308,39.241261 179.328278,38.948303 176.774033,37.259418 
	C174.761353,35.928627 172.481628,34.211662 170.259125,34.117630 
	C156.731995,33.545322 143.186310,33.181625 129.649124,33.244572 
	C126.429398,33.259541 123.218468,35.166035 119.766495,36.397987 
	C119.766495,36.397987 119.490852,36.262318 118.674133,36.138706 
	C117.540535,36.270348 115.706421,36.009247 115.379158,36.592964 
	C110.974716,44.448875 105.767387,41.813171 100.370560,37.979889 
	C99.983124,37.704704 99.434013,37.527771 98.958771,37.524944 
	C91.683411,37.481693 84.352859,36.920063 77.149490,37.633465 
	C71.267509,38.216000 65.438881,41.847378 60.103008,36.281338 
	C59.827415,35.993858 59.154034,36.033459 58.662376,36.015415 
	C49.394146,35.675323 40.126530,35.267826 30.855103,35.138351 
	C29.851446,35.124336 28.825071,36.737289 27.313190,37.665264 
	C26.819050,37.606392 26.324911,37.547516 24.979956,37.274540 
	C20.205664,36.409813 18.257898,39.556740 17.205511,43.242958 
	C15.820630,48.093807 17.945303,53.503662 22.476543,56.167782 
	C26.745670,58.677792 28.200668,61.977001 28.090652,66.844559 
	C27.815865,79.002258 27.881363,91.172020 28.053965,103.333481 
	C28.131399,108.789459 27.252819,113.289368 22.131336,116.576004 
	C18.372461,118.988190 16.275297,122.807838 17.386951,127.752991 
	C18.596533,133.133774 21.976427,136.822128 27.224541,136.853241 
	C35.562031,136.902664 43.927029,135.953369 52.241203,135.061295 
	C58.149776,134.427338 61.328091,130.269058 62.443878,124.851974 
	C63.419415,120.115822 60.842270,116.206276 57.074829,113.884735 
	C52.707417,111.193497 51.680111,107.742081 51.897984,103.013039 
	C52.062550,99.441040 53.139523,97.780403 56.873894,97.960587 
	C60.697433,98.145081 64.536850,97.998627 68.369316,98.000404 
	C76.087799,98.003983 76.929222,98.606575 75.803215,106.229355 
	C75.425819,108.784264 73.341446,111.570534 71.250893,113.300941 
	C64.121567,119.202042 64.416931,130.265045 72.742386,133.531662 
	C82.914062,137.522659 93.587715,137.207932 103.922371,133.321411 
	C106.580589,132.321747 119.056488,129.914917 121.907753,129.951553 
	C131.658966,130.076843 141.441055,130.462082 151.157501,129.867630 
	C160.530975,129.294159 169.825211,127.507294 179.184784,126.552902 
	C180.968521,126.371010 183.008072,127.355461 184.729675,128.206284 
	C187.648422,129.648743 190.224106,132.106354 193.268539,132.914200 
	C202.885147,135.466019 212.338959,132.828751 221.702911,130.865646 
	C226.977005,129.759964 229.399246,125.327003 229.716614,120.521805 
	C230.008621,116.100708 227.845901,112.237366 223.651352,109.806831 
	C217.021973,105.965454 216.067444,101.785614 220.287857,93.846634 
	C221.772537,95.633179 223.319336,97.057480 224.336960,98.792198 
	C229.634705,107.823044 234.653610,117.019951 240.065765,125.980164 
	C242.966599,130.782700 247.118927,134.242538 253.272247,132.874603 
	C258.976898,131.606415 262.042694,127.273033 262.907471,121.929565 
	C264.306854,113.282684 265.121033,104.533585 265.967346,95.806801 
	C266.814819,87.068161 267.252075,78.287773 268.215302,69.563904 
	C268.421295,67.698158 270.116089,65.996796 271.125031,64.219704 
	C272.748230,65.477661 274.751007,66.454376 275.927948,68.042953 
	C280.673401,74.448196 285.262939,80.976234 289.688873,87.606537 
	C291.031403,89.617714 292.371307,92.069069 292.486023,94.379715 
	C292.838806,101.484741 295.695984,109.121017 287.334808,114.469254 
	C283.508148,116.917000 282.253815,121.546432 283.937256,126.517197 
	C285.819153,132.073837 290.030121,134.670685 295.238525,134.825470 
	C303.180725,135.061523 311.186646,134.706207 319.098694,133.925079 
	C325.736267,133.269775 329.010895,129.717056 329.823364,123.944252 
	C330.395935,119.875694 327.046539,113.479767 322.430878,111.912537 
	C317.555878,110.257248 316.633270,107.237305 316.944855,102.777672 
	C317.211334,98.963821 316.796875,95.101372 317.082306,91.290268 
	C317.235107,89.250191 317.704803,86.846298 318.931366,85.338676 
	C325.628052,77.107338 332.431427,68.943497 339.632263,61.158009 
	C341.049286,59.625946 344.371155,59.855656 346.814514,59.272846 
	C346.625702,61.346157 346.981506,63.668282 346.165253,65.454941 
	C336.103302,87.479057 343.180939,126.018875 377.140656,131.673721 
	C391.264648,134.025589 405.509888,135.271591 417.409485,126.689583 
	C434.774780,114.165733 445.749176,97.367714 438.517822,71.883896 
	C433.598541,54.547962 424.135162,41.606636 406.098541,36.595093 
	C392.105927,32.707195 378.710480,34.811268 366.193359,41.992641 
	C362.542328,44.087330 360.532440,43.439991 357.907928,40.233360 
	C355.837952,37.704205 352.595551,35.024796 349.564880,34.596001 
	C339.750946,33.207458 329.793152,32.225563 319.893707,32.250603 
	C312.375793,32.269619 307.160522,40.603615 310.843872,46.978634 
	C314.730011,53.704594 310.760498,57.144634 307.204681,61.085388 
	C306.246216,62.147598 303.691864,62.881351 302.527344,62.343315 
	C301.284149,61.768940 300.067902,59.451057 300.183899,58.001816 
	C300.374115,55.624477 301.559998,53.297596 302.485077,51.013874 
	C305.036621,44.714851 302.483429,38.001102 295.922638,36.290737 
	C291.203857,35.060570 286.077576,35.290783 281.125916,35.175320 
	C280.438873,35.159302 279.710785,36.901093 278.335938,37.905815 
	C277.889679,37.893257 277.443420,37.880699 276.957184,37.116753 
	C274.837158,34.729683 265.584503,35.353165 262.343872,38.082661 
z"/>
<path fill="#FDF2B7" opacity="1.000000" stroke="none" 
	d="
M279.001709,37.829136 
	C279.710785,36.901093 280.438873,35.159302 281.125916,35.175320 
	C286.077576,35.290783 291.203857,35.060570 295.922638,36.290737 
	C302.483429,38.001102 305.036621,44.714851 302.485077,51.013874 
	C301.559998,53.297596 300.374115,55.624477 300.183899,58.001816 
	C300.067902,59.451057 301.284149,61.768940 302.527344,62.343315 
	C303.691864,62.881351 306.246216,62.147598 307.204681,61.085388 
	C310.760498,57.144634 314.730011,53.704594 310.843872,46.978634 
	C307.160522,40.603615 312.375793,32.269619 319.893707,32.250603 
	C329.793152,32.225563 339.750946,33.207458 349.564880,34.596001 
	C352.595551,35.024796 355.837952,37.704205 357.907928,40.233360 
	C360.532440,43.439991 362.542328,44.087330 366.193359,41.992641 
	C378.710480,34.811268 392.105927,32.707195 406.098541,36.595093 
	C424.135162,41.606636 433.598541,54.547962 438.517822,71.883896 
	C445.749176,97.367714 434.774780,114.165733 417.409485,126.689583 
	C405.509888,135.271591 391.264648,134.025589 377.140656,131.673721 
	C343.180939,126.018875 336.103302,87.479057 346.165253,65.454941 
	C346.981506,63.668282 346.625702,61.346157 346.814514,59.272850 
	C344.371155,59.855656 341.049286,59.625946 339.632263,61.158009 
	C332.431427,68.943497 325.628052,77.107338 318.931366,85.338676 
	C317.704803,86.846298 317.235107,89.250191 317.082306,91.290268 
	C316.796875,95.101372 317.211334,98.963821 316.944855,102.777672 
	C316.633270,107.237305 317.555878,110.257248 322.430878,111.912537 
	C327.046539,113.479767 330.395935,119.875694 329.823364,123.944252 
	C329.010895,129.717056 325.736267,133.269775 319.098694,133.925079 
	C311.186646,134.706207 303.180725,135.061523 295.238525,134.825470 
	C290.030121,134.670685 285.819153,132.073837 283.937256,126.517197 
	C282.253815,121.546432 283.508148,116.917000 287.334808,114.469254 
	C295.695984,109.121017 292.838806,101.484741 292.486023,94.379715 
	C292.371307,92.069069 291.031403,89.617714 289.688873,87.606537 
	C285.262939,80.976234 280.673401,74.448196 275.927948,68.042953 
	C274.751007,66.454376 272.748230,65.477661 271.125031,64.219704 
	C270.116089,65.996796 268.421295,67.698158 268.215302,69.563904 
	C267.252075,78.287773 266.814819,87.068161 265.967346,95.806801 
	C265.121033,104.533585 264.306854,113.282684 262.907471,121.929565 
	C262.042694,127.273033 258.976898,131.606415 253.272247,132.874603 
	C247.118927,134.242538 242.966599,130.782700 240.065765,125.980164 
	C234.653610,117.019951 229.634705,107.823044 224.336960,98.792198 
	C223.319336,97.057480 221.772537,95.633179 220.287857,93.846634 
	C216.067444,101.785614 217.021973,105.965454 223.651352,109.806831 
	C227.845901,112.237366 230.008621,116.100708 229.716614,120.521805 
	C229.399246,125.327003 226.977005,129.759964 221.702911,130.865646 
	C212.338959,132.828751 202.885147,135.466019 193.268539,132.914200 
	C190.224106,132.106354 187.648422,129.648743 184.729675,128.206284 
	C183.008072,127.355461 180.968521,126.371010 179.184784,126.552902 
	C169.825211,127.507294 160.530975,129.294159 151.157501,129.867630 
	C141.441055,130.462082 131.658966,130.076843 121.907753,129.951553 
	C119.056488,129.914917 106.580589,132.321747 103.922371,133.321411 
	C93.587715,137.207932 82.914062,137.522659 72.742386,133.531662 
	C64.416931,130.265045 64.121567,119.202042 71.250893,113.300941 
	C73.341446,111.570534 75.425819,108.784264 75.803215,106.229355 
	C76.929222,98.606575 76.087799,98.003983 68.369316,98.000404 
	C64.536850,97.998627 60.697433,98.145081 56.873894,97.960587 
	C53.139523,97.780403 52.062550,99.441040 51.897984,103.013039 
	C51.680111,107.742081 52.707417,111.193497 57.074829,113.884735 
	C60.842270,116.206276 63.419415,120.115822 62.443878,124.851974 
	C61.328091,130.269058 58.149776,134.427338 52.241203,135.061295 
	C43.927029,135.953369 35.562031,136.902664 27.224541,136.853241 
	C21.976427,136.822128 18.596533,133.133774 17.386951,127.752991 
	C16.275297,122.807838 18.372461,118.988190 22.131336,116.576004 
	C27.252819,113.289368 28.131399,108.789459 28.053965,103.333481 
	C27.881363,91.172020 27.815865,79.002258 28.090652,66.844559 
	C28.200668,61.977001 26.745670,58.677792 22.476543,56.167782 
	C17.945303,53.503662 15.820630,48.093807 17.205511,43.242958 
	C18.257898,39.556740 20.205664,36.409813 25.123680,37.543594 
	C24.213509,38.788891 23.159611,39.765133 22.015667,41.146652 
	C20.107771,48.213062 20.897747,49.917473 26.506416,54.125694 
	C28.342607,55.503395 30.285385,57.632519 30.762293,59.738857 
	C31.700329,63.881870 31.991222,68.253799 31.939123,72.523575 
	C31.763395,86.925644 31.319969,101.324440 30.624157,115.895721 
	C26.815441,116.810204 22.623381,116.632217 22.542839,122.069839 
	C21.884583,124.168083 20.561293,127.144157 21.413626,128.032257 
	C23.768120,130.485596 26.963978,133.554306 29.949253,133.689774 
	C36.622467,133.992676 43.395885,132.844421 50.072102,131.891998 
	C52.250496,131.581223 54.497864,130.365982 56.285370,129.002762 
	C59.627094,126.454231 59.751003,122.695320 56.945110,119.621796 
	C56.211258,113.741791 51.701900,114.421448 48.013054,113.312836 
	C48.009247,108.530724 47.930130,104.199303 48.028847,99.871925 
	C48.129406,95.463539 50.517685,93.094994 54.916798,93.028374 
	C60.910366,92.937599 66.908890,92.895378 72.900436,93.037376 
	C77.690155,93.150894 79.962563,95.362206 79.930435,100.187393 
	C79.900749,104.644829 79.312187,109.098541 78.581375,113.646484 
	C74.396072,113.456863 72.654793,115.631508 71.549210,119.102440 
	C68.791344,124.502342 70.198730,129.689850 75.621910,130.446930 
	C83.512100,131.548431 91.651596,130.961304 99.682083,130.866119 
	C101.040520,130.850021 102.510445,129.865829 103.713562,129.021973 
	C107.675827,126.242889 108.307693,121.803658 105.208496,118.623672 
	C103.775963,113.584221 100.225502,112.794914 96.026779,112.659622 
	C96.341240,96.806053 96.808807,81.430923 96.911697,66.053345 
	C96.944229,61.189968 98.151482,57.613480 102.291008,54.600151 
	C104.873116,52.720531 107.738075,49.607807 103.812538,45.587540 
	C103.453918,40.898106 100.366402,39.736729 96.851746,39.679337 
	C89.715324,39.562813 82.567276,39.608257 75.436966,39.901722 
	C71.921944,40.046394 69.589752,41.879112 69.846611,46.020927 
	C69.268211,47.823425 68.248573,50.210403 69.006691,51.126984 
	C70.921143,53.441605 73.718918,55.001568 75.999596,57.045940 
	C77.475830,58.369217 79.701126,59.957874 79.784637,61.523933 
	C80.019585,65.929604 79.320091,70.385101 78.529129,74.902962 
	C68.387962,75.193726 58.706703,75.402489 49.001682,75.214241 
	C48.651024,70.379120 48.364113,65.937592 47.985302,61.503910 
	C47.647045,57.544857 49.216640,55.631748 53.261414,54.567261 
	C56.721401,53.656666 60.018482,51.533680 62.922150,49.332825 
	C64.572601,48.081844 64.855476,45.715397 61.870537,44.539833 
	C62.200809,39.296436 59.332325,37.774376 55.085464,37.748333 
	C45.993420,37.692574 36.901314,37.645935 27.809235,37.595558 
	C28.825071,36.737289 29.851446,35.124336 30.855103,35.138351 
	C40.126530,35.267826 49.394146,35.675323 58.662376,36.015415 
	C59.154034,36.033459 59.827415,35.993858 60.103008,36.281338 
	C65.438881,41.847378 71.267509,38.216000 77.149490,37.633465 
	C84.352859,36.920063 91.683411,37.481693 98.958771,37.524944 
	C99.434013,37.527771 99.983124,37.704704 100.370560,37.979889 
	C105.767387,41.813171 110.974716,44.448875 115.379158,36.592964 
	C115.706421,36.009247 117.540535,36.270348 118.859238,36.473743 
	C118.075478,38.859749 117.106606,40.910713 115.773872,43.046135 
	C112.071854,47.247250 115.248154,49.979748 117.851540,52.187775 
	C122.140404,55.825306 123.170502,60.544987 122.897736,65.541008 
	C122.123764,79.717651 120.991814,93.874741 119.679993,108.199883 
	C117.695076,110.234978 116.030983,112.109726 114.079544,114.113251 
	C111.511353,118.251915 112.428841,122.772484 116.897621,124.224373 
	C121.970024,125.872383 127.492859,126.731155 132.837433,126.815071 
	C142.761459,126.970909 152.743256,126.797043 162.618210,125.874237 
	C174.737518,124.741714 180.593872,125.214653 181.673325,111.787956 
	C182.167786,105.637726 182.612549,98.883713 176.982147,93.660881 
	C175.872177,91.297935 174.881866,89.267929 174.087219,86.977173 
	C180.064194,86.715805 181.540924,91.276924 182.790100,95.421989 
	C184.018570,99.498390 184.584747,103.836006 184.925201,108.100235 
	C185.236130,111.994804 187.680954,112.656128 189.726349,110.695045 
	C191.842026,108.666573 193.532410,105.342667 193.824783,102.426590 
	C194.649414,94.202477 194.743713,85.899055 194.964066,77.622581 
	C195.110016,72.141159 195.134415,66.645943 194.912231,61.169113 
	C194.772919,57.734665 189.131943,53.562881 185.317596,54.186989 
	C181.126282,54.872765 183.344315,58.445431 183.076523,60.707180 
	C182.403534,66.391098 181.803452,72.117920 176.651733,75.671967 
	C174.415833,77.214470 171.467117,77.683975 168.995911,78.942703 
	C167.839981,79.531479 166.558685,80.710213 166.261536,81.861015 
	C166.056488,82.655128 167.396240,83.893883 168.130753,84.869865 
	C168.683670,85.604561 169.371674,86.237587 169.744705,87.087036 
	C168.667984,87.855461 167.846100,88.452721 166.798309,88.765625 
	C162.826141,86.050026 163.657532,82.147453 163.742264,78.701233 
	C163.807205,76.060196 165.400040,74.790070 168.501923,75.226051 
	C173.814911,75.972816 178.217636,73.613274 178.802872,68.400414 
	C179.675964,60.623329 179.240189,52.672573 178.916840,44.813988 
	C178.862442,43.492092 176.566574,42.262421 175.165436,40.645813 
	C173.335968,36.677223 170.604980,35.748993 166.591766,35.842701 
	C151.067993,36.205177 135.533798,36.120567 120.003487,36.202492 
	C123.218468,35.166035 126.429398,33.259541 129.649124,33.244572 
	C143.186310,33.181625 156.731995,33.545322 170.259125,34.117630 
	C172.481628,34.211662 174.761353,35.928627 176.774033,37.259418 
	C179.328278,38.948303 181.231308,39.241261 183.794174,36.915657 
	C185.897736,35.006840 188.781158,33.199329 191.504807,32.866005 
	C202.081970,31.571558 213.101791,30.459480 220.571548,40.344952 
	C224.123199,45.045181 226.231171,50.849407 228.900467,56.199738 
	C231.796448,62.004356 234.483994,67.915215 237.481674,73.665451 
	C238.373291,75.375824 240.003738,76.701050 241.531342,78.476654 
	C245.550323,69.977203 244.968323,65.011383 239.772202,59.264473 
	C233.210571,52.007366 236.083817,42.309158 245.615555,40.110676 
	C250.528961,38.977402 255.573349,38.412010 260.631104,38.147881 
	C260.032196,39.572800 259.360748,40.439857 258.261017,41.248817 
	C254.361923,41.423485 250.893982,41.723656 247.419556,41.871273 
	C243.428482,42.040836 241.772568,44.160980 241.626862,48.085018 
	C238.011566,52.399483 241.367310,55.059456 243.946213,57.267509 
	C247.537323,60.342209 248.523315,63.905598 247.938049,68.305161 
	C247.242462,73.534119 246.401154,78.762749 246.106247,84.018631 
	C245.935547,87.061012 244.941559,88.710381 241.643433,88.844711 
	C237.184143,81.259476 233.001770,73.861893 228.859406,66.067543 
	C228.221970,64.797020 227.544571,63.923260 226.643280,62.791046 
	C222.861328,55.030277 219.436264,47.459690 215.646179,40.076488 
	C214.763824,38.357651 212.753891,36.270588 211.066940,36.079193 
	C204.492935,35.333344 197.834564,35.020622 191.220978,35.164265 
	C189.670700,35.197933 188.172943,37.648849 186.304092,39.012398 
	C182.141479,42.451969 181.999222,46.049011 186.400818,49.738441 
	C190.728165,53.365643 196.552628,55.260300 198.999695,61.333435 
	C199.000198,62.111130 199.000397,62.555527 198.756592,63.223274 
	C198.675247,64.631088 198.837921,65.815559 199.000641,67.416672 
	C199.000229,69.222176 198.999802,70.611023 198.613129,72.109970 
	C197.818848,73.380798 197.120010,74.523735 197.047729,75.705002 
	C196.306915,87.812035 195.667755,99.925301 194.632614,112.114059 
	C190.738342,112.525414 188.612183,114.220757 188.321106,118.089645 
	C185.398224,122.308136 187.316483,127.477470 192.459930,128.841476 
	C202.261658,131.440842 211.925461,129.324860 221.275253,126.543930 
	C226.058731,125.121170 227.146835,119.267403 224.027710,115.634605 
	C222.958710,111.029762 219.902115,109.894867 215.992310,109.613190 
	C216.045547,102.479637 216.042267,95.764404 216.267639,89.056877 
	C216.299011,88.122971 217.483124,86.462212 218.086426,86.483368 
	C219.123566,86.519737 220.348877,87.423820 221.097504,88.302505 
	C223.496368,91.118141 225.713028,94.089027 228.000671,97.249405 
	C228.001358,97.498817 228.001831,97.997635 228.045380,98.352852 
	C232.437286,106.882515 236.736801,115.083679 241.180344,123.206055 
	C241.952927,124.618286 243.254074,125.781494 244.447220,126.916634 
	C249.875351,132.080902 256.899048,130.650436 259.544037,123.586411 
	C260.739227,120.394379 261.376709,116.872498 261.586334,113.458458 
	C261.983582,106.988228 261.889801,100.487854 262.000000,93.600098 
	C262.000824,92.133781 262.001617,91.067368 262.370575,89.903130 
	C262.825897,87.203537 262.913116,84.601768 263.000488,81.666840 
	C263.001221,80.889465 263.001831,80.445259 263.384888,79.893036 
	C264.178223,78.120262 264.718140,76.474945 264.972412,74.786591 
	C265.462799,71.530258 265.357544,68.110008 266.347412,65.030350 
	C266.961243,63.120567 268.938629,60.714111 270.667389,60.373089 
	C272.246033,60.061687 274.764038,61.849205 276.069183,63.388866 
	C278.513855,66.272743 280.254211,69.741653 282.539551,72.777489 
	C283.753632,74.390289 285.496063,75.605385 287.000732,77.249359 
	C287.001434,77.498718 287.002167,77.997437 287.046753,78.345474 
	C290.061798,84.462547 293.032288,90.231567 296.064178,96.411674 
	C296.416656,101.214897 296.707703,105.607025 296.659180,110.068298 
	C295.877686,111.112946 295.435791,112.088463 294.637329,113.124443 
	C291.321991,114.031067 288.501495,115.002602 288.645569,119.090950 
	C285.106384,123.543167 287.553619,126.589783 290.838623,129.174820 
	C295.857880,133.124557 319.092834,132.086746 323.708710,127.685555 
	C326.444214,125.077271 327.586121,122.063126 324.056152,118.641464 
	C323.063934,113.059563 319.049255,112.869316 314.971649,112.362465 
	C314.607117,107.193558 314.724731,102.326996 313.793274,97.670296 
	C312.523743,91.324013 313.751190,85.960609 317.921906,81.116295 
	C322.774139,75.480400 327.488617,69.724342 332.408478,64.148911 
	C334.899445,61.326027 337.360138,58.248352 340.451416,56.231361 
	C346.655365,52.183422 352.787476,55.000065 353.113342,61.805405 
	C352.772522,62.346668 352.495300,62.676636 351.857178,63.058201 
	C350.512177,64.378975 349.212311,65.510979 348.592194,66.938301 
	C341.513458,83.231583 344.522858,104.911819 356.595612,117.875656 
	C365.556610,127.498032 378.170868,129.124832 390.488770,129.899200 
	C410.782898,131.174988 424.397156,120.894234 433.713318,103.649712 
	C441.019958,90.124939 437.230225,76.945320 432.787720,63.779587 
	C432.413574,62.670757 430.737000,62.001408 429.444336,60.986687 
	C429.105774,60.340973 428.988342,59.836460 428.897827,58.966599 
	C428.322479,57.733166 427.720215,56.865082 426.924835,55.714973 
	C421.485474,47.698086 414.835327,41.444950 405.581604,39.402557 
	C399.576935,38.077271 393.169678,37.829021 387.000397,38.162830 
	C376.470612,38.732586 367.495361,43.184578 360.275421,50.790169 
	C358.391998,47.923374 356.669220,45.456089 354.886414,42.637215 
	C352.658020,40.243713 350.701385,36.772522 348.283539,36.414276 
	C339.183960,35.066006 329.942169,34.579975 320.736603,34.094124 
	C317.179871,33.906410 314.629425,35.603237 314.943329,40.159042 
	C313.088867,45.741898 317.644287,47.858864 320.000427,51.385048 
	C315.658508,56.829433 311.380280,61.932468 306.681458,67.023964 
	C303.852051,66.676170 301.443176,66.339912 298.864807,65.723206 
	C297.786682,63.990784 296.878113,62.538815 295.979492,60.660164 
	C296.874146,57.352360 297.839050,54.492798 298.620972,51.584030 
	C299.397522,48.695171 303.314209,45.537617 298.006012,42.648079 
	C296.859375,37.869724 293.396393,37.066559 289.649017,37.102146 
	C286.097931,37.135872 282.550659,37.570705 279.001709,37.829136 
M117.062943,83.851624 
	C117.706825,76.930847 119.037827,69.975266 118.689812,63.104733 
	C118.528267,59.915424 115.297615,56.732845 113.012131,53.908211 
	C112.465515,53.232655 109.716896,53.435150 108.695023,54.194553 
	C102.098145,59.096958 99.794922,65.952591 99.951340,74.012733 
	C100.151703,84.337723 100.316772,94.683571 99.860611,104.992264 
	C99.646545,109.830154 102.395096,111.191879 105.756592,112.961227 
	C109.358803,114.857277 110.381355,111.663361 112.301025,110.187080 
	C116.053848,107.301071 117.381874,103.505714 117.068260,98.783104 
	C116.759872,94.139252 117.009239,89.458374 117.062943,83.851624 
z"/>
<path fill="#083BA8" opacity="1.000000" stroke="none" 
	d="
M48.015785,113.765297 
	C51.701900,114.421448 56.211258,113.741791 56.733711,119.836914 
	C56.033508,121.272606 55.508999,122.117683 54.633816,123.059891 
	C50.899666,123.580002 47.525692,124.115913 44.130661,124.401550 
	C37.793987,124.934685 31.445080,125.322395 24.975815,125.481598 
	C24.190430,124.126694 23.530489,123.060814 22.870550,121.994934 
	C22.623381,116.632217 26.815441,116.810204 30.979836,115.886139 
	C36.739769,115.236511 34.188538,111.357140 34.249992,109.172966 
	C34.616989,96.128822 34.609539,83.074158 34.790970,69.762512 
	C34.811920,69.328362 34.769623,69.154716 34.809731,68.523346 
	C34.787415,63.707394 34.682686,59.349155 34.673462,54.625099 
	C34.707115,53.512127 34.645267,52.764977 34.642349,51.697563 
	C34.603798,50.958046 34.506321,50.538795 34.503403,49.770966 
	C33.359684,48.838184 32.121399,48.253986 30.580145,47.547848 
	C29.848993,47.460457 29.420813,47.495007 28.747765,47.432636 
	C28.330040,47.366440 28.157181,47.397163 27.627438,47.280994 
	C23.231024,46.875896 22.976961,43.559315 22.105713,40.741379 
	C23.159611,39.765133 24.213509,38.788891 25.549088,37.650646 
	C26.324911,37.547516 26.819050,37.606392 27.561213,37.630409 
	C36.901314,37.645935 45.993420,37.692574 55.085464,37.748333 
	C59.332325,37.774376 62.200809,39.296436 61.555367,44.647285 
	C59.776615,45.842396 58.397560,46.541248 56.559464,47.159645 
	C52.201897,47.079185 48.303375,47.079185 43.744835,47.079185 
	C44.202408,48.728264 44.523926,49.887012 44.783798,51.426796 
	C44.830692,58.754383 44.772274,65.711807 45.223248,72.636063 
	C45.292919,73.705795 47.699554,74.623329 49.025440,75.611244 
	C58.706703,75.402489 68.387962,75.193726 78.947075,74.983749 
	C80.869041,73.904137 82.739799,72.880768 82.815872,71.737938 
	C83.167320,66.458099 82.778343,61.128910 83.131165,55.849247 
	C83.387863,52.007862 82.187775,49.733089 78.253906,50.014050 
	C74.580544,50.276402 72.043098,48.975372 70.214798,45.935921 
	C69.589752,41.879112 71.921944,40.046394 75.436966,39.901722 
	C82.567276,39.608257 89.715324,39.562813 96.851746,39.679337 
	C100.366402,39.736729 103.453918,40.898106 103.569092,45.846069 
	C102.259750,47.315022 101.190758,48.819511 100.025894,48.897820 
	C94.587601,49.263390 93.279411,52.502548 93.410667,57.208279 
	C93.498329,60.351170 93.254745,63.502041 93.211304,66.650055 
	C93.010323,81.214043 92.853088,95.778702 92.614212,110.342033 
	C92.572052,112.912506 93.198143,114.282837 96.038826,113.137100 
	C100.225502,112.794914 103.775963,113.584221 105.070328,118.901337 
	C104.262764,120.514336 103.528099,121.482300 102.392014,122.567947 
	C92.707489,123.007698 83.424408,123.329765 74.055077,123.340637 
	C73.282364,121.685112 72.595886,120.340775 71.909416,118.996437 
	C72.654793,115.631508 74.396072,113.456863 78.966347,113.754532 
	C80.742317,112.250320 82.533310,110.768990 82.609413,109.204254 
	C82.919548,102.828094 82.704651,96.426407 82.815063,89.609970 
	C83.675713,85.874039 82.452698,84.977234 79.047195,85.115990 
	C69.680321,85.497612 60.285442,85.731758 50.921803,85.419563 
	C46.401722,85.268867 44.818012,86.825523 45.049019,91.480164 
	C44.880096,98.200859 44.827187,104.459328 44.656631,110.714584 
	C44.589386,113.181046 45.188663,114.624458 48.015785,113.765297 
z"/>
<path fill="#CF1529" opacity="1.000000" stroke="none" 
	d="
M119.884995,36.300240 
	C135.533798,36.120567 151.067993,36.205177 166.591766,35.842701 
	C170.604980,35.748993 173.335968,36.677223 175.091248,41.069572 
	C175.197037,43.553185 175.236069,45.268711 175.237381,47.399307 
	C175.291977,52.769081 175.872696,57.788513 175.229004,62.645679 
	C174.981949,64.509850 171.942200,66.003929 170.174988,67.666641 
	C168.459030,65.757713 165.874435,64.098129 165.237534,61.879440 
	C164.356293,58.809601 164.941040,55.318920 164.950531,51.578308 
	C165.877197,47.014954 163.957611,46.028641 160.105667,46.149700 
	C153.630615,46.353199 147.124222,46.295540 140.661118,45.879684 
	C136.470657,45.610058 135.131271,47.087288 135.942627,51.469498 
	C135.744980,58.618679 135.805923,65.314613 135.406128,71.982933 
	C135.205978,75.321213 136.947891,74.958656 139.461838,74.792099 
	C140.725189,74.955963 141.547501,75.030785 142.371445,75.060791 
	C149.005844,75.302399 149.661514,74.560997 148.772980,67.797554 
	C148.709274,67.312660 148.412628,66.848419 148.396545,66.368797 
	C148.275391,62.754047 150.036636,61.262154 153.610291,61.737213 
	C157.922501,62.310444 158.082291,65.959213 159.007202,69.447632 
	C158.986694,73.270020 159.050110,76.638878 159.091736,80.407776 
	C159.215622,81.863777 159.361282,82.919754 159.386398,84.403458 
	C159.162704,86.955185 159.585892,89.301208 158.809647,91.141243 
	C158.020264,93.012383 156.031723,95.675171 154.599457,95.656052 
	C152.720078,95.630981 150.754883,93.447662 149.073654,91.920570 
	C148.501114,91.400520 148.676300,90.057281 148.622940,88.681641 
	C147.946365,87.220772 147.304962,85.462799 146.336899,85.259377 
	C144.154846,84.800835 141.800049,85.253746 139.535660,85.077415 
	C135.780701,84.785011 133.997375,86.197327 134.580536,90.544556 
	C134.641556,95.970062 134.888885,100.946907 134.898682,105.924202 
	C134.903839,108.540657 136.091110,108.632622 138.467529,107.911430 
	C147.615616,107.619347 156.304962,107.282059 165.402771,107.044205 
	C166.457291,106.225647 167.664520,105.298599 167.649887,104.391258 
	C167.593918,100.920929 167.144974,97.456924 166.847321,93.574654 
	C166.909317,91.789162 166.966782,90.419571 167.024231,89.049988 
	C167.846100,88.452721 168.667984,87.855461 170.135696,87.117859 
	C171.818192,87.064316 172.854874,87.151115 173.891541,87.237923 
	C174.881866,89.267929 175.872177,91.297935 176.959717,94.092041 
	C177.312317,96.825813 177.825119,98.802361 177.772812,100.763824 
	C177.637985,105.819138 177.253128,110.867775 176.564804,116.030014 
	C174.070084,116.502327 171.986084,117.114784 169.885910,117.176491 
	C164.290543,117.340881 158.686798,117.196053 153.088928,117.304665 
	C141.042313,117.538391 128.997299,117.854050 116.755142,117.848679 
	C115.828072,116.368942 115.097481,115.176720 114.366898,113.984482 
	C116.030983,112.109726 117.695076,110.234978 120.110184,108.290764 
	C124.392120,108.682487 123.861740,106.188629 123.938232,104.059128 
	C124.335716,92.993927 124.806511,81.931198 125.164223,70.864777 
	C125.377327,64.272163 125.429268,57.674343 125.639267,50.716389 
	C126.491348,45.171959 122.530014,47.119476 119.910255,46.456188 
	C118.485130,45.152306 117.311432,44.056995 116.137733,42.961685 
	C117.106606,40.910713 118.075478,38.859749 119.267601,36.535549 
	C119.490852,36.262318 119.766495,36.397987 119.884995,36.300240 
z"/>
<path fill="#FFFFFD" opacity="1.000000" stroke="none" 
	d="
M278.668823,37.867477 
	C282.550659,37.570705 286.097931,37.135872 289.649017,37.102146 
	C293.396393,37.066559 296.859375,37.869724 297.873169,42.923454 
	C297.520294,44.312130 297.228424,45.062859 296.567810,45.908096 
	C293.274384,46.900490 290.349701,47.798370 286.828217,48.879471 
	C288.357452,50.776527 289.663910,52.397217 291.103577,54.331329 
	C292.814362,56.792114 294.391968,58.939476 295.969543,61.086838 
	C296.878113,62.538815 297.786682,63.990784 298.994995,66.024986 
	C300.610687,68.312027 301.926636,70.016846 303.791412,72.432709 
	C305.184845,70.161095 306.143463,68.598312 307.102051,67.035522 
	C311.380280,61.932468 315.658508,56.829433 320.338806,51.320309 
	C322.620148,49.124508 324.499390,47.334793 327.240448,44.724331 
	C323.771240,43.917057 321.764099,43.720154 319.997314,42.962734 
	C318.238159,42.208595 316.720276,40.891788 315.096588,39.821693 
	C314.629425,35.603237 317.179871,33.906410 320.736603,34.094124 
	C329.942169,34.579975 339.183960,35.066006 348.283539,36.414276 
	C350.701385,36.772522 352.658020,40.243713 354.754395,42.905163 
	C354.105377,44.337036 353.528351,45.149376 352.565735,46.041946 
	C349.934113,46.187847 347.626862,46.611431 345.455841,46.239487 
	C341.736115,45.602211 338.785675,46.093922 336.218750,49.223167 
	C328.060730,59.168301 319.613037,68.877533 311.552551,78.899345 
	C310.083862,80.725441 309.910919,83.593742 309.110107,86.413925 
	C309.397095,94.119751 309.844788,101.390228 309.975372,108.666389 
	C310.041077,112.327652 311.681061,113.395752 314.986206,112.758347 
	C319.049255,112.869316 323.063934,113.059563 323.989319,118.957367 
	C323.314911,120.732140 322.670410,121.816299 321.554749,122.918678 
	C314.294312,122.992439 307.505127,123.070930 300.715729,123.093506 
	C297.494354,123.104218 294.272614,123.008202 290.908112,122.675797 
	C290.181396,121.259125 289.597626,120.127190 289.013824,118.995255 
	C288.501495,115.002602 291.321991,114.031067 294.971436,113.126717 
	C296.106934,113.052711 296.551849,113.036888 297.390778,112.974991 
	C298.501862,111.949928 299.851593,110.960564 299.835754,109.993561 
	C299.710175,102.328674 299.324768,94.668045 299.027710,86.619240 
	C298.135406,84.156349 297.528412,81.882011 296.283875,80.037926 
	C290.249573,71.096626 284.094940,62.234852 277.860504,53.431610 
	C276.464722,51.460720 274.576874,49.838326 272.497742,48.034279 
	C269.618805,48.244034 267.155762,48.683704 264.697052,48.660625 
	C260.182404,48.618244 258.123688,45.967609 258.689301,41.306919 
	C259.360748,40.439857 260.032196,39.572800 260.876892,38.431244 
	C261.481354,38.132050 261.912628,38.107357 263.133667,38.084370 
	C268.281342,38.013435 272.639252,37.940792 276.997162,37.868145 
	C277.443420,37.880699 277.889679,37.893257 278.668823,37.867477 
z"/>
<path fill="#FDF2B7" opacity="1.000000" stroke="none" 
	d="
M276.977173,37.492447 
	C272.639252,37.940792 268.281342,38.013435 263.457825,38.071926 
	C265.584503,35.353165 274.837158,34.729683 276.977173,37.492447 
z"/>
<path fill="#FCD11A" opacity="1.000000" stroke="none" 
	d="
M258.261017,41.248825 
	C258.123688,45.967609 260.182404,48.618244 264.697052,48.660625 
	C267.155762,48.683704 269.618805,48.244034 272.395203,48.387569 
	C269.699402,49.776745 266.688293,50.791428 263.011658,52.030365 
	C262.854034,53.579899 262.628998,55.792305 262.316650,58.424786 
	C261.814514,61.126492 261.211700,63.392120 261.015900,65.692398 
	C259.903961,78.754730 259.036377,91.839607 257.770844,104.886284 
	C257.246857,110.287880 255.941559,115.613686 254.668732,121.101555 
	C251.095840,124.027252 248.536484,122.919144 246.689545,119.623024 
	C244.757553,116.175117 243.237656,112.496788 241.315414,109.042847 
	C232.475983,93.159843 223.564438,77.316948 214.651917,61.474766 
	C214.240845,60.744061 213.571106,60.158875 212.400787,58.767673 
	C212.400787,64.223633 212.400787,68.634018 212.296692,73.498611 
	C211.766327,84.684593 211.268311,95.414429 210.981461,106.149910 
	C210.931183,108.031631 210.404617,110.892700 214.277649,110.639992 
	C215.034592,110.491463 215.521469,110.262711 216.008347,110.033966 
	C219.902115,109.894867 222.958710,111.029762 223.873444,115.910416 
	C223.163208,117.655800 222.554733,118.759995 221.515503,119.922440 
	C219.116898,120.225647 217.152405,120.647789 215.180664,120.684837 
	C206.791977,120.842461 198.401154,120.886032 189.857758,120.680740 
	C189.344452,119.591698 188.984497,118.793159 188.624542,117.994621 
	C188.612183,114.220757 190.738342,112.525414 194.956726,112.166733 
	C196.085663,112.134964 196.522903,112.127762 197.205353,112.307983 
	C203.039108,112.078606 199.963593,107.980591 200.060104,105.657120 
	C200.802567,87.782982 201.264816,69.897202 201.857651,51.574112 
	C202.877869,46.066151 200.725266,44.352028 195.752625,44.888153 
	C193.558472,45.124710 191.252762,44.326679 188.883514,43.713207 
	C188.161942,42.627846 187.554535,41.827618 186.929337,40.682953 
	C186.824707,39.888233 186.737869,39.437946 186.651016,38.987663 
	C188.172943,37.648849 189.670700,35.197933 191.220978,35.164265 
	C197.834564,35.020622 204.492935,35.333344 211.066940,36.079193 
	C212.753891,36.270588 214.763824,38.357651 215.646179,40.076488 
	C219.436264,47.459690 222.861328,55.030277 226.689438,63.120743 
	C227.579468,64.627373 228.199432,65.545845 228.819397,66.464310 
	C233.001770,73.861893 237.184143,81.259476 241.708344,89.192429 
	C243.849747,92.640526 245.649353,95.553230 247.448959,98.465942 
	C248.773712,94.601120 249.132507,90.907074 249.427368,87.207932 
	C250.228806,77.154007 251.003189,67.097923 251.855026,56.609737 
	C251.921783,54.632641 251.921783,53.088493 251.921783,51.582985 
	C248.929062,51.226341 246.543549,50.942059 244.003799,50.414528 
	C243.225906,49.446365 242.602249,48.721455 241.978577,47.996544 
	C241.772568,44.160980 243.428482,42.040836 247.419556,41.871273 
	C250.893982,41.723656 254.361923,41.423485 258.261017,41.248825 
z"/>
<path fill="#083BA8" opacity="1.000000" stroke="none" 
	d="
M352.218079,63.006603 
	C352.495300,62.676636 352.772522,62.346668 353.399597,61.580238 
	C355.978333,57.825745 358.207184,54.507710 360.436035,51.189674 
	C367.495361,43.184578 376.470612,38.732586 387.000397,38.162830 
	C393.169678,37.829021 399.576935,38.077271 405.581604,39.402557 
	C414.835327,41.444950 421.485474,47.698086 426.880859,56.052803 
	C427.643616,57.559082 428.257263,58.445515 428.870880,59.331947 
	C428.988342,59.836460 429.105774,60.340973 429.529205,61.368774 
	C431.172577,71.241760 432.509949,80.591446 433.592102,90.186203 
	C431.218964,94.607300 429.101074,98.783325 426.782288,103.059341 
	C426.316376,103.374527 426.232788,103.645653 426.200836,104.209663 
	C426.045227,104.624878 426.019409,104.803146 425.702393,105.148399 
	C421.998749,108.872871 419.112885,113.254692 415.075439,115.833549 
	C402.882782,123.621353 389.271454,122.652901 376.051605,119.578156 
	C368.325806,117.781242 360.297119,115.096489 355.878906,106.822800 
	C353.239349,98.963364 350.669464,91.459953 348.121399,83.511208 
	C349.501526,76.379448 350.859802,69.693024 352.218079,63.006603 
M363.692017,65.280617 
	C363.457123,65.451454 363.357635,65.680984 363.060059,66.495453 
	C362.999817,66.905182 362.939545,67.314911 362.313660,68.071159 
	C361.907990,69.051331 361.502350,70.031502 360.733398,71.708954 
	C357.152832,81.681816 359.120483,91.008606 364.093109,100.692963 
	C366.169708,106.570732 371.456909,108.097626 376.573944,109.347984 
	C397.258087,114.402237 409.995087,112.540779 420.919220,93.704849 
	C426.090820,84.061630 423.610657,74.509987 420.591858,64.551323 
	C420.481018,64.277954 420.286957,64.090836 420.000000,64.000000 
	C420.000000,64.000000 420.009399,63.989639 419.937073,63.294289 
	C416.297913,56.774830 411.696808,51.917244 404.261383,48.910755 
	C389.672058,43.011616 370.370728,50.205070 364.005310,65.047348 
	C364.005310,65.047348 364.043396,65.107422 363.692017,65.280617 
z"/>
<path fill="#FFF4B8" opacity="1.000000" stroke="none" 
	d="
M117.038406,84.322678 
	C117.009239,89.458374 116.759872,94.139252 117.068260,98.783104 
	C117.381874,103.505714 116.053848,107.301071 112.301025,110.187080 
	C110.381355,111.663361 109.358803,114.857277 105.756592,112.961227 
	C102.395096,111.191879 99.646545,109.830154 99.860611,104.992264 
	C100.316772,94.683571 100.151703,84.337723 99.951340,74.012733 
	C99.794922,65.952591 102.098145,59.096958 108.695023,54.194553 
	C109.716896,53.435150 112.465515,53.232655 113.012131,53.908211 
	C115.297615,56.732845 118.528267,59.915424 118.689812,63.104733 
	C119.037827,69.975266 117.706825,76.930847 117.038406,84.322678 
z"/>
<path fill="#FFF4B8" opacity="1.000000" stroke="none" 
	d="
M174.087219,86.977173 
	C172.854874,87.151115 171.818192,87.064316 170.390533,86.946693 
	C169.371674,86.237587 168.683670,85.604561 168.130753,84.869865 
	C167.396240,83.893883 166.056488,82.655128 166.261536,81.861015 
	C166.558685,80.710213 167.839981,79.531479 168.995911,78.942703 
	C171.467117,77.683975 174.415833,77.214470 176.651733,75.671967 
	C181.803452,72.117920 182.403534,66.391098 183.076523,60.707180 
	C183.344315,58.445431 181.126282,54.872765 185.317596,54.186989 
	C189.131943,53.562881 194.772919,57.734665 194.912231,61.169113 
	C195.134415,66.645943 195.110016,72.141159 194.964066,77.622581 
	C194.743713,85.899055 194.649414,94.202477 193.824783,102.426590 
	C193.532410,105.342667 191.842026,108.666573 189.726349,110.695045 
	C187.680954,112.656128 185.236130,111.994804 184.925201,108.100235 
	C184.584747,103.836006 184.018570,99.498390 182.790100,95.421989 
	C181.540924,91.276924 180.064194,86.715805 174.087219,86.977173 
z"/>
<path fill="#F6EBAF" opacity="1.000000" stroke="none" 
	d="
M214.007599,110.559776 
	C210.404617,110.892700 210.931183,108.031631 210.981461,106.149910 
	C211.268311,95.414429 211.766327,84.684593 212.664764,73.486420 
	C215.071396,73.987625 217.821060,74.442032 218.806396,76.007187 
	C224.644608,85.280884 230.071396,94.813499 235.641144,104.256325 
	C239.425873,110.672867 243.063797,117.185707 247.131729,123.417664 
	C247.989243,124.731339 250.707397,125.912117 252.072174,125.502289 
	C253.380600,125.109383 254.044479,122.570015 254.991608,120.973961 
	C255.941559,115.613686 257.246857,110.287880 257.770844,104.886284 
	C259.036377,91.839607 259.903961,78.754730 261.015900,65.692398 
	C261.211700,63.392120 261.814514,61.126492 262.645508,58.347095 
	C268.883240,52.898769 275.823517,54.155273 279.243652,60.595184 
	C282.025116,65.832535 285.714905,70.621658 289.292664,75.391449 
	C292.318420,79.425339 295.761078,83.146515 299.019226,87.006104 
	C299.324768,94.668045 299.710175,102.328674 299.835754,109.993561 
	C299.851593,110.960564 298.501862,111.949928 297.391968,112.596886 
	C296.998993,111.509621 296.998901,110.754387 296.998779,109.999161 
	C296.707703,105.607025 296.416656,101.214897 296.325317,96.137955 
	C297.409180,89.310341 292.710205,80.696960 287.002167,77.997437 
	C287.002167,77.997437 287.001434,77.498718 286.955292,76.900993 
	C283.743927,71.434509 280.897583,66.308998 277.274445,61.808937 
	C275.549347,59.666332 272.362152,57.536427 269.807892,57.500664 
	C266.041779,57.447922 264.513489,61.164452 264.133026,64.640053 
	C263.574738,69.740524 263.362274,74.878845 263.002441,80.001045 
	C263.001831,80.445259 263.001221,80.889465 262.731232,81.959587 
	C262.308685,85.057312 262.155579,87.529137 262.002441,90.000954 
	C262.001617,91.067368 262.000824,92.133781 261.726257,93.905647 
	C260.633759,102.490067 259.921265,110.382095 258.955231,118.242973 
	C258.401672,122.747421 256.677948,126.841049 251.652435,127.807732 
	C246.941010,128.714005 244.869766,124.775917 242.945267,121.646454 
	C239.211868,115.575447 236.046036,109.158005 232.427292,103.012306 
	C231.316666,101.126106 229.496872,99.657478 228.001831,97.997635 
	C228.001831,97.997635 228.001358,97.498817 227.955933,96.892914 
	C225.182053,91.382034 222.504639,86.447144 219.668198,81.605423 
	C219.258606,80.906288 217.892990,80.114655 217.309280,80.321907 
	C216.417679,80.638489 215.235565,81.756203 215.190292,82.588867 
	C214.683792,91.906403 214.371887,101.234512 214.007599,110.559776 
z"/>
<path fill="#FBEFB4" opacity="1.000000" stroke="none" 
	d="
M159.506958,83.975723 
	C159.361282,82.919754 159.215622,81.863777 159.462280,80.287872 
	C161.248184,76.059868 162.556610,72.357841 159.091141,68.994102 
	C158.082291,65.959213 157.922501,62.310444 153.610291,61.737213 
	C150.036636,61.262154 148.275391,62.754047 148.396545,66.368797 
	C148.412628,66.848419 148.709274,67.312660 148.772980,67.797554 
	C149.661514,74.560997 149.005844,75.302399 142.371445,75.060791 
	C141.547501,75.030785 140.725189,74.955963 139.457489,74.344727 
	C139.008789,68.622368 138.791550,63.443523 139.121277,58.299747 
	C139.230423,56.597336 140.642746,53.632549 141.639923,53.554550 
	C147.481583,53.097607 153.524780,52.525158 159.206863,53.576271 
	C163.709900,54.409275 161.414368,59.484016 162.138947,62.674526 
	C162.432693,63.968079 162.317978,65.605690 163.080444,66.492119 
	C165.000488,68.724365 167.028320,71.510406 169.572906,72.324753 
	C171.187500,72.841461 174.768692,70.761627 175.800934,68.914597 
	C179.588455,62.137394 178.578674,54.850868 176.529480,47.696651 
	C176.434906,47.366505 175.707687,47.217564 175.275116,46.984230 
	C175.236069,45.268711 175.197037,43.553185 175.232178,41.413898 
	C176.566574,42.262421 178.862442,43.492092 178.916840,44.813988 
	C179.240189,52.672573 179.675964,60.623329 178.802872,68.400414 
	C178.217636,73.613274 173.814911,75.972816 168.501923,75.226051 
	C165.400040,74.790070 163.807205,76.060196 163.742264,78.701233 
	C163.657532,82.147453 162.826141,86.050026 166.798309,88.765633 
	C166.966782,90.419571 166.909317,91.789162 166.500214,93.638809 
	C161.777725,96.164604 166.178558,99.488724 164.650238,101.928131 
	C162.531509,101.236534 160.762543,100.616501 159.046112,99.631821 
	C163.061859,92.286842 163.176147,88.006569 159.506958,83.975723 
z"/>
<path fill="#F9EEB4" opacity="1.000000" stroke="none" 
	d="
M433.847321,89.941139 
	C432.509949,80.591446 431.172577,71.241760 429.750366,61.509979 
	C430.737000,62.001408 432.413574,62.670757 432.787720,63.779587 
	C437.230225,76.945320 441.019958,90.124939 433.713318,103.649712 
	C424.397156,120.894234 410.782898,131.174988 390.488770,129.899200 
	C378.170868,129.124832 365.556610,127.498032 356.595612,117.875656 
	C344.522858,104.911819 341.513458,83.231583 348.592194,66.938301 
	C349.212311,65.510979 350.512177,64.378975 351.857178,63.058201 
	C350.859802,69.693024 349.501526,76.379448 347.835144,83.798447 
	C346.276520,94.245445 349.747467,102.773827 354.430725,110.896629 
	C355.402466,112.582016 357.453491,113.645142 359.127075,115.203827 
	C359.448242,115.673134 359.700775,115.866661 360.048462,116.342148 
	C361.467010,118.051682 362.602325,119.931427 364.253357,120.692719 
	C381.333038,128.568039 398.553772,130.694061 415.734863,121.016533 
	C417.133331,120.228828 417.922089,118.358612 419.267639,116.846939 
	C420.355347,115.797333 421.169556,114.892181 422.329926,113.945480 
	C426.516052,107.910294 430.545715,102.024406 434.056213,95.843636 
	C434.884125,94.385910 433.963562,91.935104 433.847321,89.941139 
z"/>
<path fill="#F9EEB4" opacity="1.000000" stroke="none" 
	d="
M360.275421,50.790169 
	C358.207184,54.507710 355.978333,57.825745 353.463196,61.368950 
	C352.787476,55.000065 346.655365,52.183422 340.451416,56.231361 
	C337.360138,58.248352 334.899445,61.326027 332.408478,64.148911 
	C327.488617,69.724342 322.774139,75.480400 317.921906,81.116295 
	C313.751190,85.960609 312.523743,91.324013 313.793274,97.670296 
	C314.724731,102.326996 314.607117,107.193558 314.971649,112.362465 
	C311.681061,113.395752 310.041077,112.327652 309.975372,108.666389 
	C309.844788,101.390228 309.397095,94.119751 309.440735,86.365738 
	C316.250977,78.164497 322.654663,70.405144 329.165558,62.736851 
	C334.365112,56.613026 338.736542,49.269253 348.839020,50.808193 
	C351.121613,51.155899 354.132507,49.746037 352.951355,45.961720 
	C353.528351,45.149376 354.105377,44.337036 354.814392,43.256752 
	C356.669220,45.456089 358.391998,47.923374 360.275421,50.790169 
z"/>
<path fill="#F7EAB1" opacity="1.000000" stroke="none" 
	d="
M114.079552,114.113258 
	C115.097481,115.176720 115.828072,116.368942 116.777161,118.226425 
	C118.100105,123.294823 121.874344,122.945145 124.982986,122.909500 
	C134.896790,122.795815 144.805405,122.285934 154.718292,122.010368 
	C158.860657,121.895218 163.128967,122.592804 167.119095,121.803734 
	C170.835907,121.068710 176.352905,122.239792 176.968155,115.919083 
	C177.253128,110.867775 177.637985,105.819138 177.772812,100.763824 
	C177.825119,98.802361 177.312317,96.825813 177.079346,94.424980 
	C182.612549,98.883713 182.167786,105.637726 181.673325,111.787956 
	C180.593872,125.214653 174.737518,124.741714 162.618210,125.874237 
	C152.743256,126.797043 142.761459,126.970909 132.837433,126.815071 
	C127.492859,126.731155 121.970024,125.872383 116.897621,124.224373 
	C112.428841,122.772484 111.511353,118.251915 114.079552,114.113258 
z"/>
<path fill="#F2E8B2" opacity="1.000000" stroke="none" 
	d="
M22.015667,41.146652 
	C22.976961,43.559315 23.231024,46.875896 27.710590,47.426743 
	C28.431299,47.656105 28.711966,47.592831 28.992634,47.529556 
	C29.420813,47.495007 29.848993,47.460457 30.680042,47.814075 
	C32.191555,48.841343 33.300198,49.480442 34.408844,50.119545 
	C34.506321,50.538795 34.603798,50.958046 34.451965,51.901390 
	C34.327759,53.280628 34.452858,54.135777 34.577957,54.990921 
	C34.682686,59.349155 34.787415,63.707394 34.668770,68.623238 
	C34.539505,69.461571 34.633614,69.742294 34.727722,70.023018 
	C34.609539,83.074158 34.616989,96.128822 34.249992,109.172966 
	C34.188538,111.357140 36.739769,115.236511 31.334591,115.714905 
	C31.319969,101.324440 31.763395,86.925644 31.939123,72.523575 
	C31.991222,68.253799 31.700329,63.881870 30.762293,59.738857 
	C30.285385,57.632519 28.342607,55.503395 26.506416,54.125694 
	C20.897747,49.917473 20.107771,48.213062 22.015667,41.146652 
z"/>
<path fill="#F2E8B2" opacity="1.000000" stroke="none" 
	d="
M82.683235,90.034126 
	C82.704651,96.426407 82.919548,102.828094 82.609413,109.204254 
	C82.533310,110.768990 80.742317,112.250320 79.354752,113.661942 
	C79.312187,109.098541 79.900749,104.644829 79.930435,100.187393 
	C79.962563,95.362206 77.690155,93.150894 72.900436,93.037376 
	C66.908890,92.895378 60.910366,92.937599 54.916798,93.028374 
	C50.517685,93.094994 48.129406,95.463539 48.028847,99.871925 
	C47.930130,104.199303 48.009247,108.530724 48.013054,113.312836 
	C45.188663,114.624458 44.589386,113.181046 44.656631,110.714584 
	C44.827187,104.459328 44.880096,98.200859 45.424576,91.411606 
	C58.067802,87.435043 70.375366,88.728035 82.683235,90.034126 
z"/>
<path fill="#F0E6B1" opacity="1.000000" stroke="none" 
	d="
M96.026779,112.659622 
	C93.198143,114.282837 92.572052,112.912506 92.614212,110.342033 
	C92.853088,95.778702 93.010323,81.214043 93.211304,66.650055 
	C93.254745,63.502041 93.498329,60.351170 93.410667,57.208279 
	C93.279411,52.502548 94.587601,49.263390 100.025894,48.897820 
	C101.190758,48.819511 102.259750,47.315022 103.616348,46.209003 
	C107.738075,49.607807 104.873116,52.720531 102.291008,54.600151 
	C98.151482,57.613480 96.944229,61.189968 96.911697,66.053345 
	C96.808807,81.430923 96.341240,96.806053 96.026779,112.659622 
z"/>
<path fill="#F7EAB0" opacity="1.000000" stroke="none" 
	d="
M115.773872,43.046135 
	C117.311432,44.056995 118.485130,45.152306 119.907951,46.819351 
	C121.955933,48.620350 123.754791,49.849609 125.553650,51.078865 
	C125.429268,57.674343 125.377327,64.272163 125.164223,70.864777 
	C124.806511,81.931198 124.335716,92.993927 123.938232,104.059128 
	C123.861740,106.188629 124.392120,108.682487 120.431000,108.130417 
	C120.991814,93.874741 122.123764,79.717651 122.897736,65.541008 
	C123.170502,60.544987 122.140404,55.825306 117.851540,52.187775 
	C115.248154,49.979748 112.071854,47.247250 115.773872,43.046135 
z"/>
<path fill="#F8ECAE" opacity="1.000000" stroke="none" 
	d="
M186.947128,41.027393 
	C187.554535,41.827618 188.161942,42.627846 188.893372,44.094677 
	C189.987503,45.879059 190.745178,47.431000 191.969177,48.029991 
	C195.141190,49.582283 198.518600,50.714897 201.814011,52.015038 
	C201.264816,69.897202 200.802567,87.782982 200.060104,105.657120 
	C199.963593,107.980591 203.039108,112.078606 197.230347,111.877914 
	C197.673203,98.173561 198.336288,85.086716 198.999390,71.999870 
	C198.999802,70.611023 199.000229,69.222176 199.244446,67.193230 
	C199.325699,65.368729 199.163162,64.184326 199.000610,62.999924 
	C199.000397,62.555527 199.000198,62.111130 199.000214,60.919785 
	C199.586517,55.511177 197.415375,53.029705 193.070984,51.401577 
	C186.336075,48.877552 185.127823,46.392658 186.947128,41.027393 
z"/>
<path fill="#F9EDAD" opacity="1.000000" stroke="none" 
	d="
M251.788269,57.042694 
	C251.003189,67.097923 250.228806,77.154007 249.427368,87.207932 
	C249.132507,90.907074 248.773712,94.601120 247.448959,98.465942 
	C245.649353,95.553230 243.849747,92.640526 241.985260,89.380096 
	C244.941559,88.710381 245.935547,87.061012 246.106247,84.018631 
	C246.401154,78.762749 247.242462,73.534119 247.938049,68.305161 
	C248.523315,63.905598 247.537323,60.342209 243.946213,57.267509 
	C241.367310,55.059456 238.011566,52.399483 241.626862,48.085014 
	C242.602249,48.721455 243.225906,49.446365 243.995575,50.788364 
	C246.690491,53.284531 249.239380,55.163612 251.788269,57.042694 
z"/>
<path fill="#F6ECB3" opacity="1.000000" stroke="none" 
	d="
M22.542839,122.069839 
	C23.530489,123.060814 24.190430,124.126694 24.996159,125.867508 
	C26.001360,129.953171 28.653765,130.139221 31.433521,129.973114 
	C36.554504,129.667099 41.693344,129.484024 46.783257,128.892654 
	C50.465805,128.464798 54.061428,127.432861 54.984489,122.962761 
	C55.508999,122.117683 56.033508,121.272606 56.769421,120.212402 
	C59.751003,122.695320 59.627094,126.454231 56.285370,129.002762 
	C54.497864,130.365982 52.250496,131.581223 50.072102,131.891998 
	C43.395885,132.844421 36.622467,133.992676 29.949253,133.689774 
	C26.963978,133.554306 23.768120,130.485596 21.413626,128.032257 
	C20.561293,127.144157 21.884583,124.168083 22.542839,122.069839 
z"/>
<path fill="#F7ECB3" opacity="1.000000" stroke="none" 
	d="
M71.549210,119.102440 
	C72.595886,120.340775 73.282364,121.685112 74.057899,123.732574 
	C76.072556,125.620247 77.925735,127.655106 79.937599,127.826401 
	C85.486710,128.298874 91.102661,128.035751 96.691269,127.977356 
	C100.294090,127.939713 102.602089,126.326416 102.793442,122.450264 
	C103.528099,121.482300 104.262764,120.514336 105.135590,119.268700 
	C108.307693,121.803658 107.675827,126.242889 103.713562,129.021973 
	C102.510445,129.865829 101.040520,130.850021 99.682083,130.866119 
	C91.651596,130.961304 83.512100,131.548431 75.621910,130.446930 
	C70.198730,129.689850 68.791344,124.502342 71.549210,119.102440 
z"/>
<path fill="#F8EDB2" opacity="1.000000" stroke="none" 
	d="
M188.321106,118.089645 
	C188.984497,118.793159 189.344452,119.591698 189.903259,121.043739 
	C192.079544,123.129341 194.025528,125.727081 196.040115,125.781395 
	C202.890671,125.966110 209.812500,125.596939 216.601440,124.667412 
	C218.565445,124.398506 220.174500,121.537102 221.946259,119.864197 
	C222.554733,118.759995 223.163208,117.655800 223.925964,116.275795 
	C227.146835,119.267403 226.058731,125.121170 221.275253,126.543930 
	C211.925461,129.324860 202.261658,131.440842 192.459930,128.841476 
	C187.316483,127.477470 185.398224,122.308136 188.321106,118.089645 
z"/>
<path fill="#F2E8B2" opacity="1.000000" stroke="none" 
	d="
M49.001682,75.214241 
	C47.699554,74.623329 45.292919,73.705795 45.223248,72.636063 
	C44.772274,65.711807 44.830692,58.754383 45.205757,51.402512 
	C48.129852,50.662647 50.643173,50.579723 52.984364,49.902096 
	C54.462105,49.474380 55.682617,48.157913 57.018509,47.240101 
	C58.397560,46.541248 59.776615,45.842396 61.470840,45.036091 
	C64.855476,45.715397 64.572601,48.081844 62.922150,49.332825 
	C60.018482,51.533680 56.721401,53.656666 53.261414,54.567261 
	C49.216640,55.631748 47.647045,57.544857 47.985302,61.503910 
	C48.364113,65.937592 48.651024,70.379120 49.001682,75.214241 
z"/>
<path fill="#F8EEB3" opacity="1.000000" stroke="none" 
	d="
M288.645569,119.090942 
	C289.597626,120.127190 290.181396,121.259125 290.671143,122.894173 
	C291.082458,127.558151 294.302765,127.893524 297.405060,127.952225 
	C303.432556,128.066299 309.493561,128.249207 315.482300,127.729980 
	C318.145996,127.499031 322.325836,127.808342 322.025940,122.900467 
	C322.670410,121.816299 323.314911,120.732140 324.026245,119.332077 
	C327.586121,122.063126 326.444214,125.077271 323.708710,127.685555 
	C319.092834,132.086746 295.857880,133.124557 290.838623,129.174820 
	C287.553619,126.589783 285.106384,123.543167 288.645569,119.090942 
z"/>
<path fill="#FBF0B5" opacity="1.000000" stroke="none" 
	d="
M228.045380,98.352852 
	C229.496872,99.657478 231.316666,101.126106 232.427292,103.012306 
	C236.046036,109.158005 239.211868,115.575447 242.945267,121.646454 
	C244.869766,124.775917 246.941010,128.714005 251.652435,127.807732 
	C256.677948,126.841049 258.401672,122.747421 258.955231,118.242973 
	C259.921265,110.382095 260.633759,102.490067 261.726288,94.305550 
	C261.889801,100.487854 261.983582,106.988228 261.586334,113.458458 
	C261.376709,116.872498 260.739227,120.394379 259.544037,123.586411 
	C256.899048,130.650436 249.875351,132.080902 244.447220,126.916634 
	C243.254074,125.781494 241.952927,124.618286 241.180344,123.206055 
	C236.736801,115.083679 232.437286,106.882515 228.045380,98.352852 
z"/>
<path fill="#F2E8B2" opacity="1.000000" stroke="none" 
	d="
M69.846611,46.020927 
	C72.043098,48.975372 74.580544,50.276402 78.253906,50.014050 
	C82.187775,49.733089 83.387863,52.007862 83.131165,55.849247 
	C82.778343,61.128910 83.167320,66.458099 82.815872,71.737938 
	C82.739799,72.880768 80.869041,73.904137 79.406975,74.901741 
	C79.320091,70.385101 80.019585,65.929604 79.784637,61.523933 
	C79.701126,59.957874 77.475830,58.369217 75.999596,57.045940 
	C73.718918,55.001568 70.921143,53.441605 69.006691,51.126984 
	C68.248573,50.210403 69.268211,47.823425 69.846611,46.020927 
z"/>
<path fill="#FBF0B5" opacity="1.000000" stroke="none" 
	d="
M214.277649,110.639992 
	C214.371887,101.234512 214.683792,91.906403 215.190292,82.588867 
	C215.235565,81.756203 216.417679,80.638489 217.309280,80.321907 
	C217.892990,80.114655 219.258606,80.906288 219.668198,81.605423 
	C222.504639,86.447144 225.182053,91.382034 227.955261,96.643509 
	C225.713028,94.089027 223.496368,91.118141 221.097504,88.302505 
	C220.348877,87.423820 219.123566,86.519737 218.086426,86.483368 
	C217.483124,86.462212 216.299011,88.122971 216.267639,89.056877 
	C216.042267,95.764404 216.045547,102.479637 215.992310,109.613190 
	C215.521469,110.262711 215.034592,110.491463 214.277649,110.639992 
z"/>
<path fill="#FBF0B5" opacity="1.000000" stroke="none" 
	d="
M263.384888,79.893036 
	C263.362274,74.878845 263.574738,69.740524 264.133026,64.640053 
	C264.513489,61.164452 266.041779,57.447922 269.807892,57.500664 
	C272.362152,57.536427 275.549347,59.666332 277.274445,61.808937 
	C280.897583,66.308998 283.743927,71.434509 286.954590,76.651634 
	C285.496063,75.605385 283.753632,74.390289 282.539551,72.777489 
	C280.254211,69.741653 278.513855,66.272743 276.069183,63.388866 
	C274.764038,61.849205 272.246033,60.061687 270.667389,60.373089 
	C268.938629,60.714111 266.961243,63.120567 266.347412,65.030350 
	C265.357544,68.110008 265.462799,71.530258 264.972412,74.786591 
	C264.718140,76.474945 264.178223,78.120262 263.384888,79.893036 
z"/>
<path fill="#FBEFB4" opacity="1.000000" stroke="none" 
	d="
M198.613113,72.109970 
	C198.336288,85.086716 197.673203,98.173561 196.985123,111.690475 
	C196.522903,112.127762 196.085663,112.134964 195.324310,112.089493 
	C195.667755,99.925301 196.306915,87.812035 197.047729,75.705002 
	C197.120010,74.523735 197.818848,73.380798 198.613113,72.109970 
z"/>
<path fill="#F2E8B2" opacity="1.000000" stroke="none" 
	d="
M314.943329,40.159046 
	C316.720276,40.891788 318.238159,42.208595 319.997314,42.962734 
	C321.764099,43.720154 323.771240,43.917057 327.240448,44.724331 
	C324.499390,47.334793 322.620148,49.124508 320.402527,50.978958 
	C317.644287,47.858864 313.088867,45.741898 314.943329,40.159046 
z"/>
<path fill="#FBEFB4" opacity="1.000000" stroke="none" 
	d="
M186.929337,40.682953 
	C185.127823,46.392658 186.336075,48.877552 193.070984,51.401577 
	C197.415375,53.029705 199.586517,55.511177 198.999908,60.586487 
	C196.552628,55.260300 190.728165,53.365643 186.400818,49.738441 
	C181.999222,46.049011 182.141479,42.451969 186.304092,39.012398 
	C186.737869,39.437946 186.824707,39.888233 186.929337,40.682953 
z"/>
<path fill="#F9EEB4" opacity="1.000000" stroke="none" 
	d="
M296.936554,45.813587 
	C297.228424,45.062859 297.520294,44.312130 297.945007,43.286026 
	C303.314209,45.537617 299.397522,48.695171 298.620972,51.584030 
	C297.839050,54.492798 296.874146,57.352360 295.979492,60.660164 
	C294.391968,58.939476 292.814362,56.792114 291.404236,54.174034 
	C293.359955,51.073410 295.148254,48.443501 296.936554,45.813587 
z"/>
<path fill="#FBF0B5" opacity="1.000000" stroke="none" 
	d="
M287.046753,78.345474 
	C292.710205,80.696960 297.409180,89.310341 296.263885,95.726868 
	C293.032288,90.231567 290.061798,84.462547 287.046753,78.345474 
z"/>
<path fill="#F9EEB4" opacity="1.000000" stroke="none" 
	d="
M306.681488,67.023972 
	C306.143463,68.598312 305.184845,70.161095 303.791412,72.432709 
	C301.926636,70.016846 300.610687,68.312027 299.164551,66.305435 
	C301.443176,66.339912 303.852051,66.676170 306.681488,67.023972 
z"/>
<path fill="#FBF0B5" opacity="1.000000" stroke="none" 
	d="
M262.370605,89.903130 
	C262.155579,87.529137 262.308685,85.057312 262.731079,82.292747 
	C262.913116,84.601768 262.825897,87.203537 262.370605,89.903130 
z"/>
<path fill="#FBEFB4" opacity="1.000000" stroke="none" 
	d="
M198.756592,63.223274 
	C199.163162,64.184326 199.325699,65.368729 199.244431,66.776581 
	C198.837921,65.815559 198.675247,64.631088 198.756592,63.223274 
z"/>
<path fill="#FBF0B5" opacity="1.000000" stroke="none" 
	d="
M296.659180,110.068298 
	C296.998901,110.754387 296.998993,111.509621 296.997925,112.642960 
	C296.551849,113.036888 296.106934,113.052711 295.327972,113.066254 
	C295.435791,112.088463 295.877686,111.112946 296.659180,110.068298 
z"/>
<path fill="#F9EEB4" opacity="1.000000" stroke="none" 
	d="
M428.897827,58.966599 
	C428.257263,58.445515 427.643616,57.559082 427.073975,56.334824 
	C427.720215,56.865082 428.322479,57.733166 428.897827,58.966599 
z"/>
<path fill="#F9EDAD" opacity="1.000000" stroke="none" 
	d="
M228.859390,66.067551 
	C228.199432,65.545845 227.579468,64.627373 226.913330,63.379200 
	C227.544571,63.923260 228.221970,64.797020 228.859390,66.067551 
z"/>
<path fill="#E0D7AA" opacity="1.000000" stroke="none" 
	d="
M82.815063,89.609970 
	C70.375366,88.728035 58.067802,87.435043 45.493473,90.948090 
	C44.818012,86.825523 46.401722,85.268867 50.921803,85.419563 
	C60.285442,85.731758 69.680321,85.497612 79.047195,85.115990 
	C82.452698,84.977234 83.675713,85.874039 82.815063,89.609970 
z"/>
<path fill="#E4DBAC" opacity="1.000000" stroke="none" 
	d="
M54.633812,123.059891 
	C54.061428,127.432861 50.465805,128.464798 46.783257,128.892654 
	C41.693344,129.484024 36.554504,129.667099 31.433521,129.973114 
	C28.653765,130.139221 26.001360,129.953171 25.121607,126.156540 
	C31.445080,125.322395 37.793987,124.934685 44.130661,124.401550 
	C47.525692,124.115913 50.899666,123.580002 54.633812,123.059891 
z"/>
<path fill="#EBE1AC" opacity="1.000000" stroke="none" 
	d="
M102.392006,122.567947 
	C102.602089,126.326416 100.294090,127.939713 96.691269,127.977356 
	C91.102661,128.035751 85.486710,128.298874 79.937599,127.826401 
	C77.925735,127.655106 76.072556,125.620247 74.144142,124.043770 
	C83.424408,123.329765 92.707489,123.007698 102.392006,122.567947 
z"/>
<path fill="#E7DEAB" opacity="1.000000" stroke="none" 
	d="
M56.559464,47.159645 
	C55.682617,48.157913 54.462105,49.474380 52.984364,49.902096 
	C50.643173,50.579723 48.129852,50.662647 45.267406,51.021481 
	C44.523926,49.887012 44.202408,48.728264 43.744835,47.079185 
	C48.303375,47.079185 52.201897,47.079185 56.559464,47.159645 
z"/>
<path fill="#CAC3AB" opacity="1.000000" stroke="none" 
	d="
M34.503403,49.770966 
	C33.300198,49.480442 32.191555,48.841343 30.983013,47.936012 
	C32.121399,48.253986 33.359684,48.838184 34.503403,49.770966 
z"/>
<path fill="#CAC3AB" opacity="1.000000" stroke="none" 
	d="
M34.673462,54.625099 
	C34.452858,54.135777 34.327759,53.280628 34.393040,52.221657 
	C34.645267,52.764977 34.707115,53.512127 34.673462,54.625099 
z"/>
<path fill="#CAC3AB" opacity="1.000000" stroke="none" 
	d="
M28.747765,47.432636 
	C28.711966,47.592831 28.431299,47.656105 28.067476,47.573631 
	C28.157181,47.397163 28.330040,47.366440 28.747765,47.432636 
z"/>
<path fill="#CAC3AB" opacity="1.000000" stroke="none" 
	d="
M34.790970,69.762512 
	C34.633614,69.742294 34.539505,69.461571 34.586357,69.080963 
	C34.769623,69.154716 34.811920,69.328362 34.790970,69.762512 
z"/>
<path fill="#F5E6AD" opacity="1.000000" stroke="none" 
	d="
M175.237381,47.399303 
	C175.707687,47.217564 176.434906,47.366505 176.529480,47.696651 
	C178.578674,54.850868 179.588455,62.137394 175.800934,68.914597 
	C174.768692,70.761627 171.187500,72.841461 169.572906,72.324753 
	C167.028320,71.510406 165.000488,68.724365 163.080444,66.492119 
	C162.317978,65.605690 162.432693,63.968079 162.138947,62.674526 
	C161.414368,59.484016 163.709900,54.409275 159.206863,53.576271 
	C153.524780,52.525158 147.481583,53.097607 141.639923,53.554550 
	C140.642746,53.632549 139.230423,56.597336 139.121277,58.299747 
	C138.791550,63.443523 139.008789,68.622368 139.017197,74.234909 
	C136.947891,74.958656 135.205978,75.321213 135.406128,71.982933 
	C135.805923,65.314613 135.744980,58.618679 136.363892,51.452236 
	C146.244553,50.157291 155.692734,47.801807 164.898010,52.008457 
	C164.941040,55.318920 164.356293,58.809601 165.237534,61.879440 
	C165.874435,64.098129 168.459030,65.757713 170.174988,67.666641 
	C171.942200,66.003929 174.981949,64.509850 175.229004,62.645679 
	C175.872696,57.788513 175.291977,52.769081 175.237381,47.399303 
z"/>
<path fill="#FBF0B5" opacity="1.000000" stroke="none" 
	d="
M158.993561,99.996475 
	C160.762543,100.616501 162.531509,101.236534 164.651016,102.340317 
	C164.999146,104.197632 164.996735,105.571205 164.994324,106.944778 
	C156.304962,107.282059 147.615616,107.619347 138.396210,107.513504 
	C137.596970,103.985580 136.865540,100.843430 137.238342,97.838264 
	C137.449554,96.135452 139.395691,93.442665 140.696655,93.360825 
	C142.680435,93.236023 144.923233,94.771660 146.797256,95.997795 
	C149.008896,97.444832 150.944931,99.313118 153.047058,101.284500 
	C153.410919,101.873894 153.728165,102.177559 154.045425,102.481232 
	C154.363480,101.987083 154.681519,101.492935 155.342545,100.957993 
	C156.788208,100.610291 157.890884,100.303383 158.993561,99.996475 
z"/>
<path fill="#EDDDA7" opacity="1.000000" stroke="none" 
	d="
M176.564804,116.030014 
	C176.352905,122.239792 170.835907,121.068710 167.119095,121.803734 
	C163.128967,122.592804 158.860657,121.895218 154.718292,122.010368 
	C144.805405,122.285934 134.896790,122.795815 124.982986,122.909500 
	C121.874344,122.945145 118.100105,123.294823 116.973640,118.513931 
	C128.997299,117.854050 141.042313,117.538391 153.088928,117.304665 
	C158.686798,117.196053 164.290543,117.340881 169.885910,117.176491 
	C171.986084,117.114784 174.070084,116.502327 176.564804,116.030014 
z"/>
<path fill="#F5E6AD" opacity="1.000000" stroke="none" 
	d="
M153.000443,100.998779 
	C150.944931,99.313118 149.008896,97.444832 146.797256,95.997795 
	C144.923233,94.771660 142.680435,93.236023 140.696655,93.360825 
	C139.395691,93.442665 137.449554,96.135452 137.238342,97.838264 
	C136.865540,100.843430 137.596970,103.985580 137.937469,107.468307 
	C136.091110,108.632622 134.903839,108.540657 134.898682,105.924202 
	C134.888885,100.946907 134.641556,95.970062 134.900604,90.421616 
	C139.556549,86.951591 144.022110,87.828262 148.509842,89.090179 
	C148.676300,90.057281 148.501114,91.400520 149.073654,91.920570 
	C150.754883,93.447662 152.720078,95.630981 154.599457,95.656052 
	C156.031723,95.675171 158.020264,93.012383 158.809647,91.141243 
	C159.585892,89.301208 159.162704,86.955185 159.386398,84.403458 
	C163.176147,88.006569 163.061859,92.286842 159.046112,99.631821 
	C157.890884,100.303383 156.788208,100.610291 155.009369,100.957481 
	C153.888947,100.998100 153.444687,100.998436 153.000443,100.998779 
z"/>
<path fill="#EDDDA7" opacity="1.000000" stroke="none" 
	d="
M164.950531,51.578308 
	C155.692734,47.801807 146.244553,50.157291 136.432190,50.987579 
	C135.131271,47.087288 136.470657,45.610058 140.661118,45.879684 
	C147.124222,46.295540 153.630615,46.353199 160.105667,46.149700 
	C163.957611,46.028641 165.877197,47.014954 164.950531,51.578308 
z"/>
<path fill="#E7C697" opacity="1.000000" stroke="none" 
	d="
M148.622940,88.681641 
	C144.022110,87.828262 139.556549,86.951591 134.988251,89.973145 
	C133.997375,86.197327 135.780701,84.785011 139.535660,85.077415 
	C141.800049,85.253746 144.154846,84.800835 146.336899,85.259377 
	C147.304962,85.462799 147.946365,87.220772 148.622940,88.681641 
z"/>
<path fill="#F5E6AD" opacity="1.000000" stroke="none" 
	d="
M165.402771,107.044205 
	C164.996735,105.571205 164.999146,104.197632 165.000763,102.411880 
	C166.178558,99.488724 161.777725,96.164604 166.495667,94.054718 
	C167.144974,97.456924 167.593918,100.920929 167.649887,104.391258 
	C167.664520,105.298599 166.457291,106.225647 165.402771,107.044205 
z"/>
<path fill="#EACC9B" opacity="1.000000" stroke="none" 
	d="
M125.639267,50.716393 
	C123.754791,49.849609 121.955933,48.620350 120.159378,47.027924 
	C122.530014,47.119476 126.491348,45.171959 125.639267,50.716393 
z"/>
<path fill="#F5E6AD" opacity="1.000000" stroke="none" 
	d="
M159.007202,69.447632 
	C162.556610,72.357841 161.248184,76.059868 159.484055,79.887833 
	C159.050110,76.638878 158.986694,73.270020 159.007202,69.447632 
z"/>
<path fill="#EFE6AF" opacity="1.000000" stroke="none" 
	d="
M352.565735,46.041950 
	C354.132507,49.746037 351.121613,51.155899 348.839020,50.808193 
	C338.736542,49.269253 334.365112,56.613026 329.165558,62.736851 
	C322.654663,70.405144 316.250977,78.164497 309.470398,85.932724 
	C309.910919,83.593742 310.083862,80.725441 311.552551,78.899345 
	C319.613037,68.877533 328.060730,59.168301 336.218750,49.223167 
	C338.785675,46.093922 341.736115,45.602211 345.455841,46.239487 
	C347.626862,46.611431 349.934113,46.187847 352.565735,46.041950 
z"/>
<path fill="#EFE5AD" opacity="1.000000" stroke="none" 
	d="
M299.027710,86.619232 
	C295.761078,83.146515 292.318420,79.425339 289.292664,75.391449 
	C285.714905,70.621658 282.025116,65.832535 279.243652,60.595184 
	C275.823517,54.155273 268.883240,52.898769 262.732788,57.927017 
	C262.628998,55.792305 262.854034,53.579899 263.011658,52.030365 
	C266.688293,50.791428 269.699402,49.776745 272.813049,48.408775 
	C274.576874,49.838326 276.464722,51.460720 277.860504,53.431610 
	C284.094940,62.234852 290.249573,71.096626 296.283875,80.037926 
	C297.528412,81.882011 298.135406,84.156349 299.027710,86.619232 
z"/>
<path fill="#EFE5AD" opacity="1.000000" stroke="none" 
	d="
M321.554749,122.918686 
	C322.325836,127.808342 318.145996,127.499031 315.482300,127.729980 
	C309.493561,128.249207 303.432556,128.066299 297.405060,127.952225 
	C294.302765,127.893524 291.082458,127.558151 290.814087,123.178909 
	C294.272614,123.008202 297.494354,123.104218 300.715729,123.093506 
	C307.505127,123.070930 314.294312,122.992439 321.554749,122.918686 
z"/>
<path fill="#EFE6AF" opacity="1.000000" stroke="none" 
	d="
M296.567810,45.908100 
	C295.148254,48.443501 293.359955,51.073410 291.270996,53.860611 
	C289.663910,52.397217 288.357452,50.776527 286.828217,48.879471 
	C290.349701,47.798370 293.274384,46.900490 296.567810,45.908100 
z"/>
<path fill="#F0E4A4" opacity="1.000000" stroke="none" 
	d="
M254.668732,121.101555 
	C254.044479,122.570015 253.380600,125.109383 252.072174,125.502289 
	C250.707397,125.912117 247.989243,124.731339 247.131729,123.417664 
	C243.063797,117.185707 239.425873,110.672867 235.641144,104.256325 
	C230.071396,94.813499 224.644608,85.280884 218.806396,76.007187 
	C217.821060,74.442032 215.071396,73.987625 212.768845,73.032204 
	C212.400787,68.634018 212.400787,64.223633 212.400787,58.767673 
	C213.571106,60.158875 214.240845,60.744061 214.651917,61.474766 
	C223.564438,77.316948 232.475983,93.159843 241.315414,109.042847 
	C243.237656,112.496788 244.757553,116.175117 246.689545,119.623024 
	C248.536484,122.919144 251.095840,124.027252 254.668732,121.101555 
z"/>
<path fill="#EEE3A5" opacity="1.000000" stroke="none" 
	d="
M221.515503,119.922440 
	C220.174500,121.537102 218.565445,124.398506 216.601440,124.667412 
	C209.812500,125.596939 202.890671,125.966110 196.040115,125.781395 
	C194.025528,125.727081 192.079544,123.129341 190.056610,121.334244 
	C198.401154,120.886032 206.791977,120.842461 215.180664,120.684837 
	C217.152405,120.647789 219.116898,120.225647 221.515503,119.922440 
z"/>
<path fill="#EEE3A5" opacity="1.000000" stroke="none" 
	d="
M201.857651,51.574112 
	C198.518600,50.714897 195.141190,49.582283 191.969177,48.029991 
	C190.745178,47.431000 189.987503,45.879059 189.007538,44.379814 
	C191.252762,44.326679 193.558472,45.124710 195.752625,44.888153 
	C200.725266,44.352028 202.877869,46.066151 201.857651,51.574112 
z"/>
<path fill="#EFE19C" opacity="1.000000" stroke="none" 
	d="
M251.855026,56.609741 
	C249.239380,55.163612 246.690491,53.284531 244.149811,51.031612 
	C246.543549,50.942059 248.929062,51.226341 251.921783,51.582985 
	C251.921783,53.088493 251.921783,54.632641 251.855026,56.609741 
z"/>
<path fill="#FEF3B8" opacity="1.000000" stroke="none" 
	d="
M420.359985,94.141891 
	C409.995087,112.540779 397.258087,114.402237 376.573944,109.347984 
	C371.456909,108.097626 366.169708,106.570732 364.309570,100.085373 
	C364.531616,98.679909 364.743500,97.815903 364.512085,97.093994 
	C360.555511,84.751244 363.258026,73.695946 371.591003,64.174797 
	C381.956451,52.331345 404.407776,51.218117 414.115845,65.057106 
	C419.527191,72.771019 420.613770,81.177208 419.801422,90.179237 
	C419.684692,91.472778 420.159119,92.819679 420.359985,94.141891 
z"/>
<path fill="#F2E8B2" opacity="1.000000" stroke="none" 
	d="
M420.639587,93.923370 
	C420.159119,92.819679 419.684692,91.472778 419.801422,90.179237 
	C420.613770,81.177208 419.527191,72.771019 414.115845,65.057106 
	C404.407776,51.218117 381.956451,52.331345 371.591003,64.174797 
	C363.258026,73.695946 360.555511,84.751244 364.512085,97.093994 
	C364.743500,97.815903 364.531616,98.679909 364.276520,99.735474 
	C359.120483,91.008606 357.152832,81.681816 361.257233,71.266785 
	C362.147125,69.791283 362.513214,68.757957 362.879303,67.724640 
	C362.939545,67.314911 362.999817,66.905182 363.386780,66.133347 
	C363.902039,65.589012 364.011993,65.367737 364.043396,65.107422 
	C364.043396,65.107422 364.005310,65.047348 364.377075,64.986740 
	C366.848236,63.096409 369.192841,61.480606 371.006775,59.401772 
	C381.644592,47.210457 406.964142,47.503834 416.978271,61.815704 
	C417.650757,62.776775 418.983643,63.275753 420.009399,63.989643 
	C420.009399,63.989639 420.000000,64.000000 420.032654,64.190674 
	C420.157104,64.644218 420.327087,64.838760 420.575287,64.964981 
	C423.610657,74.509987 426.090820,84.061630 420.639587,93.923370 
z"/>
<path fill="#E4DBAC" opacity="1.000000" stroke="none" 
	d="
M360.004639,115.993172 
	C359.700775,115.866661 359.448242,115.673134 359.079895,114.850906 
	C357.924713,111.919075 356.936676,109.548935 355.948608,107.178802 
	C360.297119,115.096489 368.325806,117.781242 376.051605,119.578156 
	C389.271454,122.652901 402.882782,123.621353 415.075439,115.833549 
	C419.112885,113.254692 421.998749,108.872871 425.704559,105.516037 
	C424.659882,108.473457 423.321808,111.230247 421.983765,113.987030 
	C421.169556,114.892181 420.355347,115.797333 418.917908,116.893272 
	C406.623779,125.521576 393.515503,126.945160 380.018372,123.771820 
	C373.118896,122.149673 366.661713,118.646286 360.004639,115.993172 
z"/>
<path fill="#E3DAAB" opacity="1.000000" stroke="none" 
	d="
M419.973236,63.641968 
	C418.983643,63.275753 417.650757,62.776775 416.978271,61.815704 
	C406.964142,47.503834 381.644592,47.210457 371.006775,59.401772 
	C369.192841,61.480606 366.848236,63.096409 364.412170,64.981171 
	C370.370728,50.205070 389.672058,43.011616 404.261383,48.910755 
	C411.696808,51.917244 416.297913,56.774830 419.973236,63.641968 
z"/>
<path fill="#F2E8B1" opacity="1.000000" stroke="none" 
	d="
M355.878906,106.822792 
	C356.936676,109.548935 357.924713,111.919075 358.959930,114.642128 
	C357.453491,113.645142 355.402466,112.582016 354.430725,110.896629 
	C349.747467,102.773827 346.276520,94.245445 347.813293,84.243774 
	C350.669464,91.459953 353.239349,98.963364 355.878906,106.822792 
z"/>
<path fill="#F2E8B1" opacity="1.000000" stroke="none" 
	d="
M422.329895,113.945480 
	C423.321808,111.230247 424.659882,108.473457 425.995789,105.349045 
	C426.019409,104.803146 426.045227,104.624878 426.368195,104.083588 
	C426.861725,103.504570 426.967651,103.250832 426.983154,102.959351 
	C429.101074,98.783325 431.218964,94.607300 433.592102,90.186203 
	C433.963562,91.935104 434.884125,94.385910 434.056213,95.843636 
	C430.545715,102.024406 426.516052,107.910294 422.329895,113.945480 
z"/>
<path fill="#E3DAAB" opacity="1.000000" stroke="none" 
	d="
M362.596497,67.897903 
	C362.513214,68.757957 362.147125,69.791283 361.438904,70.918137 
	C361.502350,70.031502 361.907990,69.051331 362.596497,67.897903 
z"/>
<path fill="#E4DBAC" opacity="1.000000" stroke="none" 
	d="
M426.782288,103.059341 
	C426.967651,103.250832 426.861725,103.504570 426.498016,103.846634 
	C426.232788,103.645653 426.316376,103.374527 426.782288,103.059341 
z"/>
<path fill="#E3DAAB" opacity="1.000000" stroke="none" 
	d="
M420.583557,64.758148 
	C420.327087,64.838760 420.157104,64.644218 420.037537,64.185661 
	C420.286957,64.090836 420.481018,64.277954 420.583557,64.758148 
z"/>
<path fill="#E3DAAB" opacity="1.000000" stroke="none" 
	d="
M363.867706,65.194016 
	C364.011993,65.367737 363.902039,65.589012 363.553528,65.870224 
	C363.357635,65.680984 363.457123,65.451454 363.867706,65.194016 
z"/>
<path fill="#F2E8B1" opacity="1.000000" stroke="none" 
	d="
M360.048462,116.342148 
	C366.661713,118.646286 373.118896,122.149673 380.018372,123.771820 
	C393.515503,126.945160 406.623779,125.521576 418.644409,117.037727 
	C417.922089,118.358612 417.133331,120.228828 415.734863,121.016533 
	C398.553772,130.694061 381.333038,128.568039 364.253357,120.692719 
	C362.602325,119.931427 361.467010,118.051682 360.048462,116.342148 
z"/>
<path fill="#FBEFB4" opacity="1.000000" stroke="none" 
	d="
M153.047058,101.284500 
	C153.444687,100.998436 153.888947,100.998100 154.666382,100.998268 
	C154.681519,101.492935 154.363480,101.987083 154.045425,102.481232 
	C153.728165,102.177559 153.410919,101.873894 153.047058,101.284500 
z"/>
</svg>