<svg version="1.1" xmlns="http://www.w3.org/2000/svg" xmlns:xlink="http://www.w3.org/1999/xlink" width="900" height="471" viewBox="0 0 900 471"><path width="1200" height="628" fill="#FFF4B8" d="M0 0H900V471H0V0z"/><g transform="translate(280 164)"><path fill="#FFF4B8" opacity="1.000000" stroke="none" d="M252 144.75H0.75V0.75h339v144zM196.758 28.562c-0.323 0.018 -0.647 0.038 -1.339 -0.37 -3.739 0.616 -7.522 1.04 -11.207 1.89 -7.149 1.65 -9.304 8.923 -4.383 14.366 3.897 4.31 4.333 8.035 1.32 14.41 -1.146 -1.332 -2.369 -2.326 -3.037 -3.609 -2.248 -4.313 -4.264 -8.745 -6.437 -13.099 -2.002 -4.012 -3.583 -8.366 -6.246 -11.891 -5.603 -7.414 -13.867 -6.58 -21.8 -5.609 -2.043 0.25 -4.205 1.605 -5.782 3.037 -1.923 1.744 -3.35 1.524 -5.266 0.257 -1.51 -0.998 -3.219 -2.285 -4.886 -2.356 -10.145 -0.43 -20.305 -0.702 -30.457 -0.655 -2.415 0.011 -4.822 1.441 -7.412 2.365 0 0 -0.206 -0.102 -0.819 -0.195 -0.85 0.099 -2.226 -0.097 -2.471 0.341 -3.303 5.892 -7.209 3.915 -11.256 1.04a1.95 1.95 0 0 0 -1.059 -0.341c-5.457 -0.032 -10.954 -0.454 -16.357 0.081 -4.411 0.437 -8.783 3.161 -12.784 -1.014 -0.207 -0.215 -0.712 -0.186 -1.08 -0.2 -6.952 -0.255 -13.902 -0.56 -20.856 -0.658 -0.753 -0.011 -1.522 1.2 -2.656 1.895 -0.37 -0.044 -0.741 -0.088 -1.75 -0.292 -3.58 -0.649 -5.042 1.712 -5.83 4.476 -1.039 3.637 0.555 7.695 3.952 9.694 3.202 1.882 4.294 4.357 4.211 8.008 -0.206 9.118 -0.158 18.245 -0.028 27.366 0.058 4.092 -0.601 7.467 -4.442 9.932 -2.819 1.809 -4.392 4.674 -3.558 8.383 0.907 4.035 3.442 6.803 7.378 6.825 6.253 0.038 12.527 -0.675 18.762 -1.344 4.432 -0.476 6.815 -3.594 7.652 -7.657 0.731 -3.552 -1.202 -6.485 -4.027 -8.225 -3.275 -2.019 -4.046 -4.607 -3.882 -8.154 0.124 -2.679 0.931 -3.925 3.732 -3.789 2.867 0.138 5.747 0.028 8.621 0.03 5.789 0.002 6.42 0.455 5.575 6.171 -0.283 1.916 -1.847 4.006 -3.414 5.304 -5.348 4.426 -5.125 12.723 1.118 15.172 7.629 2.994 15.634 2.758 23.385 -0.158 1.994 -0.75 11.351 -2.554 13.489 -2.527 7.313 0.095 14.65 0.383 21.938 -0.062 7.03 -0.43 14 -1.77 21.02 -2.486 1.338 -0.137 2.867 0.602 4.159 1.24 2.189 1.082 4.12 2.925 6.404 3.531 7.212 1.914 14.303 -0.064 21.326 -1.536 3.955 -0.83 5.772 -4.154 6.01 -7.758 0.219 -3.316 -1.403 -6.214 -4.55 -8.036 -4.972 -2.881 -5.688 -6.016 -2.522 -11.97 1.114 1.34 2.273 2.407 3.037 3.709 3.974 6.773 7.738 13.671 11.797 20.391 2.175 3.602 5.29 6.197 9.904 5.171 4.279 -0.952 6.577 -4.202 7.226 -8.209 1.05 -6.485 1.66 -13.047 2.295 -19.592 0.636 -6.554 0.964 -13.14 1.686 -19.682 0.154 -1.4 1.426 -2.675 2.183 -4.008 1.217 0.944 2.72 1.675 3.602 2.867a366 366 0 0 1 10.32 14.673c1.007 1.507 2.012 3.346 2.099 5.08 0.265 5.329 2.407 11.056 -3.863 15.067 -2.87 1.835 -3.811 5.307 -2.549 9.035 1.411 4.168 4.57 6.115 8.476 6.231 5.957 0.178 11.961 -0.089 17.895 -0.675 4.978 -0.491 7.434 -3.156 8.043 -7.485 0.43 -3.053 -2.082 -7.849 -5.544 -9.024 -3.656 -1.242 -4.348 -3.507 -4.114 -6.851 0.2 -2.861 -0.111 -5.758 0.103 -8.616 0.115 -1.53 0.467 -3.333 1.388 -4.463 5.022 -6.174 10.125 -12.297 15.525 -18.136 1.063 -1.149 3.555 -0.977 5.387 -1.414 -0.143 1.555 0.125 3.296 -0.488 4.636 -7.546 16.518 -2.238 45.423 23.232 49.664 10.593 1.764 21.277 2.699 30.201 -3.738 13.024 -9.393 21.255 -21.991 15.832 -41.105 -3.69 -13.002 -10.787 -22.708 -24.315 -26.467 -10.494 -2.916 -20.541 -1.338 -29.929 4.048 -2.737 1.571 -4.245 1.085 -6.214 -1.32 -1.552 -1.897 -3.984 -3.906 -6.257 -4.228 -7.361 -1.042 -14.829 -1.778 -22.253 -1.759 -5.638 0.014 -9.55 6.265 -6.788 11.046 2.915 5.045 -0.063 7.625 -2.73 10.579 -0.718 0.797 -2.634 1.347 -3.508 0.944 -0.932 -0.43 -1.845 -2.169 -1.757 -3.256 0.143 -1.784 1.032 -3.528 1.726 -5.241 1.914 -4.725 -0.002 -9.76 -4.921 -11.042 -3.54 -0.922 -7.384 -0.75 -11.098 -0.837 -0.515 -0.012 -1.061 1.294 -2.093 2.047 -0.335 -0.009 -0.67 -0.018 -1.034 -0.591 -1.59 -1.79 -8.529 -1.323 -10.96 0.724" stroke-width="0.75"/><path fill="#FDF2B7" opacity="1.000000" stroke="none" d="M209.252 28.372c0.532 -0.697 1.078 -2.002 1.593 -1.991 3.714 0.087 7.558 -0.086 11.098 0.837 4.92 1.282 6.836 6.318 4.921 11.042 -0.694 1.713 -1.583 3.458 -1.726 5.241 -0.087 1.087 0.825 2.825 1.757 3.256 0.874 0.404 2.79 -0.146 3.508 -0.944 2.666 -2.955 5.644 -5.535 2.729 -10.579 -2.762 -4.781 1.149 -11.033 6.788 -11.046 7.425 -0.019 14.893 0.717 22.253 1.759 2.274 0.322 4.705 2.331 6.258 4.228 1.968 2.405 3.476 2.891 6.214 1.32 9.388 -5.386 19.435 -6.964 29.929 -4.048 13.527 3.759 20.625 13.465 24.314 26.467 5.423 19.113 -2.807 31.711 -15.832 41.105 -8.925 6.437 -19.608 5.502 -30.201 3.738 -25.47 -4.241 -30.778 -33.146 -23.232 -49.665 0.613 -1.34 0.345 -3.081 0.488 -4.636 -1.833 0.437 -4.325 0.265 -5.387 1.414 -5.4 5.839 -10.503 11.962 -15.525 18.135 -0.92 1.131 -1.273 2.934 -1.388 4.464 -0.214 2.858 0.098 5.756 -0.103 8.616 -0.234 3.345 0.458 5.61 4.114 6.851 3.462 1.175 5.974 5.972 5.544 9.023 -0.609 4.33 -3.065 6.995 -8.043 7.486 -5.934 0.586 -11.938 0.853 -17.895 0.675 -3.907 -0.115 -7.065 -2.063 -8.476 -6.231 -1.262 -3.728 -0.322 -7.2 2.549 -9.036 6.271 -4.011 4.128 -9.738 3.863 -15.067 -0.086 -1.732 -1.091 -3.571 -2.098 -5.079a366 366 0 0 0 -10.321 -14.673c-0.883 -1.192 -2.385 -1.924 -3.602 -2.867 -0.757 1.333 -2.028 2.609 -2.183 4.008 -0.722 6.543 -1.05 13.128 -1.686 19.682 -0.634 6.545 -1.245 13.107 -2.295 19.592 -0.648 4.007 -2.948 7.257 -7.226 8.209 -4.615 1.026 -7.729 -1.569 -9.904 -5.171 -4.059 -6.72 -7.823 -13.618 -11.797 -20.391 -0.764 -1.301 -1.923 -2.369 -3.037 -3.709 -3.165 5.954 -2.449 9.088 2.523 11.97 3.146 1.823 4.768 4.72 4.55 8.036 -0.238 3.604 -2.055 6.928 -6.01 7.758 -7.023 1.472 -14.114 3.45 -21.326 1.536 -2.284 -0.606 -4.215 -2.449 -6.405 -3.531 -1.29 -0.637 -2.82 -1.376 -4.158 -1.24 -7.02 0.716 -13.991 2.056 -21.02 2.486 -7.288 0.446 -14.624 0.157 -21.938 0.063 -2.139 -0.028 -11.495 1.778 -13.489 2.527 -7.75 2.915 -15.756 3.15 -23.385 0.158 -6.244 -2.45 -6.465 -10.748 -1.118 -15.173 1.567 -1.297 3.131 -3.388 3.414 -5.304 0.844 -5.716 0.214 -6.169 -5.575 -6.172 -2.874 -0.001 -5.754 0.109 -8.621 -0.03 -2.8 -0.135 -3.608 1.111 -3.732 3.79 -0.164 3.548 0.608 6.135 3.883 8.154 2.825 1.741 4.758 4.673 4.027 8.225 -0.837 4.063 -3.22 7.181 -7.652 7.658 -6.236 0.668 -12.509 1.38 -18.762 1.343 -3.937 -0.022 -6.471 -2.79 -7.378 -6.825 -0.834 -3.709 0.739 -6.574 3.558 -8.383 3.841 -2.465 4.5 -5.84 4.442 -9.932 -0.13 -9.121 -0.178 -18.247 0.028 -27.366 0.083 -3.651 -1.009 -6.125 -4.21 -8.008 -3.399 -1.998 -4.992 -6.056 -3.953 -9.694 0.789 -2.764 2.25 -5.125 5.939 -4.275 -0.682 0.934 -1.473 1.667 -2.331 2.703 -1.431 5.3 -0.839 6.577 3.368 9.734 1.378 1.033 2.835 2.63 3.192 4.21 0.704 3.107 0.922 6.386 0.883 9.589 -0.132 10.801 -0.464 21.6 -0.986 32.529 -2.857 0.685 -6 0.552 -6.061 4.631 -0.494 1.573 -1.486 3.805 -0.847 4.471 1.766 1.841 4.163 4.142 6.402 4.244 5.005 0.227 10.085 -0.634 15.092 -1.349 1.633 -0.232 3.32 -1.145 4.66 -2.167 2.506 -1.911 2.599 -4.73 0.495 -7.035 -0.55 -4.41 -3.932 -3.9 -6.699 -4.732 -0.003 -3.586 -0.062 -6.835 0.012 -10.08 0.075 -3.306 1.867 -5.083 5.166 -5.133 4.495 -0.068 8.994 -0.1 13.487 0.007 3.593 0.085 5.297 1.743 5.272 5.363 -0.022 3.343 -0.464 6.683 -1.012 10.094 -3.139 -0.143 -4.444 1.49 -5.274 4.092 -2.069 4.05 -1.013 7.941 3.055 8.509 5.917 0.826 12.023 0.386 18.045 0.315 1.019 -0.013 2.121 -0.751 3.024 -1.384 2.972 -2.085 3.446 -5.413 1.121 -7.798 -1.074 -3.78 -3.737 -4.373 -6.886 -4.473 0.235 -11.89 0.587 -23.422 0.664 -34.955 0.024 -3.647 0.93 -6.33 4.034 -8.59 1.936 -1.41 4.085 -3.744 1.141 -6.759 -0.27 -3.518 -2.585 -4.388 -5.221 -4.432 -5.353 -0.087 -10.714 -0.053 -16.061 0.167 -2.636 0.108 -4.385 1.483 -4.192 4.589 -0.434 1.352 -1.199 3.143 -0.63 3.829 1.435 1.736 3.534 2.906 5.245 4.439 1.107 0.992 2.776 2.184 2.839 3.358 0.176 3.304 -0.349 6.646 -0.942 10.034 -7.606 0.217 -14.866 0.375 -22.145 0.233 -0.263 -3.626 -0.479 -6.957 -0.763 -10.283 -0.254 -2.97 0.924 -4.404 3.957 -5.203 2.595 -0.682 5.068 -2.275 7.246 -3.925 1.237 -0.938 1.45 -2.713 -0.788 -3.595 0.247 -3.933 -1.904 -5.075 -5.089 -5.094 -6.819 -0.041 -13.638 -0.076 -20.457 -0.114 0.762 -0.644 1.531 -1.854 2.284 -1.844 6.954 0.098 13.905 0.403 20.855 0.658 0.369 0.013 0.874 -0.016 1.081 0.2 4.002 4.175 8.374 1.451 12.784 1.014 5.403 -0.535 10.901 -0.113 16.357 -0.081 0.356 0.002 0.768 0.135 1.059 0.341 4.047 2.875 7.953 4.852 11.256 -1.04 0.245 -0.438 1.621 -0.242 2.61 -0.09a21.9 21.9 0 0 1 -2.314 4.93c-2.776 3.151 -0.395 5.2 1.558 6.856 3.216 2.728 3.989 6.268 3.785 10.015 -0.581 10.633 -1.429 21.25 -2.413 31.994 -1.489 1.526 -2.737 2.933 -4.2 4.435 -1.927 3.104 -1.238 6.495 2.114 7.583 3.804 1.236 7.946 1.88 11.955 1.943 7.442 0.117 14.929 -0.013 22.335 -0.705 9.09 -0.85 13.482 -0.495 14.291 -10.565 0.371 -4.613 0.705 -9.678 -3.518 -13.595 -0.833 -1.772 -1.576 -3.295 -2.172 -5.013 4.483 -0.196 5.59 3.225 6.527 6.334 0.922 3.057 1.346 6.31 1.601 9.509 0.233 2.921 2.067 3.417 3.601 1.946 1.587 -1.521 2.854 -4.014 3.074 -6.201 0.618 -6.169 0.689 -12.396 0.855 -18.603 0.109 -4.112 0.128 -8.233 -0.04 -12.341 -0.105 -2.575 -4.335 -5.704 -7.195 -5.237 -3.144 0.515 -1.48 3.194 -1.681 4.89 -0.505 4.263 -0.956 8.558 -4.819 11.224 -1.677 1.157 -3.889 1.509 -5.742 2.453 -0.867 0.443 -1.828 1.326 -2.05 2.189 -0.154 0.596 0.85 1.525 1.402 2.257 0.415 0.551 0.93 1.026 1.211 1.663 -0.808 0.576 -1.424 1.025 -2.21 1.259 -2.979 -2.037 -2.355 -4.964 -2.292 -7.549 0.049 -1.98 1.244 -2.933 3.57 -2.606 3.985 0.56 7.287 -1.21 7.725 -5.119 0.655 -5.833 0.329 -11.795 0.086 -17.689 -0.041 -0.992 -1.763 -1.914 -2.814 -3.126 -1.372 -2.977 -3.42 -3.673 -6.43 -3.602 -11.643 0.271 -23.294 0.209 -34.942 0.27 2.411 -0.778 4.819 -2.207 7.235 -2.219 10.153 -0.047 20.312 0.225 30.457 0.655 1.667 0.071 3.377 1.357 4.886 2.356 1.915 1.268 3.343 1.486 5.265 -0.257 1.578 -1.432 3.74 -2.788 5.782 -3.037 7.933 -0.971 16.198 -1.805 21.801 5.609 2.663 3.525 4.245 7.878 6.246 11.891 2.172 4.353 4.188 8.786 6.437 13.099 0.668 1.282 1.891 2.277 3.037 3.609 3.013 -6.375 2.577 -10.099 -1.32 -14.41 -4.921 -5.443 -2.766 -12.716 4.383 -14.365 3.685 -0.85 7.468 -1.274 11.261 -1.472 -0.449 1.069 -0.953 1.719 -1.778 2.325 -2.925 0.131 -5.525 0.357 -8.131 0.467 -2.994 0.128 -4.235 1.718 -4.345 4.661 -2.711 3.236 -0.195 5.231 1.74 6.887 2.692 2.305 3.432 4.979 2.993 8.278 -0.522 3.923 -1.153 7.844 -1.374 11.786 -0.128 2.281 -0.873 3.518 -3.347 3.619 -3.344 -5.69 -6.481 -11.237 -9.588 -17.083 -0.478 -0.953 -0.986 -1.609 -1.662 -2.458 -2.837 -5.82 -5.405 -11.498 -8.248 -17.036 -0.661 -1.288 -2.169 -2.854 -3.435 -2.998a111 111 0 0 0 -14.884 -0.686c-1.163 0.026 -2.286 1.864 -3.688 2.886 -3.122 2.58 -3.229 5.278 0.073 8.045 3.245 2.721 7.614 4.142 9.449 8.696 0 0.584 0 0.917 -0.182 1.417 -0.061 1.056 0.06 1.945 0.183 3.146 0 1.354 -0.001 2.396 -0.291 3.52 -0.596 0.953 -1.12 1.811 -1.174 2.696 -0.556 9.08 -1.035 18.165 -1.811 27.307 -2.921 0.307 -4.515 1.579 -4.734 4.481 -2.192 3.163 -0.754 7.04 3.104 8.063 7.351 1.95 14.599 0.363 21.611 -1.723 3.588 -1.067 4.404 -5.458 2.065 -8.183 -0.802 -3.453 -3.095 -4.305 -6.027 -4.515 0.041 -5.351 0.038 -10.387 0.207 -15.418 0.023 -0.701 0.911 -1.946 1.364 -1.93 0.778 0.028 1.697 0.705 2.259 1.365 1.799 2.111 3.461 4.339 5.177 6.71 0 0.188 0 0.562 0.033 0.828 3.294 6.397 6.519 12.547 9.851 18.64 0.58 1.059 1.555 1.931 2.45 2.782 4.071 3.874 9.339 2.8 11.323 -2.498 0.896 -2.394 1.375 -5.036 1.531 -7.596 0.298 -4.853 0.228 -9.728 0.31 -14.893 0 -1.099 0.002 -1.9 0.277 -2.773 0.342 -2.025 0.407 -3.976 0.473 -6.177 0.001 -0.584 0.002 -0.916 0.289 -1.331 0.595 -1.33 1 -2.564 1.19 -3.829 0.367 -2.443 0.289 -5.008 1.031 -7.318 0.461 -1.432 1.944 -3.237 3.24 -3.493 1.184 -0.233 3.073 1.107 4.051 2.262 1.834 2.163 3.139 4.765 4.853 7.041 0.911 1.21 2.218 2.121 3.346 3.354 0 0.188 0.001 0.561 0.035 0.822 2.261 4.588 4.489 8.915 6.763 13.55 0.265 3.602 0.483 6.896 0.446 10.242 -0.586 0.784 -0.917 1.515 -1.516 2.292 -2.486 0.68 -4.602 1.409 -4.493 4.475 -2.655 3.339 -0.819 5.624 1.645 7.563 3.764 2.963 21.191 2.184 24.652 -1.117 2.051 -1.956 2.908 -4.216 0.26 -6.783 -0.744 -4.186 -3.755 -4.329 -6.813 -4.709 -0.274 -3.876 -0.185 -7.526 -0.884 -11.019 -0.953 -4.76 -0.032 -8.783 3.097 -12.415 3.639 -4.227 7.175 -8.544 10.864 -12.725 1.868 -2.117 3.714 -4.425 6.032 -5.939 4.653 -3.036 9.252 -0.922 9.497 4.181 -0.255 0.407 -0.464 0.654 -0.942 0.94 -1.009 0.991 -1.984 1.84 -2.449 2.91 -5.309 12.221 -3.053 28.48 6.003 38.204 6.72 7.216 16.181 8.437 25.42 9.017 15.221 0.957 25.431 -6.754 32.418 -19.688 5.48 -10.143 2.638 -20.028 -0.694 -29.902 -0.28 -0.831 -1.538 -1.333 -2.508 -2.094 -0.254 -0.485 -0.342 -0.862 -0.41 -1.515 -0.432 -0.925 -0.883 -1.576 -1.48 -2.439 -4.08 -6.013 -9.067 -10.703 -16.007 -12.234 -4.504 -0.995 -9.309 -1.181 -13.937 -0.93 -7.897 0.427 -14.629 3.767 -20.044 9.47 -1.412 -2.15 -2.704 -4 -4.042 -6.115 -1.671 -1.795 -3.139 -4.398 -4.952 -4.667 -6.825 -1.011 -13.756 -1.376 -20.66 -1.74 -2.668 -0.141 -4.581 1.133 -4.345 4.549 -1.391 4.187 2.026 5.775 3.793 8.42 -3.256 4.083 -6.465 7.91 -9.989 11.729 -2.122 -0.261 -3.929 -0.513 -5.862 -0.975 -0.808 -1.3 -1.49 -2.389 -2.165 -3.798 0.671 -2.481 1.395 -4.625 1.982 -6.807 0.583 -2.167 3.52 -4.535 -0.461 -6.702 -0.86 -3.583 -3.458 -4.186 -6.268 -4.16 -2.663 0.026 -5.324 0.352 -7.985 0.545m-121.455 34.517c0.484 -5.191 1.482 -10.408 1.221 -15.56 -0.121 -2.393 -2.544 -4.779 -4.258 -6.898 -0.41 -0.506 -2.471 -0.355 -3.238 0.215 -4.948 3.676 -6.675 8.819 -6.558 14.864 0.15 7.744 0.274 15.503 -0.068 23.235 -0.161 3.628 1.9 4.649 4.422 5.976 2.701 1.422 3.468 -0.974 4.908 -2.08 2.815 -2.165 3.81 -5.011 3.575 -8.553 -0.231 -3.483 -0.044 -6.994 -0.004 -11.198" stroke-width="0.75"/><path fill="#083BA8" opacity="1.000000" stroke="none" d="M36.012 85.324c2.764 0.492 6.146 -0.017 6.538 4.554 -0.525 1.077 -0.919 1.71 -1.575 2.417 -2.8 0.39 -5.331 0.792 -7.877 1.006 -4.753 0.4 -9.514 0.69 -14.366 0.81 -0.59 -1.016 -1.085 -1.816 -1.579 -2.615 -0.186 -4.022 2.958 -3.889 6.082 -4.582 4.32 -0.488 2.407 -3.397 2.453 -5.035 0.275 -9.783 0.27 -19.574 0.406 -29.557 0.015 -0.326 -0.016 -0.456 0.014 -0.93 -0.017 -3.612 -0.095 -6.88 -0.103 -10.424 0.026 -0.835 -0.021 -1.395 -0.022 -2.195 -0.03 -0.555 -0.103 -0.87 -0.105 -1.445 -0.857 -0.7 -1.787 -1.138 -2.942 -1.667 -0.548 -0.066 -0.87 -0.04 -1.374 -0.086 -0.314 -0.05 -0.443 -0.027 -0.84 -0.114 -3.298 -0.304 -3.488 -2.792 -4.142 -4.905a78.75 78.75 0 0 1 2.582 -2.317c0.582 -0.077 0.953 -0.034 1.509 -0.015 7.005 0.011 13.824 0.046 20.643 0.088 3.185 0.019 5.337 1.161 4.853 5.175 -1.333 0.895 -2.368 1.42 -3.747 1.884 -3.268 -0.06 -6.192 -0.06 -9.611 -0.06 0.343 1.236 0.584 2.105 0.779 3.26 0.035 5.495 -0.009 10.714 0.33 15.908 0.052 0.802 1.857 1.49 2.851 2.231 7.261 -0.157 14.522 -0.313 22.442 -0.47 1.442 -0.81 2.845 -1.577 2.902 -2.434 0.263 -3.96 -0.028 -7.957 0.236 -11.917 0.193 -2.881 -0.707 -4.587 -3.658 -4.376 -2.755 0.197 -4.657 -0.779 -6.03 -3.059 -0.468 -3.043 1.281 -4.417 3.917 -4.526 5.348 -0.22 10.709 -0.255 16.061 -0.167 2.635 0.044 4.952 0.915 5.038 4.625 -0.983 1.102 -1.784 2.231 -2.657 2.289 -4.079 0.274 -5.06 2.704 -4.961 6.232 0.065 2.357 -0.117 4.72 -0.15 7.082 -0.15 10.923 -0.268 21.847 -0.448 32.769 -0.032 1.927 0.438 2.955 2.569 2.096 3.14 -0.257 5.803 0.335 6.773 4.323 -0.605 1.21 -1.157 1.936 -2.008 2.75 -7.264 0.33 -14.226 0.572 -21.253 0.58 -0.58 -1.242 -1.095 -2.25 -1.609 -3.259 0.559 -2.523 1.865 -4.155 5.293 -3.931 1.332 -1.129 2.675 -2.24 2.732 -3.412 0.232 -4.783 0.072 -9.584 0.154 -14.696 0.645 -2.802 -0.271 -3.475 -2.826 -3.37 -7.025 0.286 -14.072 0.462 -21.094 0.228 -3.39 -0.113 -4.578 1.054 -4.405 4.545 -0.127 5.04 -0.167 9.735 -0.294 14.426 -0.051 1.85 0.399 2.933 2.519 2.287" stroke-width="0.75"/><path fill="#CF1529" opacity="1.000000" stroke="none" d="M89.914 27.225c11.737 -0.135 23.387 -0.071 35.03 -0.343 3.01 -0.071 5.058 0.625 6.375 3.92 0.079 1.862 0.108 3.149 0.109 4.748 0.041 4.027 0.477 7.792 -0.006 11.434 -0.185 1.398 -2.465 2.518 -3.791 3.765 -1.287 -1.431 -3.225 -2.676 -3.703 -4.34 -0.661 -2.302 -0.223 -4.92 -0.215 -7.725 0.695 -3.423 -0.745 -4.162 -3.634 -4.072 -4.856 0.153 -9.736 0.11 -14.584 -0.203 -3.143 -0.202 -4.147 0.906 -3.538 4.192 -0.149 5.363 -0.103 10.384 -0.403 15.386 -0.15 2.503 1.157 2.232 3.042 2.107 0.947 0.122 1.564 0.178 2.183 0.201 4.976 0.181 5.468 -0.375 4.801 -5.447 -0.048 -0.364 -0.27 -0.712 -0.282 -1.073 -0.091 -2.71 1.23 -3.829 3.91 -3.473 3.235 0.429 3.354 3.166 4.048 5.782 -0.015 2.867 0.032 5.393 0.064 8.22 0.093 1.092 0.203 1.884 0.22 2.996 -0.167 1.914 0.15 3.673 -0.432 5.054 -0.593 1.403 -2.083 3.401 -3.157 3.386 -1.41 -0.019 -2.884 -1.656 -4.144 -2.801 -0.43 -0.39 -0.298 -1.398 -0.338 -2.43 -0.508 -1.095 -0.989 -2.413 -1.715 -2.567 -1.636 -0.344 -3.403 -0.004 -5.101 -0.137 -2.816 -0.219 -4.154 0.84 -3.716 4.101 0.045 4.069 0.231 7.801 0.238 11.535 0.004 1.962 0.894 2.031 2.677 1.49 6.861 -0.219 13.378 -0.472 20.201 -0.65 0.79 -0.613 1.696 -1.309 1.685 -1.99 -0.042 -2.603 -0.379 -5.2 -0.602 -8.112 0.046 -1.34 0.09 -2.366 0.133 -3.394 0.616 -0.448 1.233 -0.896 2.334 -1.449 1.261 -0.041 2.039 0.025 2.817 0.09 0.742 1.522 1.485 3.045 2.301 5.141 0.264 2.05 0.649 3.532 0.61 5.004a108 108 0 0 1 -0.906 11.45c-1.871 0.354 -3.434 0.814 -5.01 0.859 -4.196 0.124 -8.399 0.015 -12.597 0.097 -9.035 0.175 -18.069 0.412 -27.251 0.408a321.75 321.75 0 0 1 -1.791 -2.899c1.248 -1.405 2.496 -2.812 4.307 -4.27 3.212 0.293 2.814 -1.576 2.871 -3.174 0.298 -8.299 0.652 -16.596 0.919 -24.896 0.16 -4.945 0.199 -9.893 0.356 -15.112 0.639 -4.158 -2.332 -2.698 -4.297 -3.195 -1.069 -0.978 -1.949 -1.799 -2.829 -2.621 0.727 -1.538 1.453 -3.077 2.348 -4.819 0.167 -0.206 0.373 -0.104 0.463 -0.177" stroke-width="0.75"/><path fill="#FFFFFD" opacity="1.000000" stroke="none" d="M209.002 28.4c2.912 -0.222 5.572 -0.548 8.235 -0.574 2.81 -0.026 5.407 0.576 6.168 4.366 -0.265 1.042 -0.484 1.605 -0.979 2.239 -2.47 0.744 -4.663 1.417 -7.305 2.228 1.147 1.423 2.127 2.638 3.207 4.089 1.282 1.846 2.466 3.456 3.649 5.067 0.681 1.089 1.363 2.178 2.269 3.704 1.212 1.715 2.199 2.994 3.597 4.806l2.483 -4.048A2297.25 2297.25 0 0 1 240.255 38.49c1.711 -1.646 3.12 -2.989 5.176 -4.947 -2.602 -0.605 -4.107 -0.753 -5.432 -1.321 -1.319 -0.566 -2.458 -1.553 -3.675 -2.356 -0.351 -3.164 1.562 -4.437 4.23 -4.296 6.904 0.364 13.835 0.729 20.66 1.74 1.813 0.269 3.28 2.873 4.853 4.868 -0.487 1.074 -0.919 1.683 -1.641 2.353 -1.974 0.109 -3.705 0.427 -5.333 0.148 -2.79 -0.478 -5.002 -0.109 -6.928 2.238 -6.118 7.459 -12.455 14.741 -18.5 22.257 -1.103 1.369 -1.232 3.521 -1.832 5.636 0.215 5.78 0.551 11.232 0.649 16.689 0.05 2.747 1.28 3.548 3.758 3.069 3.047 0.083 6.058 0.226 6.752 4.65 -0.506 1.331 -0.989 2.143 -1.826 2.97 -5.445 0.055 -10.538 0.115 -15.63 0.132 -2.415 0.007 -4.832 -0.065 -7.355 -0.314 -0.545 -1.063 -0.983 -1.912 -1.42 -2.76 -0.385 -2.995 1.731 -3.724 4.468 -4.402 0.852 -0.055 1.185 -0.068 1.815 -0.113 0.833 -0.769 1.845 -1.51 1.834 -2.236 -0.095 -5.749 -0.383 -11.495 -0.606 -17.531 -0.67 -1.847 -1.125 -3.553 -2.058 -4.936a1077 1077 0 0 0 -13.817 -19.955c-1.047 -1.478 -2.463 -2.696 -4.022 -4.048 -2.16 0.158 -4.006 0.488 -5.85 0.47 -3.387 -0.032 -4.931 -2.02 -4.507 -5.516 0.504 -0.65 1.007 -1.3 1.641 -2.157 0.453 -0.224 0.777 -0.243 1.693 -0.26 3.86 -0.053 7.129 -0.107 10.397 -0.162 0.335 0.01 0.67 0.019 1.254 0" stroke-width="0.75"/><path fill="#FDF2B7" opacity="1.000000" stroke="none" d="M207.733 28.119c-3.253 0.337 -6.522 0.391 -10.14 0.435 1.596 -2.039 8.535 -2.506 10.14 -0.435" stroke-width="0.75"/><path fill="#FCD11A" opacity="1.000000" stroke="none" d="M193.696 30.937c-0.103 3.539 1.441 5.527 4.827 5.559 1.844 0.017 3.691 -0.313 5.774 -0.205 -2.022 1.042 -4.28 1.802 -7.037 2.732 -0.118 1.163 -0.287 2.821 -0.521 4.796 -0.377 2.026 -0.829 3.725 -0.976 5.45 -0.834 9.797 -1.485 19.611 -2.434 29.396 -0.393 4.051 -1.373 8.046 -2.326 12.162 -2.68 2.194 -4.6 1.363 -5.985 -1.109 -1.448 -2.586 -2.588 -5.345 -4.03 -7.935 -6.629 -11.912 -13.313 -23.794 -19.997 -35.676 -0.308 -0.547 -0.81 -0.987 -1.688 -2.03 0 4.092 0 7.399 -0.078 11.047 -0.398 8.39 -0.772 16.437 -0.987 24.489 -0.038 1.411 -0.432 3.557 2.473 3.368 0.568 -0.112 0.932 -0.283 1.297 -0.455 2.921 -0.105 5.213 0.747 5.899 4.407 -0.532 1.309 -0.989 2.138 -1.768 3.009 -1.8 0.228 -3.273 0.544 -4.751 0.572 -6.292 0.118 -12.585 0.151 -18.992 -0.003 -0.386 -0.818 -0.655 -1.416 -0.925 -2.014 -0.01 -2.83 1.585 -4.103 4.749 -4.371 0.847 -0.024 1.175 -0.03 1.686 0.106 4.375 -0.173 2.069 -3.245 2.141 -4.988 0.557 -13.406 0.904 -26.82 1.349 -40.563 0.765 -4.131 -0.85 -5.417 -4.579 -5.014 -1.646 0.178 -3.375 -0.421 -5.152 -0.881 -0.541 -0.814 -0.996 -1.414 -1.466 -2.272a18.75 18.75 0 0 0 -0.209 -1.271c1.141 -1.005 2.265 -2.843 3.428 -2.868 4.96 -0.107 9.954 0.128 14.884 0.686 1.265 0.144 2.773 1.709 3.435 2.998 2.843 5.538 5.411 11.216 8.281 17.284a44.25 44.25 0 0 0 1.597 2.507 5131.5 5131.5 0 0 0 9.668 17.046c1.605 2.587 2.955 4.771 4.305 6.955 0.994 -2.899 1.263 -5.669 1.484 -8.444 0.602 -7.54 1.182 -15.082 1.821 -22.948 0.05 -1.483 0.05 -2.641 0.05 -3.77 -2.245 -0.268 -4.034 -0.48 -5.939 -0.876a65.25 65.25 0 0 0 -1.519 -1.814c-0.154 -2.877 1.087 -4.467 4.08 -4.595 2.606 -0.11 5.207 -0.336 8.132 -0.467" stroke-width="0.75"/><path fill="#083BA8" opacity="1.000000" stroke="none" d="M264.163 47.255c0.208 -0.247 0.416 -0.495 0.886 -1.07 1.933 -2.816 3.605 -5.304 5.277 -7.793 5.295 -6.004 12.026 -9.343 19.923 -9.77 4.627 -0.251 9.433 -0.065 13.937 0.93 6.94 1.531 11.927 6.221 15.974 12.487 0.572 1.129 1.032 1.795 1.492 2.459 0.088 0.378 0.176 0.757 0.494 1.528 1.233 7.405 2.235 14.417 3.047 21.613 -1.78 3.316 -3.368 6.448 -5.107 9.655 -0.35 0.237 -0.413 0.44 -0.436 0.862 -0.117 0.312 -0.137 0.446 -0.374 0.705 -2.777 2.793 -4.942 6.079 -7.97 8.014 -9.144 5.84 -19.353 5.114 -29.267 2.808 -5.795 -1.348 -11.816 -3.362 -15.13 -9.566 -1.98 -5.895 -3.907 -11.522 -5.819 -17.484 1.035 -5.349 2.054 -10.364 3.073 -15.378m8.605 1.706c-0.176 0.128 -0.251 0.3 -0.474 0.91 -0.045 0.307 -0.09 0.615 -0.559 1.182 -0.304 0.735 -0.609 1.47 -1.185 2.728 -2.686 7.48 -1.211 14.475 2.52 21.738 1.557 4.409 5.522 5.554 9.36 6.491 15.513 3.791 25.066 2.395 33.259 -11.732 3.879 -7.232 2.019 -14.396 -0.245 -21.866A0.675 0.675 0 0 0 315 48s0.007 -0.007 -0.047 -0.529c-2.73 -4.89 -6.18 -8.533 -11.757 -10.787 -10.942 -4.425 -25.418 0.971 -30.192 12.102 0 0 0.028 0.045 -0.235 0.176" stroke-width="0.75"/><path fill="#FFF4B8" opacity="1.000000" stroke="none" d="M87.778 63.242c-0.022 3.851 -0.209 7.362 0.022 10.845 0.235 3.542 -0.76 6.389 -3.575 8.553 -1.44 1.107 -2.207 3.502 -4.908 2.08 -2.522 -1.328 -4.583 -2.348 -4.422 -5.977 0.342 -7.731 0.217 -15.491 0.068 -23.235 -0.117 -6.045 1.61 -11.186 6.558 -14.863 0.766 -0.57 2.828 -0.722 3.238 -0.215 1.715 2.119 4.137 4.505 4.258 6.898 0.261 5.152 -0.737 10.37 -1.239 15.913" stroke-width="0.75"/><path fill="#FFF4B8" opacity="1.000000" stroke="none" d="M130.565 65.233c-0.924 0.131 -1.702 0.065 -2.772 -0.022 -0.765 -0.532 -1.28 -1.006 -1.695 -1.558 -0.551 -0.732 -1.556 -1.661 -1.403 -2.257 0.223 -0.862 1.184 -1.748 2.051 -2.189 1.853 -0.944 4.065 -1.297 5.742 -2.453 3.863 -2.665 4.314 -6.96 4.819 -11.224 0.2 -1.696 -1.462 -4.375 1.68 -4.89 2.861 -0.468 7.092 2.661 7.196 5.237 0.167 4.108 0.149 8.229 0.039 12.341 -0.165 6.207 -0.236 12.435 -0.855 18.603 -0.219 2.187 -1.486 4.68 -3.074 6.201 -1.534 1.471 -3.368 0.975 -3.6 -1.946 -0.256 -3.198 -0.68 -6.452 -1.602 -9.509 -0.938 -3.109 -2.045 -6.529 -6.527 -6.334" stroke-width="0.75"/><path fill="#F6EBAF" opacity="1.000000" stroke="none" d="M160.506 82.92c-2.702 0.25 -2.308 -1.896 -2.27 -3.308 0.215 -8.052 0.589 -16.099 1.263 -24.498 1.804 0.377 3.867 0.717 4.606 1.891 4.379 6.955 8.449 14.105 12.626 21.188 2.839 4.812 5.567 9.697 8.617 14.37 0.643 0.986 2.682 1.871 3.706 1.564 0.982 -0.295 1.479 -2.199 2.19 -3.396 0.712 -4.02 1.691 -8.014 2.084 -12.066 0.949 -9.784 1.6 -19.598 2.434 -29.396 0.147 -1.725 0.599 -3.425 1.222 -5.509 4.678 -4.086 9.884 -3.144 12.448 1.686 2.086 3.929 4.853 7.52 7.537 11.097 2.269 3.026 4.851 5.817 7.295 8.711 0.229 5.747 0.518 11.492 0.613 17.241 0.012 0.725 -1.001 1.467 -1.833 1.952 -0.295 -0.815 -0.295 -1.382 -0.295 -1.948 -0.218 -3.294 -0.436 -6.588 -0.506 -10.396 0.813 -5.121 -2.711 -11.581 -6.992 -13.605 0 0 0 -0.375 -0.035 -0.823 -2.408 -4.099 -4.543 -7.944 -7.26 -11.319 -1.294 -1.607 -3.685 -3.205 -5.6 -3.231 -2.825 -0.04 -3.971 2.747 -4.256 5.355 -0.419 3.825 -0.578 7.678 -0.847 11.52 -0.001 0.333 -0.002 0.666 -0.204 1.469 -0.317 2.323 -0.431 4.178 -0.547 6.031 0 0.8 -0.001 1.6 -0.207 2.929 -0.819 6.438 -1.354 12.357 -2.078 18.253 -0.416 3.378 -1.708 6.449 -5.478 7.174 -3.533 0.679 -5.087 -2.274 -6.53 -4.622 -2.8 -4.553 -5.174 -9.366 -7.889 -13.976 -0.833 -1.414 -2.198 -2.516 -3.319 -3.761 0 0 0 -0.375 -0.035 -0.829 -2.08 -4.133 -4.088 -7.835 -6.216 -11.466 -0.307 -0.524 -1.331 -1.117 -1.769 -0.962 -0.668 0.237 -1.555 1.075 -1.589 1.7 -0.38 6.988 -0.613 13.985 -0.886 20.977" stroke-width="0.75"/><path fill="#FBEFB4" opacity="1.000000" stroke="none" d="M119.63 62.982c-0.109 -0.792 -0.218 -1.584 -0.034 -2.766 1.34 -3.171 2.321 -5.947 -0.277 -8.471 -0.758 -2.276 -0.877 -5.013 -4.112 -5.443 -2.68 -0.356 -4.001 0.763 -3.91 3.474 0.012 0.36 0.234 0.708 0.282 1.072 0.667 5.072 0.175 5.628 -4.801 5.447 -0.617 -0.022 -1.234 -0.079 -2.186 -0.537 -0.336 -4.292 -0.499 -8.176 -0.252 -12.034 0.083 -1.277 1.141 -3.5 1.889 -3.559 4.381 -0.343 8.914 -0.772 13.175 0.016 3.377 0.625 1.655 4.431 2.199 6.824 0.22 0.97 0.134 2.198 0.706 2.863 1.44 1.674 2.961 3.763 4.87 4.375 1.211 0.387 3.897 -1.172 4.671 -2.558 2.84 -5.083 2.083 -10.548 0.546 -15.913 -0.071 -0.247 -0.616 -0.36 -0.941 -0.535 -0.029 -1.286 -0.058 -2.573 -0.032 -4.178 1.001 0.636 2.723 1.558 2.764 2.55 0.242 5.894 0.569 11.857 -0.086 17.689 -0.439 3.91 -3.741 5.68 -7.726 5.119 -2.326 -0.327 -3.521 0.625 -3.57 2.606 -0.063 2.585 -0.687 5.512 2.292 7.549 0.127 1.24 0.083 2.267 -0.223 3.655 -3.542 1.894 -0.241 4.387 -1.388 6.217 -1.588 -0.519 -2.915 -0.984 -4.203 -1.723 3.012 -5.509 3.098 -8.719 0.346 -11.742" stroke-width="0.75"/><path fill="#F9EEB4" opacity="1.000000" stroke="none" d="M325.385 67.456c-1.003 -7.012 -2.006 -14.025 -3.073 -21.323 0.74 0.368 1.998 0.87 2.278 1.703 3.332 9.874 6.174 19.759 0.694 29.902 -6.987 12.933 -17.197 20.644 -32.418 19.688 -9.239 -0.581 -18.699 -1.802 -25.42 -9.018 -9.055 -9.723 -11.312 -25.983 -6.003 -38.204 0.465 -1.07 1.44 -1.919 2.449 -2.91 -0.748 4.976 -1.766 9.991 -3.017 15.555 -1.169 7.835 1.434 14.232 4.947 20.324 0.728 1.264 2.266 2.061 3.522 3.23 0.241 0.352 0.43 0.497 0.691 0.853 1.064 1.282 1.915 2.692 3.154 3.262 12.81 5.907 25.725 7.502 38.611 0.244 1.048 -0.591 1.64 -1.994 2.65 -3.127 0.815 -0.788 1.426 -1.466 2.296 -2.176 3.139 -4.526 6.162 -8.94 8.795 -13.576 0.621 -1.093 -0.069 -2.932 -0.157 -4.427" stroke-width="0.75"/><path fill="#F9EEB4" opacity="1.000000" stroke="none" d="M270.206 38.093c-1.551 2.788 -3.223 5.277 -5.109 7.934 -0.507 -4.777 -5.106 -6.889 -9.759 -3.853 -2.317 1.513 -4.164 3.821 -6.032 5.939 -3.69 4.181 -7.226 8.498 -10.864 12.725 -3.127 3.634 -4.048 7.656 -3.097 12.415 0.699 3.493 0.61 7.143 0.884 11.019 -2.468 0.776 -3.697 -0.026 -3.748 -2.772 -0.098 -5.457 -0.433 -10.909 -0.401 -16.725 5.107 -6.152 9.911 -11.97 14.794 -17.723 3.9 -4.592 7.178 -10.1 14.755 -8.946 1.712 0.261 3.97 -0.796 3.084 -3.635 0.433 -0.61 0.865 -1.219 1.397 -2.029 1.391 1.65 2.683 3.5 4.096 5.65" stroke-width="0.75"/><path fill="#F7EAB1" opacity="1.000000" stroke="none" d="M85.56 85.585c0.763 0.798 1.311 1.692 2.023 3.085 0.992 3.802 3.823 3.54 6.154 3.512 7.435 -0.085 14.866 -0.467 22.301 -0.674 3.107 -0.086 6.308 0.437 9.301 -0.154 2.788 -0.551 6.925 0.327 7.387 -4.414 0.213 -3.788 0.502 -7.575 0.603 -11.366 0.039 -1.472 -0.345 -2.954 -0.52 -4.754 4.151 3.344 3.817 8.41 3.446 13.022 -0.81 10.07 -5.201 9.716 -14.291 10.565 -7.406 0.692 -14.893 0.823 -22.335 0.706 -4.009 -0.063 -8.151 -0.707 -11.955 -1.942 -3.353 -1.09 -4.04 -4.48 -2.114 -7.584" stroke-width="0.75"/><path fill="#F2E8B2" opacity="1.000000" stroke="none" d="M16.512 30.86c0.721 1.809 0.911 4.297 4.271 4.71 0.54 0.173 0.751 0.124 0.962 0.077 0.321 -0.026 0.642 -0.053 1.265 0.213 1.134 0.77 1.965 1.249 2.797 1.73 0.073 0.314 0.146 0.628 0.032 1.336 -0.093 1.035 0 1.676 0.095 2.317 0.079 3.268 0.158 6.537 0.068 10.224 -0.096 0.629 -0.026 0.84 0.045 1.05 -0.088 9.788 -0.083 19.58 -0.358 29.362 -0.046 1.638 1.868 4.548 -2.186 4.906 -0.011 -10.793 0.321 -21.593 0.453 -32.393 0.039 -3.202 -0.179 -6.481 -0.883 -9.589 -0.358 -1.579 -1.815 -3.177 -3.192 -4.21 -4.206 -3.157 -4.798 -4.435 -3.368 -9.735" stroke-width="0.75"/><path fill="#F2E8B2" opacity="1.000000" stroke="none" d="M62.012 67.526c0.017 4.794 0.178 9.596 -0.055 14.378 -0.057 1.174 -1.4 2.284 -2.441 3.344 -0.032 -3.422 0.41 -6.763 0.431 -10.106 0.025 -3.619 -1.68 -5.277 -5.272 -5.363 -4.493 -0.106 -8.992 -0.075 -13.487 -0.007 -3.3 0.05 -5.091 1.827 -5.166 5.133 -0.074 3.245 -0.015 6.494 -0.012 10.08 -2.118 0.984 -2.568 -0.098 -2.517 -1.948 0.128 -4.692 0.167 -9.386 0.576 -14.477 9.482 -2.983 18.712 -2.013 27.944 -1.033" stroke-width="0.75"/><path fill="#F0E6B1" opacity="1.000000" stroke="none" d="M72.02 84.495c-2.122 1.217 -2.591 0.19 -2.56 -1.739 0.18 -10.922 0.297 -21.846 0.448 -32.769 0.033 -2.361 0.215 -4.724 0.15 -7.082 -0.099 -3.529 0.883 -5.959 4.961 -6.232 0.874 -0.058 1.675 -1.187 2.692 -2.017 3.091 2.549 0.943 4.884 -0.994 6.293 -3.105 2.26 -4.01 4.942 -4.035 8.59 -0.076 11.534 -0.427 23.065 -0.663 34.955" stroke-width="0.75"/><path fill="#F7EAB0" opacity="1.000000" stroke="none" d="M86.831 32.285c1.153 0.758 2.033 1.579 3.101 2.83 1.536 1.351 2.885 2.272 4.234 3.195 -0.094 4.946 -0.133 9.895 -0.292 14.84 -0.268 8.3 -0.621 16.597 -0.919 24.896 -0.057 1.597 0.341 3.467 -2.63 3.053 0.42 -10.691 1.27 -21.309 1.85 -31.942 0.205 -3.747 -0.569 -7.287 -3.785 -10.015 -1.953 -1.656 -4.335 -3.705 -1.558 -6.856" stroke-width="0.75"/><path fill="#F8ECAE" opacity="1.000000" stroke="none" d="M140.21 30.77c0.456 0.6 0.911 1.2 1.46 2.301 0.821 1.338 1.389 2.502 2.307 2.951 2.379 1.164 4.912 2.014 7.384 2.989 -0.413 13.412 -0.758 26.826 -1.316 40.232 -0.072 1.743 2.235 4.816 -2.123 4.665 0.332 -10.277 0.83 -20.093 1.328 -29.908 0 -1.042 0 -2.083 0.183 -3.605 0.061 -1.368 -0.06 -2.257 -0.182 -3.145v-1.56c0.44 -4.057 -1.19 -5.917 -4.447 -7.139 -5.051 -1.893 -5.957 -3.757 -4.593 -7.781" stroke-width="0.75"/><path fill="#F9EDAD" opacity="1.000000" stroke="none" d="M188.841 42.782c-0.589 7.541 -1.17 15.083 -1.77 22.624 -0.221 2.775 -0.491 5.545 -1.484 8.444 -1.35 -2.185 -2.7 -4.369 -4.098 -6.815 2.218 -0.503 2.963 -1.739 3.091 -4.021 0.221 -3.942 0.852 -7.864 1.374 -11.786 0.439 -3.3 -0.3 -5.972 -2.994 -8.278 -1.934 -1.657 -4.45 -3.652 -1.74 -6.887 0.732 0.477 1.2 1.021 1.778 2.027 2.021 1.873 3.932 3.282 5.844 4.691" stroke-width="0.75"/><path fill="#F6ECB3" opacity="1.000000" stroke="none" d="M16.907 91.552c0.74 0.742 1.235 1.543 1.84 2.849 0.754 3.064 2.744 3.203 4.829 3.079 3.84 -0.229 7.695 -0.367 11.512 -0.81 2.761 -0.321 5.458 -1.095 6.15 -4.447 0.394 -0.634 0.788 -1.268 1.339 -2.063 2.237 1.862 2.143 4.681 -0.363 6.592 -1.34 1.022 -3.026 1.933 -4.66 2.167 -5.007 0.714 -10.087 1.575 -15.092 1.349 -2.239 -0.102 -4.635 -2.403 -6.401 -4.244 -0.64 -0.666 0.352 -2.898 0.847 -4.471" stroke-width="0.75"/><path fill="#F7ECB3" opacity="1.000000" stroke="none" d="M53.662 89.327c0.784 0.929 1.299 1.937 1.881 3.473 1.511 1.416 2.901 2.942 4.41 3.071 4.162 0.355 8.374 0.158 12.565 0.113 2.702 -0.028 4.433 -1.237 4.577 -4.145 0.551 -0.726 1.103 -1.452 1.757 -2.386 2.379 1.901 1.905 5.231 -1.067 7.315 -0.903 0.633 -2.005 1.371 -3.024 1.383 -6.022 0.071 -12.128 0.512 -18.045 -0.315 -4.067 -0.567 -5.123 -4.458 -3.055 -8.508" stroke-width="0.75"/><path fill="#F8EDB2" opacity="1.000000" stroke="none" d="M141.241 88.567c0.497 0.527 0.767 1.127 1.187 2.216 1.633 1.564 3.092 3.512 4.603 3.553 5.137 0.139 10.33 -0.138 15.421 -0.836 1.473 -0.201 2.68 -2.348 4.009 -3.602 0.457 -0.828 0.913 -1.656 1.485 -2.691 2.415 2.243 1.6 6.634 -1.987 7.701 -7.012 2.085 -14.261 3.673 -21.612 1.723 -3.858 -1.023 -5.296 -4.9 -3.104 -8.063" stroke-width="0.75"/><path fill="#F2E8B2" opacity="1.000000" stroke="none" d="M36.752 56.41c-0.977 -0.443 -2.782 -1.131 -2.834 -1.933 -0.338 -5.193 -0.294 -10.412 -0.013 -15.925 2.193 -0.555 4.078 -0.617 5.833 -1.125 1.109 -0.322 2.024 -1.309 3.026 -1.997 1.034 -0.524 2.069 -1.048 3.339 -1.653 2.538 0.51 2.326 2.284 1.088 3.223 -2.178 1.65 -4.65 3.243 -7.245 3.925 -3.034 0.799 -4.211 2.234 -3.958 5.203 0.285 3.325 0.5 6.656 0.763 10.283" stroke-width="0.75"/><path fill="#F8EEB3" opacity="1.000000" stroke="none" d="M216.485 89.317c0.714 0.778 1.151 1.627 1.519 2.853 0.308 3.498 2.724 3.75 5.05 3.793 4.521 0.086 9.067 0.223 13.558 -0.167 1.998 -0.173 5.133 0.058 4.908 -3.623 0.483 -0.813 0.967 -1.626 1.5 -2.676 2.67 2.048 1.814 4.309 -0.238 6.265 -3.462 3.3 -20.888 4.079 -24.652 1.117 -2.464 -1.939 -4.3 -4.224 -1.645 -7.563" stroke-width="0.75"/><path fill="#FBF0B5" opacity="1.000000" stroke="none" d="M171.034 73.765c1.089 0.978 2.454 2.08 3.286 3.495 2.714 4.609 5.089 9.421 7.889 13.975 1.444 2.348 2.997 5.301 6.53 4.622 3.769 -0.725 5.063 -3.795 5.477 -7.174 0.724 -5.895 1.259 -11.815 2.078 -17.953 0.123 4.636 0.194 9.511 -0.105 14.364 -0.158 2.561 -0.635 5.202 -1.531 7.596 -1.984 5.298 -7.252 6.371 -11.323 2.498 -0.895 -0.851 -1.871 -1.724 -2.45 -2.782 -3.332 -6.091 -6.557 -12.242 -9.851 -18.64" stroke-width="0.75"/><path fill="#F2E8B2" opacity="1.000000" stroke="none" d="M52.385 34.515c1.647 2.216 3.55 3.192 6.305 2.996 2.95 -0.21 3.851 1.496 3.658 4.376 -0.265 3.96 0.027 7.957 -0.236 11.917 -0.057 0.857 -1.46 1.624 -2.557 2.373 -0.065 -3.388 0.46 -6.729 0.283 -10.034 -0.063 -1.175 -1.732 -2.366 -2.839 -3.358 -1.711 -1.533 -3.809 -2.703 -5.245 -4.439 -0.569 -0.688 0.196 -2.478 0.63 -3.829" stroke-width="0.75"/><path fill="#FBF0B5" opacity="1.000000" stroke="none" d="M160.708 82.98c0.071 -7.054 0.304 -14.051 0.684 -21.038 0.035 -0.625 0.921 -1.462 1.59 -1.7 0.437 -0.155 1.462 0.438 1.768 0.962 2.128 3.631 4.136 7.333 6.215 11.279 -1.681 -1.916 -3.344 -4.144 -5.143 -6.256 -0.563 -0.66 -1.48 -1.337 -2.259 -1.365 -0.452 -0.015 -1.34 1.23 -1.364 1.93 -0.17 5.03 -0.167 10.067 -0.207 15.417 -0.352 0.488 -0.718 0.658 -1.285 0.77" stroke-width="0.75"/><path fill="#FBF0B5" opacity="1.000000" stroke="none" d="M197.539 59.92c-0.017 -3.761 0.143 -7.614 0.561 -11.44 0.285 -2.607 1.432 -5.394 4.256 -5.355 1.915 0.027 4.306 1.624 5.599 3.232 2.718 3.375 4.853 7.22 7.26 11.132 -1.093 -0.785 -2.4 -1.696 -3.31 -2.906 -1.715 -2.276 -3.019 -4.878 -4.853 -7.041 -0.98 -1.155 -2.868 -2.495 -4.052 -2.262 -1.296 0.256 -2.78 2.061 -3.24 3.493 -0.742 2.31 -0.663 4.875 -1.031 7.318 -0.191 1.266 -0.596 2.5 -1.19 3.829" stroke-width="0.75"/><path fill="#FBEFB4" opacity="1.000000" stroke="none" d="M148.96 54.082c-0.208 9.733 -0.705 19.548 -1.221 29.685 -0.347 0.329 -0.675 0.334 -1.245 0.3 0.257 -9.124 0.736 -18.209 1.292 -27.289 0.054 -0.886 0.578 -1.743 1.174 -2.696" stroke-width="0.75"/><path fill="#F2E8B2" opacity="1.000000" stroke="none" d="M236.207 30.119c1.333 0.55 2.471 1.537 3.791 2.103 1.325 0.568 2.83 0.716 5.432 1.321 -2.055 1.958 -3.465 3.3 -5.128 4.691 -2.069 -2.34 -5.486 -3.928 -4.095 -8.115" stroke-width="0.75"/><path fill="#FBEFB4" opacity="1.000000" stroke="none" d="M140.197 30.512c-1.352 4.282 -0.446 6.146 4.606 8.039 3.258 1.221 4.887 3.083 4.447 6.888 -1.835 -3.994 -6.204 -5.415 -9.45 -8.136 -3.3 -2.767 -3.194 -5.464 -0.072 -8.045 0.326 0.32 0.39 0.657 0.469 1.253" stroke-width="0.75"/><path fill="#F9EEB4" opacity="1.000000" stroke="none" d="M222.703 34.361c0.218 -0.563 0.437 -1.127 0.756 -1.896 4.027 1.689 1.09 4.058 0.507 6.223 -0.587 2.182 -1.31 4.326 -1.982 6.807 -1.19 -1.29 -2.374 -2.901 -3.431 -4.864 1.467 -2.325 2.808 -4.298 4.15 -6.27" stroke-width="0.75"/><path fill="#FBF0B5" opacity="1.000000" stroke="none" d="M215.285 58.759c4.247 1.764 7.771 8.224 6.913 13.037 -2.424 -4.121 -4.652 -8.448 -6.913 -13.037" stroke-width="0.75"/><path fill="#F9EEB4" opacity="1.000000" stroke="none" d="M230.011 50.268c-0.404 1.181 -1.122 2.353 -2.167 4.057 -1.398 -1.812 -2.385 -3.091 -3.47 -4.596 1.708 0.026 3.515 0.278 5.637 0.539" stroke-width="0.75"/><path fill="#FBF0B5" opacity="1.000000" stroke="none" d="M196.778 67.427c-0.161 -1.78 -0.046 -3.635 0.271 -5.708 0.137 1.732 0.071 3.683 -0.27 5.708" stroke-width="0.75"/><path fill="#FBEFB4" opacity="1.000000" stroke="none" d="M149.068 47.417q0.458 1.081 0.365 2.665 -0.458 -1.081 -0.365 -2.665" stroke-width="0.75"/><path fill="#FBF0B5" opacity="1.000000" stroke="none" d="M222.495 82.551c0.254 0.515 0.254 1.081 0.254 1.931 -0.335 0.295 -0.668 0.307 -1.252 0.317 0.081 -0.734 0.413 -1.465 0.998 -2.248" stroke-width="0.75"/><path fill="#F9EEB4" opacity="1.000000" stroke="none" d="M321.673 44.225c-0.48 -0.391 -0.941 -1.056 -1.368 -1.974 0.485 0.398 0.936 1.048 1.368 1.974" stroke-width="0.75"/><path fill="#F9EDAD" opacity="1.000000" stroke="none" d="M171.645 49.551c-0.495 -0.392 -0.96 -1.08 -1.46 -2.017 0.474 0.408 0.982 1.063 1.46 2.017" stroke-width="0.75"/><path fill="#E0D7AA" opacity="1.000000" stroke="none" d="M62.111 67.207c-9.33 -0.661 -18.56 -1.631 -27.992 1.004 -0.506 -3.091 0.682 -4.26 4.072 -4.146 7.022 0.234 14.069 0.058 21.094 -0.228 2.554 -0.104 3.472 0.569 2.826 3.37" stroke-width="0.75"/><path fill="#E4DBAC" opacity="1.000000" stroke="none" d="M40.975 92.295c-0.43 3.28 -3.126 4.054 -5.887 4.375 -3.817 0.443 -7.673 0.581 -11.512 0.81 -2.085 0.124 -4.075 -0.015 -4.734 -2.862 4.742 -0.626 9.504 -0.916 14.257 -1.316 2.546 -0.214 5.077 -0.616 7.877 -1.006" stroke-width="0.75"/><path fill="#EBE1AC" opacity="1.000000" stroke="none" d="M76.794 91.926c0.158 2.819 -1.573 4.029 -4.275 4.058 -4.192 0.044 -8.404 0.24 -12.566 -0.114 -1.509 -0.128 -2.899 -1.655 -4.345 -2.837 6.96 -0.535 13.922 -0.777 21.186 -1.107" stroke-width="0.75"/><path fill="#E7DEAB" opacity="1.000000" stroke="none" d="M42.42 35.37c-0.658 0.748 -1.573 1.736 -2.682 2.056 -1.755 0.509 -3.641 0.57 -5.788 0.84 -0.557 -0.851 -0.799 -1.72 -1.141 -2.957 3.418 0 6.343 0 9.611 0.06" stroke-width="0.75"/><path fill="#CAC3AB" opacity="1.000000" stroke="none" d="M25.877 37.328c-0.902 -0.217 -1.733 -0.698 -2.64 -1.376a7.35 7.35 0 0 1 2.64 1.376" stroke-width="0.75"/><path fill="#CAC3AB" opacity="1.000000" stroke="none" d="M26.005 40.969c-0.165 -0.367 -0.259 -1.008 -0.21 -1.802 0.189 0.407 0.235 0.968 0.21 1.802" stroke-width="0.75"/><path fill="#CAC3AB" opacity="1.000000" stroke="none" d="M21.561 35.575c-0.027 0.12 -0.238 0.167 -0.51 0.105 0.068 -0.132 0.197 -0.155 0.51 -0.105" stroke-width="0.75"/><path fill="#CAC3AB" opacity="1.000000" stroke="none" d="M26.093 52.322c-0.118 -0.015 -0.188 -0.226 -0.154 -0.512 0.138 0.055 0.17 0.185 0.154 0.512" stroke-width="0.75"/><path fill="#F5E6AD" opacity="1.000000" stroke="none" d="M131.428 35.55c0.352 -0.137 0.898 -0.025 0.969 0.223 1.537 5.365 2.295 10.83 -0.546 15.913 -0.774 1.385 -3.46 2.945 -4.671 2.558 -1.909 -0.611 -3.43 -2.7 -4.87 -4.375 -0.572 -0.664 -0.485 -1.893 -0.706 -2.863 -0.544 -2.393 1.177 -6.2 -2.199 -6.824 -4.261 -0.788 -8.794 -0.358 -13.175 -0.016 -0.748 0.058 -1.808 2.281 -1.889 3.559 -0.247 3.858 -0.084 7.741 -0.078 11.951 -1.552 0.543 -2.858 0.815 -2.708 -1.689 0.299 -5.001 0.254 -10.023 0.718 -15.398 7.41 -0.972 14.497 -2.738 21.401 0.416 0.032 2.482 -0.407 5.101 0.255 7.403 0.477 1.665 2.416 2.909 3.703 4.341 1.325 -1.247 3.605 -2.368 3.791 -3.766 0.483 -3.643 0.047 -7.408 0.006 -11.435" stroke-width="0.75"/><path fill="#FBF0B5" opacity="1.000000" stroke="none" d="M119.245 74.997c1.327 0.465 2.653 0.93 4.243 1.758 0.261 1.393 0.259 2.423 0.257 3.454 -6.517 0.253 -13.034 0.506 -19.948 0.427 -0.599 -2.646 -1.147 -5.002 -0.868 -7.257 0.159 -1.277 1.619 -3.296 2.594 -3.358 1.487 -0.094 3.17 1.057 4.575 1.978 1.659 1.085 3.111 2.486 4.688 3.964 0.273 0.443 0.511 0.67 0.748 0.898 0.238 -0.37 0.478 -0.741 0.974 -1.142 1.084 -0.261 1.911 -0.491 2.737 -0.722" stroke-width="0.75"/><path fill="#EDDDA7" opacity="1.000000" stroke="none" d="M132.424 87.023c-0.159 4.657 -4.298 3.779 -7.085 4.33 -2.993 0.592 -6.193 0.068 -9.3 0.154 -7.435 0.207 -14.866 0.59 -22.302 0.675 -2.332 0.026 -5.162 0.289 -6.008 -3.297 9.018 -0.495 18.053 -0.732 27.087 -0.907 4.199 -0.081 8.402 0.028 12.598 -0.096 1.575 -0.046 3.138 -0.506 5.009 -0.859" stroke-width="0.75"/><path fill="#F5E6AD" opacity="1.000000" stroke="none" d="M114.75 75.749c-1.541 -1.264 -2.993 -2.665 -4.652 -3.751 -1.405 -0.919 -3.088 -2.071 -4.575 -1.978 -0.976 0.061 -2.435 2.08 -2.594 3.358 -0.279 2.254 0.269 4.611 0.525 7.223 -1.385 0.874 -2.276 0.805 -2.28 -1.158 -0.007 -3.733 -0.192 -7.466 0.002 -11.627 3.492 -2.603 6.841 -1.946 10.207 -0.999 0.124 0.725 -0.007 1.732 0.423 2.123 1.26 1.146 2.734 2.783 4.144 2.802 1.075 0.015 2.566 -1.983 3.157 -3.386 0.583 -1.38 0.265 -3.139 0.433 -5.054 2.843 2.703 2.757 5.913 -0.255 11.422 -0.866 0.503 -1.694 0.734 -3.028 0.994 -0.84 0.031 -1.173 0.031 -1.507 0.032" stroke-width="0.75"/><path fill="#EDDDA7" opacity="1.000000" stroke="none" d="M123.712 38.684c-6.943 -2.832 -14.029 -1.065 -21.389 -0.443 -0.975 -2.925 0.029 -4.034 3.173 -3.831 4.846 0.312 9.727 0.355 14.583 0.203 2.889 -0.091 4.328 0.649 3.634 4.071" stroke-width="0.75"/><path fill="#E7C697" opacity="1.000000" stroke="none" d="M111.467 66.511c-3.45 -0.64 -6.8 -1.297 -10.226 0.968 -0.742 -2.832 0.595 -3.891 3.411 -3.672 1.698 0.133 3.464 -0.207 5.1 0.137 0.727 0.153 1.208 1.472 1.715 2.567" stroke-width="0.75"/><path fill="#F5E6AD" opacity="1.000000" stroke="none" d="M124.052 80.283c-0.304 -1.105 -0.303 -2.135 -0.301 -3.474 0.883 -2.192 -2.417 -4.685 1.121 -6.268 0.487 2.551 0.824 5.149 0.865 7.752 0.011 0.681 -0.895 1.376 -1.685 1.99" stroke-width="0.75"/><path fill="#EACC9B" opacity="1.000000" stroke="none" d="M94.23 38.037c-1.414 -0.649 -2.763 -1.572 -4.11 -2.766 1.778 0.068 4.748 -1.392 4.11 2.766" stroke-width="0.75"/><path fill="#F5E6AD" opacity="1.000000" stroke="none" d="M119.255 52.086c2.662 2.183 1.681 4.959 0.358 7.83 -0.326 -2.438 -0.373 -4.963 -0.358 -7.83" stroke-width="0.75"/><path fill="#EFE6AF" opacity="1.000000" stroke="none" d="M264.424 34.532c1.175 2.778 -1.083 3.835 -2.795 3.575 -7.577 -1.154 -10.855 4.354 -14.755 8.947 -4.883 5.751 -9.686 11.57 -14.772 17.397 0.33 -1.755 0.461 -3.906 1.562 -5.276 6.045 -7.516 12.381 -14.797 18.5 -22.257 1.925 -2.348 4.138 -2.715 6.928 -2.238 1.627 0.279 3.358 -0.038 5.333 -0.148" stroke-width="0.75"/><path fill="#EFE5AD" opacity="1.000000" stroke="none" d="M224.271 64.965c-2.45 -2.605 -5.032 -5.396 -7.301 -8.422 -2.683 -3.577 -5.451 -7.168 -7.538 -11.097 -2.565 -4.83 -7.77 -5.772 -12.383 -2.001 -0.078 -1.601 0.091 -3.26 0.209 -4.423 2.757 -0.929 5.015 -1.69 7.351 -2.716 1.323 1.073 2.739 2.289 3.786 3.767a1077 1077 0 0 1 13.817 19.955c0.933 1.383 1.388 3.089 2.058 4.936" stroke-width="0.75"/><path fill="#EFE5AD" opacity="1.000000" stroke="none" d="M241.166 92.189c0.578 3.667 -2.557 3.435 -4.555 3.608 -4.491 0.39 -9.038 0.252 -13.558 0.167 -2.326 -0.044 -4.742 -0.295 -4.942 -3.58 2.594 -0.128 5.01 -0.056 7.425 -0.064 5.093 -0.017 10.185 -0.076 15.63 -0.131" stroke-width="0.75"/><path fill="#EFE6AF" opacity="1.000000" stroke="none" d="M222.426 34.431c-1.065 1.902 -2.406 3.874 -3.973 5.965 -1.205 -1.098 -2.186 -2.313 -3.332 -3.737a1416 1416 0 0 1 7.305 -2.228" stroke-width="0.75"/><path fill="#F0E4A4" opacity="1.000000" stroke="none" d="M191.002 90.827c-0.469 1.101 -0.966 3.005 -1.948 3.3 -1.024 0.307 -3.062 -0.578 -3.705 -1.563 -3.051 -4.674 -5.78 -9.559 -8.617 -14.371 -4.178 -7.082 -8.248 -14.231 -12.627 -21.187 -0.739 -1.174 -2.801 -1.515 -4.528 -2.231 -0.276 -3.298 -0.276 -6.606 -0.276 -10.698 0.877 1.042 1.38 1.482 1.688 2.03 6.685 11.882 13.369 23.764 19.998 35.676 1.442 2.591 2.582 5.349 4.031 7.935 1.385 2.472 3.304 3.303 5.984 1.109" stroke-width="0.75"/><path fill="#EEE3A5" opacity="1.000000" stroke="none" d="M166.137 89.941c-1.006 1.211 -2.213 3.358 -3.686 3.559 -5.091 0.698 -10.283 0.975 -15.42 0.836 -1.511 -0.041 -2.971 -1.989 -4.488 -3.335 6.258 -0.336 12.551 -0.369 18.843 -0.488 1.478 -0.027 2.952 -0.344 4.751 -0.572" stroke-width="0.75"/><path fill="#EEE3A5" opacity="1.000000" stroke="none" d="M151.394 38.68c-2.505 -0.645 -5.038 -1.494 -7.417 -2.658 -0.918 -0.449 -1.486 -1.612 -2.221 -2.737 1.684 -0.04 3.412 0.559 5.059 0.381 3.729 -0.402 5.344 0.883 4.579 5.014" stroke-width="0.75"/><path fill="#EFE19C" opacity="1.000000" stroke="none" d="M188.891 42.457c-1.962 -1.085 -3.874 -2.494 -5.779 -4.184 1.796 -0.068 3.585 0.146 5.829 0.413 0 1.129 0 2.287 -0.05 3.77" stroke-width="0.75"/><path fill="#FEF3B8" opacity="1.000000" stroke="none" d="M315.27 70.606c-7.774 13.799 -17.326 15.195 -32.84 11.404 -3.838 -0.938 -7.803 -2.083 -9.198 -6.947 0.167 -1.054 0.325 -1.703 0.152 -2.243 -2.967 -9.257 -0.941 -17.549 5.309 -24.69 7.774 -8.882 24.613 -9.717 31.894 0.662 4.058 5.786 4.873 12.09 4.264 18.841 -0.087 0.971 0.268 1.98 0.419 2.972" stroke-width="0.75"/><path fill="#F2E8B2" opacity="1.000000" stroke="none" d="M315.48 70.442c-0.36 -0.827 -0.716 -1.838 -0.629 -2.808 0.61 -6.752 -0.206 -13.056 -4.264 -18.841 -7.281 -10.379 -24.12 -9.545 -31.894 -0.661 -6.25 7.14 -8.276 15.432 -5.309 24.689 0.173 0.541 0.015 1.19 -0.176 1.981 -3.868 -6.545 -5.343 -13.54 -2.265 -21.351 0.667 -1.107 0.942 -1.882 1.217 -2.656 0.045 -0.307 0.09 -0.615 0.381 -1.194 0.386 -0.408 0.469 -0.574 0.492 -0.77 0 0 -0.028 -0.045 0.251 -0.09 1.853 -1.417 3.612 -2.629 4.973 -4.189 7.979 -9.144 26.968 -8.924 34.478 1.811 0.505 0.72 1.504 1.095 2.273 1.631 0 0 -0.007 0.007 0.018 0.15 0.093 0.341 0.22 0.487 0.407 0.581 2.277 7.159 4.137 14.323 0.049 21.718" stroke-width="0.75"/><path fill="#E4DBAC" opacity="1.000000" stroke="none" d="M270.004 86.995c-0.228 -0.095 -0.418 -0.24 -0.694 -0.856a297.75 297.75 0 0 0 -2.348 -5.754c3.261 5.938 9.283 7.952 15.077 9.3 9.915 2.305 20.122 3.031 29.267 -2.809 3.029 -1.935 5.193 -5.221 7.973 -7.739 -0.784 2.218 -1.787 4.286 -2.791 6.353 -0.61 0.679 -1.222 1.357 -2.3 2.179 -9.221 6.472 -19.052 7.539 -29.175 5.159 -5.175 -1.217 -10.017 -3.845 -15.01 -5.834" stroke-width="0.75"/><path fill="#E3DAAB" opacity="1.000000" stroke="none" d="M314.98 47.732c-0.742 -0.274 -1.742 -0.649 -2.246 -1.369 -7.51 -10.734 -26.5 -10.954 -34.478 -1.811 -1.361 1.559 -3.119 2.771 -4.946 4.185 4.469 -11.083 18.945 -16.477 29.888 -12.053 5.576 2.254 9.027 5.898 11.783 11.048" stroke-width="0.75"/><path fill="#F2E8B1" opacity="1.000000" stroke="none" d="M266.909 80.117c0.794 2.045 1.534 3.822 2.31 5.865 -1.129 -0.748 -2.668 -1.546 -3.396 -2.809 -3.513 -6.092 -6.115 -12.489 -4.963 -19.99 2.142 5.412 4.069 11.04 6.05 16.934" stroke-width="0.75"/><path fill="#F2E8B1" opacity="1.000000" stroke="none" d="M316.748 85.459c0.744 -2.036 1.748 -4.104 2.749 -6.447 0.017 -0.41 0.038 -0.543 0.279 -0.949 0.37 -0.435 0.45 -0.625 0.461 -0.844 1.588 -3.132 3.177 -6.264 4.958 -9.58 0.277 1.313 0.968 3.15 0.347 4.244 -2.632 4.635 -5.655 9.05 -8.795 13.576" stroke-width="0.75"/><path fill="#E3DAAB" opacity="1.000000" stroke="none" d="M271.947 50.923c-0.062 0.645 -0.337 1.42 -0.868 2.265 0.047 -0.664 0.352 -1.4 0.868 -2.265" stroke-width="0.75"/><path fill="#E4DBAC" opacity="1.000000" stroke="none" d="M320.087 77.295c0.14 0.143 0.06 0.334 -0.213 0.59 -0.199 -0.151 -0.137 -0.354 0.213 -0.591" stroke-width="0.75"/><path fill="#E3DAAB" opacity="1.000000" stroke="none" d="M315.438 48.569c-0.193 0.06 -0.32 -0.086 -0.41 -0.429 0.187 -0.071 0.332 0.069 0.41 0.429" stroke-width="0.75"/><path fill="#E3DAAB" opacity="1.000000" stroke="none" d="M272.901 48.895c0.108 0.131 0.026 0.296 -0.235 0.507 -0.147 -0.142 -0.073 -0.314 0.235 -0.507" stroke-width="0.75"/><path fill="#F2E8B1" opacity="1.000000" stroke="none" d="M270.036 87.257c4.96 1.728 9.803 4.356 14.977 5.572 10.123 2.38 19.955 1.313 28.969 -5.05 -0.541 0.99 -1.133 2.393 -2.183 2.984 -12.885 7.258 -25.801 5.663 -38.61 -0.243 -1.239 -0.572 -2.09 -1.981 -3.155 -3.262" stroke-width="0.75"/><path fill="#FBEFB4" opacity="1.000000" stroke="none" d="M114.785 75.964c0.298 -0.215 0.631 -0.215 1.215 -0.215 0.011 0.371 -0.228 0.742 -0.467 1.112 -0.238 -0.227 -0.476 -0.455 -0.748 -0.898" stroke-width="0.75"/></g></svg>